<svg width="70" height="80" viewBox="0 0 70 80" fill="none" xmlns="http://www.w3.org/2000/svg">
<path d="M5.4251 73.2867L0.0912045 64.0273C0.0315564 63.9235 0.000101099 63.8058 2.43296e-07 63.6858C-0.000100612 63.5659 0.0311566 63.4481 0.0906299 63.3442C0.150103 63.2403 0.235697 63.154 0.338808 63.0939C0.441919 63.0339 0.558914 63.0022 0.678033 63.0021H3.91063C4.03133 63.0021 4.14983 63.0346 4.25389 63.0962C4.35794 63.1577 4.44377 63.2462 4.5025 63.3523L7.10593 68.0419C7.16482 68.1475 7.25061 68.2355 7.35445 68.2967C7.45829 68.3579 7.57646 68.3901 7.69679 68.3901C7.81712 68.3901 7.93528 68.3579 8.03913 68.2967C8.14297 68.2355 8.22875 68.1475 8.28765 68.0419L10.9274 63.3452C10.9866 63.24 11.0725 63.1526 11.1763 63.0918C11.2802 63.031 11.3981 62.999 11.5182 62.9991H14.644C14.7631 62.9993 14.8802 63.031 14.9833 63.0912C15.0864 63.1514 15.1719 63.2378 15.2313 63.3418C15.2907 63.4459 15.3218 63.5638 15.3216 63.6838C15.3213 63.8038 15.2896 63.9216 15.2298 64.0253L9.87975 73.2867C9.81947 73.3912 9.78781 73.51 9.788 73.6308V79.3151C9.78773 79.4962 9.71615 79.6698 9.58895 79.7979C9.46175 79.926 9.2893 79.998 9.10941 79.9983H6.19443C6.01454 79.998 5.84209 79.926 5.71489 79.7979C5.58769 79.6698 5.51611 79.4962 5.51584 79.3151V73.6308C5.51624 73.5101 5.48494 73.3914 5.4251 73.2867Z" fill="#0A4771"/>
<path d="M17.6777 79.0844V63.9204C17.6777 63.6781 17.7733 63.4457 17.9435 63.2744C18.1137 63.1031 18.3445 63.0068 18.5852 63.0068H21.0344C21.275 63.0068 21.5058 63.1031 21.676 63.2744C21.8462 63.4457 21.9418 63.6781 21.9418 63.9204V67.4568C21.9392 67.6523 21.999 67.8434 22.1123 68.0021C22.2256 68.1608 22.3865 68.2788 22.5713 68.3387C22.7561 68.3985 22.9551 68.3971 23.1391 68.3347C23.3231 68.2723 23.4823 68.1521 23.5934 67.9918L26.8905 63.3844C26.9747 63.2665 27.0855 63.1705 27.2139 63.1043C27.3422 63.0381 27.4844 63.0036 27.6286 63.0038H30.3833C30.5517 63.0021 30.7173 63.0476 30.8615 63.1352C31.0057 63.2229 31.1229 63.3492 31.1998 63.5001C31.2767 63.651 31.3104 63.8204 31.2971 63.9895C31.2838 64.1586 31.224 64.3206 31.1244 64.4573L26.7474 70.5477C26.6367 70.7023 26.5765 70.8877 26.575 71.0783C26.5736 71.2689 26.631 71.4552 26.7393 71.6115L31.5741 78.5565C31.6708 78.6937 31.728 78.855 31.7395 79.0228C31.7509 79.1905 31.7162 79.3582 31.639 79.5074C31.5619 79.6565 31.4453 79.7813 31.3022 79.8681C31.1591 79.9548 30.995 80.0001 30.8279 79.9989H27.7819C27.6322 79.9994 27.4847 79.9625 27.3526 79.8917C27.2205 79.8209 27.1078 79.7182 27.0246 79.5929L23.6146 74.4577C23.5072 74.2926 23.3496 74.1669 23.1654 74.0995C22.9812 74.032 22.7802 74.0265 22.5926 74.0836C22.4049 74.1408 22.2407 74.2575 22.1245 74.4165C22.0083 74.5754 21.9463 74.7679 21.9479 74.9653V79.0844C21.9479 79.3267 21.8523 79.559 21.6821 79.7304C21.5119 79.9017 21.2811 79.9979 21.0404 79.9979H18.5882C18.4688 79.9983 18.3505 79.975 18.24 79.9293C18.1296 79.8835 18.0292 79.8163 17.9446 79.7314C17.86 79.6466 17.7929 79.5457 17.7471 79.4347C17.7013 79.3236 17.6777 79.2046 17.6777 79.0844Z" fill="#0A4771"/>
<path d="M37.405 80.0016H35.1626C34.8952 80.0016 34.6387 79.8946 34.4496 79.7043C34.2605 79.5139 34.1543 79.2557 34.1543 78.9865V64.0235C34.1543 63.7543 34.2605 63.4961 34.4496 63.3057C34.6387 63.1154 34.8952 63.0084 35.1626 63.0084H37.405C37.6725 63.0084 37.9289 63.1154 38.118 63.3057C38.3071 63.4961 38.4133 63.7543 38.4133 64.0235V78.9825C38.4139 79.1161 38.3882 79.2485 38.3377 79.3721C38.2873 79.4958 38.2131 79.6081 38.1194 79.7028C38.0258 79.7975 37.9144 79.8727 37.7918 79.9239C37.6692 79.9752 37.5378 80.0016 37.405 80.0016Z" fill="#0A4771"/>
<path d="M41.8945 64.1132C41.8945 63.8189 42.0106 63.5367 42.2173 63.3287C42.424 63.1206 42.7043 63.0037 42.9966 63.0037H48.4928C50.3683 63.0037 51.8989 63.4808 53.0634 64.4147C54.228 65.3485 54.8098 66.7158 54.8098 68.5175C54.8098 70.3629 54.1847 71.7739 52.9556 72.729C51.7264 73.6619 50.1525 74.14 48.2337 74.14H47.2446C46.9523 74.14 46.672 74.2568 46.4653 74.4649C46.2586 74.673 46.1425 74.9552 46.1425 75.2494V78.8915C46.1422 79.1856 46.026 79.4677 45.8194 79.6757C45.6128 79.8837 45.3326 80.0007 45.0404 80.0009H42.9966C42.7043 80.0009 42.424 79.884 42.2173 79.676C42.0106 79.4679 41.8945 79.1857 41.8945 78.8915V64.1132ZM46.1425 69.3834C46.1425 69.6776 46.2586 69.9598 46.4653 70.1679C46.672 70.376 46.9523 70.4928 47.2446 70.4928H48.1692C49.7431 70.4928 50.5407 69.8838 50.5407 68.6911C50.5407 67.4101 49.7431 66.7625 48.147 66.7625H47.2446C46.9523 66.7625 46.672 66.8794 46.4653 67.0874C46.2586 67.2955 46.1425 67.5777 46.1425 67.872V69.3834Z" fill="#0A4771"/>
<path d="M57.0811 64.1132C57.0811 63.8189 57.1972 63.5367 57.4038 63.3287C57.6105 63.1206 57.8908 63.0037 58.1831 63.0037H63.6793C65.5558 63.0037 67.0864 63.4808 68.251 64.4147C69.4155 65.3485 69.9973 66.7158 69.9973 68.5175C69.9973 70.3629 69.3722 71.7739 68.1431 72.729C66.914 73.6619 65.34 74.14 63.4212 74.14H62.4311C62.1388 74.14 61.8585 74.2568 61.6518 74.4649C61.4451 74.673 61.329 74.9552 61.329 75.2494V78.8915C61.329 79.1857 61.2129 79.4679 61.0062 79.676C60.7995 79.884 60.5192 80.0009 60.2269 80.0009H58.1831C57.8909 80.0007 57.6108 79.8837 57.4041 79.6757C57.1975 79.4677 57.0813 79.1856 57.0811 78.8915V64.1132ZM61.329 69.3834C61.329 69.6776 61.4451 69.9598 61.6518 70.1679C61.8585 70.376 62.1388 70.4928 62.4311 70.4928H63.3557C64.9306 70.4928 65.7282 69.8838 65.7282 68.6911C65.7282 67.4101 64.9306 66.7625 63.3345 66.7625H62.427C62.1348 66.7625 61.8544 66.8794 61.6478 67.0874C61.4411 67.2955 61.325 67.5777 61.325 67.872L61.329 69.3834Z" fill="#0A4771"/>
<path d="M38.7334 37.607C39.2282 37.607 39.7027 37.4093 40.0528 37.0575C40.4029 36.7056 40.6 36.2282 40.6008 35.7301V15.0432H44.3365C45.8143 15.0432 47.2588 14.6021 48.4875 13.7756C49.7162 12.9491 50.6738 11.7744 51.2393 10.4C51.8048 9.0256 51.9528 7.51326 51.6645 6.05421C51.3762 4.59516 50.6646 3.25494 49.6197 2.20303C48.5748 1.15111 47.2435 0.434751 45.7942 0.144529C44.3448 -0.145694 42.8426 0.00325899 41.4773 0.572551C40.1121 1.14184 38.9452 2.10591 38.1242 3.34283C37.3033 4.57975 36.8651 6.03397 36.8651 7.5216V11.2824H33.1344V7.5216C33.1344 6.03397 32.6962 4.57975 31.8752 3.34283C31.0542 2.10591 29.8873 1.14184 28.5221 0.572551C27.1569 0.00325899 25.6546 -0.145694 24.2053 0.144529C22.7559 0.434751 21.4247 1.15111 20.3798 2.20303C19.3348 3.25494 18.6233 4.59516 18.335 6.05421C18.0467 7.51326 18.1946 9.0256 18.7601 10.4C19.3256 11.7744 20.2833 12.9491 21.512 13.7756C22.7406 14.6021 24.1852 15.0432 25.6629 15.0432H29.3986V35.7301C29.41 36.2213 29.6117 36.6885 29.9608 37.0318C30.3098 37.3751 30.7785 37.5674 31.2665 37.5674C31.7545 37.5674 32.2231 37.3751 32.5722 37.0318C32.9213 36.6885 33.123 36.2213 33.1344 35.7301V15.0432H36.8651V35.7301C36.8661 36.2283 37.0634 36.7057 37.4137 37.0575C37.764 37.4094 38.2386 37.607 38.7334 37.607ZM40.6008 7.5216C40.6008 6.77779 40.8199 6.05068 41.2304 5.43221C41.6409 4.81375 42.2243 4.33172 42.9069 4.04708C43.5896 3.76243 44.3407 3.68795 45.0654 3.83307C45.79 3.97818 46.4557 4.33636 46.9781 4.86232C47.5006 5.38827 47.8564 6.05838 48.0005 6.78791C48.1446 7.51743 48.0707 8.2736 47.7879 8.9608C47.5052 9.64799 47.0264 10.2354 46.412 10.6486C45.7977 11.0618 45.0754 11.2824 44.3365 11.2824H40.6008V7.5216ZM29.3946 11.2824H25.6589C24.92 11.2824 24.1977 11.0618 23.5834 10.6486C22.9691 10.2354 22.4902 9.64799 22.2075 8.9608C21.9247 8.2736 21.8508 7.51743 21.9949 6.78791C22.139 6.05838 22.4948 5.38827 23.0173 4.86232C23.5397 4.33636 24.2054 3.97818 24.93 3.83307C25.6547 3.68795 26.4058 3.76243 27.0885 4.04708C27.7711 4.33172 28.3545 4.81375 28.765 5.43221C29.1755 6.05068 29.3946 6.77779 29.3946 7.5216V11.2824Z" fill="#E5BC26"/>
<path d="M55.86 30.7847C55.2521 30.0308 54.3722 29.5501 53.413 29.4477C52.4538 29.3454 51.4933 29.6297 50.7419 30.2386C46.3612 33.8131 40.8914 35.7599 35.2525 35.7514C30.5836 35.7515 26.0108 34.4169 22.0659 31.9029C18.1211 29.389 14.9665 25.799 12.9691 21.5507C12.7579 21.0994 12.46 20.6947 12.0926 20.36C11.7251 20.0254 11.2954 19.7673 10.8283 19.6008C10.3612 19.4343 9.86599 19.3627 9.37121 19.39C8.87644 19.4174 8.39195 19.5431 7.94576 19.7601C7.08324 20.1791 6.41916 20.9229 6.09708 21.8309C5.77501 22.7388 5.82081 23.7379 6.2246 24.6121C11.3377 35.592 22.4148 43.1958 35.2575 43.1958C42.5942 43.207 49.7107 40.6726 55.4083 36.0194C55.779 35.7145 56.0863 35.3391 56.3127 34.9145C56.5392 34.49 56.6803 34.0248 56.7281 33.5453C56.7758 33.0659 56.7293 32.5817 56.5911 32.1204C56.4528 31.659 56.2257 31.2297 55.9225 30.8568L55.86 30.7847Z" fill="#0A4771"/>
<path d="M62.2616 20.3811C61.8254 20.1627 61.3508 20.033 60.8648 19.9994C60.3788 19.9658 59.891 20.029 59.4292 20.1853C58.9675 20.3416 58.5408 20.588 58.1737 20.9103C57.8066 21.2327 57.5062 21.6247 57.2897 22.064C57.0316 22.5831 56.7556 23.0906 56.4619 23.5866C56.0283 24.3156 55.8549 25.1718 55.9704 26.0135C56.0859 26.8552 56.4834 27.632 57.0971 28.2153C58.8112 29.8394 61.5891 29.4699 62.794 27.4367C63.1886 26.7709 63.5583 26.0901 63.9031 25.3944C64.1229 24.9569 64.2548 24.4799 64.2912 23.991C64.3276 23.502 64.2679 23.0106 64.1154 22.5449C63.963 22.0793 63.7207 21.6484 63.4026 21.2771C63.0845 20.9058 62.6968 20.6013 62.2616 20.3811Z" fill="#E5BC26"/>
<path d="M12.6521 21.0121C12.6521 21.0121 10.8815 30.2096 18.0061 38.1321C18.0061 38.1321 11.1648 34.4008 6.67893 25.5616C6.67893 25.5616 4.51109 22.7195 7.21434 20.2295C7.64339 19.8591 8.15444 19.5977 8.7046 19.4672C9.03535 19.3933 9.37468 19.366 9.7129 19.386C10.084 19.4011 10.451 19.4695 10.8029 19.589C11.2212 19.738 11.6108 19.9588 11.9543 20.2417C12.2208 20.4652 12.4555 20.7244 12.6521 21.0121Z" fill="#E5BC26"/>
<path d="M8.59765 19.4963C8.63687 21.4997 8.92893 23.4899 9.4668 25.4192C11.3493 32.147 15.7606 36.3047 18.0051 38.1348C17.5866 37.8932 17.024 37.5501 16.3867 37.0974C15.6621 36.5768 14.9676 36.0149 14.3066 35.4145C13.3871 34.6024 12.7196 33.9294 12.4383 33.6391C12.0692 33.2595 11.3775 32.5286 10.585 31.5603C9.54639 30.2872 8.60274 28.9386 7.76177 27.5254C7.57221 27.2168 7.38333 26.8994 7.19511 26.5733C6.96858 26.1862 6.75448 25.8056 6.55283 25.4313C6.28762 25.0271 6.09133 24.5811 5.97205 24.1118C5.8019 23.5058 5.78767 22.8662 5.93071 22.2532C6.02732 21.8672 6.1886 21.5005 6.40763 21.1691C6.43586 21.1254 6.46006 21.0838 6.46006 21.0838C6.58643 20.8865 6.73018 20.701 6.8896 20.5296C7.29989 20.1079 7.79731 19.7821 8.34659 19.5755C8.44943 19.5359 8.53816 19.5115 8.59765 19.4963Z" fill="#EFC337"/>
<path d="M42.7852 51.311H27.2151C26.3414 51.3086 25.5041 50.9581 24.8863 50.3361C24.2685 49.7142 23.9204 48.8713 23.918 47.9918C23.9206 47.1124 24.2689 46.2697 24.8867 45.648C25.5045 45.0263 26.3416 44.6759 27.2151 44.6735H42.7852C43.6572 44.6831 44.4917 45.0324 45.1134 45.648C45.4197 45.9554 45.6627 46.3207 45.8285 46.7229C45.9942 47.1251 46.0795 47.5563 46.0793 47.9918C46.0769 48.8708 45.7292 49.7132 45.1121 50.3351C44.4949 50.9569 43.6584 51.3078 42.7852 51.311Z" fill="#0A4771"/>
<path d="M39.2681 52.4907H30.7298C29.2162 52.4907 27.9893 53.7259 27.9893 55.2496C27.9893 56.7733 29.2162 58.0085 30.7298 58.0085H39.2681C40.7816 58.0085 42.0086 56.7733 42.0086 55.2496C42.0086 53.7259 40.7816 52.4907 39.2681 52.4907Z" fill="#0A4771"/>
</svg>
