<?xml version="1.0" encoding="UTF-8"?>
<svg xmlns="http://www.w3.org/2000/svg" xmlns:xlink="http://www.w3.org/1999/xlink" width="50px" height="50px" viewBox="0 0 50 50" version="1.1">
<g id="surface1">
<path style=" stroke:none;fill-rule:nonzero;fill:rgb(46.27451%,24.705882%,59.607843%);fill-opacity:1;" d="M 19.742188 24.515625 C 19.769531 25.15625 19.523438 25.78125 19.070312 26.234375 C 18.878906 26.425781 18.652344 26.582031 18.402344 26.695312 C 17.988281 26.882812 17.496094 26.792969 17.175781 26.46875 L 16.007812 25.550781 C 15.785156 25.371094 15.46875 25.371094 15.242188 25.550781 L 14.078125 26.46875 C 13.753906 26.796875 13.253906 26.886719 12.835938 26.691406 C 11.863281 26.234375 11.335938 25.167969 11.566406 24.117188 C 11.800781 23.070312 12.726562 22.324219 13.800781 22.324219 L 17.421875 22.324219 C 18.65625 22.324219 19.6875 23.285156 19.742188 24.515625 Z M 19.742188 24.515625 "/>
<path style=" stroke:none;fill-rule:nonzero;fill:rgb(27.058824%,16.078431%,43.529412%);fill-opacity:1;" d="M 17.660156 28.425781 L 13.589844 28.425781 C 12.195312 28.449219 10.898438 27.714844 10.195312 26.511719 C 9.488281 25.304688 9.488281 23.816406 10.195312 22.609375 C 10.898438 21.40625 12.195312 20.671875 13.589844 20.695312 L 17.660156 20.695312 C 19.058594 20.671875 20.355469 21.40625 21.058594 22.609375 C 21.765625 23.816406 21.765625 25.304688 21.058594 26.511719 C 20.355469 27.714844 19.058594 28.449219 17.660156 28.425781 Z M 13.589844 21.699219 C 12.011719 21.699219 10.730469 22.980469 10.730469 24.558594 C 10.730469 26.140625 12.011719 27.421875 13.589844 27.421875 L 17.660156 27.421875 C 19.242188 27.421875 20.523438 26.140625 20.523438 24.558594 C 20.523438 22.980469 19.242188 21.699219 17.660156 21.699219 Z M 13.589844 21.699219 "/>
<path style=" stroke:none;fill-rule:nonzero;fill:rgb(27.058824%,16.078431%,43.529412%);fill-opacity:1;" d="M 14.8125 28.742188 L 16.441406 28.742188 C 16.625 28.742188 16.773438 28.890625 16.773438 29.070312 L 16.773438 29.074219 C 16.773438 29.257812 16.625 29.40625 16.441406 29.40625 L 14.8125 29.40625 C 14.628906 29.40625 14.480469 29.257812 14.480469 29.074219 L 14.480469 29.070312 C 14.480469 28.890625 14.628906 28.742188 14.8125 28.742188 Z M 14.8125 28.742188 "/>
<path style=" stroke:none;fill-rule:nonzero;fill:rgb(25.490196%,25.098039%,25.882353%);fill-opacity:1;" d="M 32.378906 28.113281 L 32.226562 28.113281 C 32.21875 28.113281 32.214844 28.109375 32.214844 28.105469 L 32.167969 27.9375 C 32.167969 27.933594 32.167969 27.929688 32.167969 27.925781 C 32.171875 27.925781 32.171875 27.921875 32.175781 27.921875 L 32.757812 27.921875 C 32.765625 27.921875 32.769531 27.925781 32.769531 27.929688 L 32.816406 28.101562 C 32.816406 28.105469 32.816406 28.113281 32.808594 28.113281 L 32.617188 28.113281 C 32.613281 28.113281 32.609375 28.117188 32.609375 28.125 L 32.609375 28.753906 C 32.609375 28.761719 32.601562 28.765625 32.597656 28.765625 L 32.398438 28.765625 C 32.394531 28.765625 32.390625 28.761719 32.390625 28.753906 L 32.390625 28.125 C 32.390625 28.117188 32.382812 28.113281 32.378906 28.113281 "/>
<path style=" stroke:none;fill-rule:nonzero;fill:rgb(25.490196%,25.098039%,25.882353%);fill-opacity:1;" d="M 33.292969 28.617188 L 32.949219 28.617188 C 32.945312 28.617188 32.941406 28.617188 32.9375 28.621094 L 32.859375 28.757812 C 32.855469 28.761719 32.851562 28.765625 32.847656 28.765625 L 32.648438 28.765625 C 32.640625 28.765625 32.636719 28.761719 32.636719 28.753906 C 32.636719 28.753906 32.636719 28.75 32.636719 28.75 L 33.109375 27.925781 C 33.113281 27.921875 33.113281 27.921875 33.117188 27.921875 C 33.121094 27.921875 33.121094 27.921875 33.125 27.921875 C 33.128906 27.921875 33.128906 27.925781 33.128906 27.925781 L 33.605469 28.75 C 33.605469 28.753906 33.605469 28.753906 33.605469 28.757812 C 33.605469 28.761719 33.601562 28.765625 33.597656 28.765625 C 33.597656 28.765625 33.597656 28.765625 33.59375 28.765625 L 33.394531 28.765625 C 33.390625 28.765625 33.386719 28.761719 33.382812 28.757812 L 33.304688 28.621094 C 33.300781 28.617188 33.296875 28.617188 33.292969 28.617188 M 33.199219 28.441406 L 33.132812 28.328125 C 33.132812 28.324219 33.128906 28.320312 33.125 28.320312 C 33.125 28.320312 33.121094 28.320312 33.117188 28.320312 C 33.117188 28.324219 33.113281 28.324219 33.113281 28.328125 L 33.042969 28.441406 C 33.042969 28.445312 33.042969 28.449219 33.046875 28.453125 C 33.046875 28.457031 33.050781 28.460938 33.054688 28.460938 L 33.191406 28.460938 C 33.199219 28.460938 33.203125 28.453125 33.203125 28.449219 C 33.203125 28.445312 33.203125 28.445312 33.203125 28.441406 "/>
<path style=" stroke:none;fill-rule:nonzero;fill:rgb(25.490196%,25.098039%,25.882353%);fill-opacity:1;" d="M 34.148438 28.765625 L 33.65625 28.765625 C 33.648438 28.765625 33.644531 28.761719 33.644531 28.753906 L 33.644531 27.933594 C 33.644531 27.925781 33.648438 27.921875 33.65625 27.921875 L 33.851562 27.921875 C 33.859375 27.921875 33.863281 27.925781 33.863281 27.933594 L 33.863281 28.5625 C 33.863281 28.566406 33.867188 28.574219 33.875 28.574219 L 34.203125 28.574219 C 34.207031 28.574219 34.210938 28.578125 34.210938 28.585938 L 34.160156 28.757812 C 34.160156 28.761719 34.15625 28.765625 34.148438 28.765625 "/>
<path style=" stroke:none;fill-rule:nonzero;fill:rgb(25.490196%,25.098039%,25.882353%);fill-opacity:1;" d="M 34.273438 28.753906 L 34.273438 27.933594 C 34.273438 27.925781 34.277344 27.921875 34.285156 27.921875 L 34.523438 27.921875 C 34.585938 27.921875 34.648438 27.929688 34.707031 27.949219 C 34.757812 27.960938 34.800781 27.992188 34.832031 28.03125 C 34.867188 28.074219 34.882812 28.128906 34.878906 28.183594 C 34.878906 28.226562 34.867188 28.273438 34.839844 28.3125 C 34.820312 28.347656 34.789062 28.375 34.75 28.390625 C 34.742188 28.394531 34.742188 28.398438 34.742188 28.40625 L 34.949219 28.75 C 34.949219 28.753906 34.949219 28.753906 34.949219 28.757812 C 34.949219 28.761719 34.949219 28.765625 34.945312 28.765625 C 34.941406 28.765625 34.941406 28.765625 34.9375 28.765625 L 34.707031 28.765625 C 34.703125 28.765625 34.699219 28.761719 34.699219 28.757812 L 34.496094 28.390625 L 34.492188 28.390625 L 34.492188 28.753906 C 34.492188 28.761719 34.488281 28.765625 34.480469 28.765625 L 34.285156 28.765625 C 34.277344 28.765625 34.273438 28.761719 34.273438 28.753906 M 34.492188 28.328125 C 34.492188 28.332031 34.496094 28.339844 34.503906 28.339844 C 34.53125 28.339844 34.558594 28.335938 34.582031 28.328125 C 34.605469 28.320312 34.625 28.304688 34.640625 28.285156 C 34.652344 28.265625 34.660156 28.242188 34.660156 28.214844 C 34.664062 28.179688 34.648438 28.144531 34.617188 28.125 C 34.582031 28.109375 34.542969 28.101562 34.503906 28.101562 C 34.496094 28.101562 34.492188 28.109375 34.492188 28.113281 Z M 34.492188 28.328125 "/>
<path style=" stroke:none;fill-rule:nonzero;fill:rgb(25.490196%,25.098039%,25.882353%);fill-opacity:1;" d="M 35.601562 27.980469 C 35.664062 28.015625 35.71875 28.070312 35.753906 28.132812 C 35.792969 28.199219 35.8125 28.269531 35.8125 28.34375 C 35.8125 28.417969 35.792969 28.492188 35.753906 28.554688 C 35.679688 28.683594 35.539062 28.761719 35.390625 28.761719 C 35.242188 28.761719 35.101562 28.683594 35.023438 28.554688 C 34.949219 28.425781 34.949219 28.261719 35.023438 28.132812 C 35.0625 28.070312 35.117188 28.015625 35.179688 27.980469 C 35.308594 27.90625 35.472656 27.90625 35.601562 27.980469 M 35.277344 28.140625 C 35.207031 28.183594 35.164062 28.261719 35.164062 28.34375 C 35.164062 28.386719 35.175781 28.425781 35.195312 28.460938 C 35.214844 28.496094 35.242188 28.527344 35.277344 28.546875 C 35.347656 28.59375 35.433594 28.59375 35.503906 28.546875 C 35.539062 28.527344 35.566406 28.496094 35.585938 28.460938 C 35.628906 28.386719 35.628906 28.300781 35.585938 28.226562 C 35.566406 28.191406 35.539062 28.164062 35.503906 28.140625 C 35.46875 28.117188 35.429688 28.105469 35.390625 28.105469 C 35.351562 28.105469 35.3125 28.117188 35.277344 28.140625 "/>
<path style=" stroke:none;fill-rule:nonzero;fill:rgb(25.490196%,25.098039%,25.882353%);fill-opacity:1;" d="M 35.898438 28.753906 L 35.898438 27.933594 C 35.898438 27.925781 35.90625 27.921875 35.910156 27.921875 L 36.167969 27.921875 C 36.21875 27.921875 36.269531 27.925781 36.320312 27.933594 C 36.359375 27.941406 36.398438 27.957031 36.429688 27.980469 C 36.460938 28 36.488281 28.03125 36.503906 28.066406 C 36.519531 28.105469 36.527344 28.148438 36.527344 28.195312 C 36.527344 28.234375 36.519531 28.269531 36.503906 28.304688 C 36.484375 28.339844 36.460938 28.367188 36.433594 28.390625 C 36.402344 28.414062 36.363281 28.433594 36.324219 28.445312 C 36.285156 28.457031 36.242188 28.464844 36.195312 28.464844 L 36.132812 28.464844 C 36.125 28.464844 36.121094 28.46875 36.121094 28.472656 L 36.121094 28.757812 C 36.121094 28.761719 36.113281 28.769531 36.109375 28.769531 L 35.910156 28.769531 C 35.90625 28.769531 35.898438 28.761719 35.898438 28.757812 M 36.121094 28.113281 L 36.121094 28.273438 C 36.121094 28.277344 36.125 28.285156 36.132812 28.285156 L 36.183594 28.285156 C 36.214844 28.285156 36.246094 28.277344 36.277344 28.261719 C 36.296875 28.242188 36.308594 28.21875 36.308594 28.191406 C 36.308594 28.167969 36.296875 28.140625 36.277344 28.125 C 36.246094 28.109375 36.214844 28.101562 36.183594 28.101562 L 36.132812 28.101562 C 36.125 28.101562 36.121094 28.109375 36.121094 28.113281 "/>
<path style=" stroke:none;fill-rule:nonzero;fill:rgb(25.490196%,25.098039%,25.882353%);fill-opacity:1;" d="M 23.632812 28.777344 L 23.539062 28.777344 L 23.921875 27.894531 L 24.027344 27.894531 L 24.410156 28.777344 L 24.3125 28.777344 L 24.214844 28.554688 L 23.730469 28.554688 Z M 24.179688 28.46875 L 23.972656 27.992188 L 23.765625 28.46875 Z M 24.179688 28.46875 "/>
<path style=" stroke:none;fill-rule:nonzero;fill:rgb(25.490196%,25.098039%,25.882353%);fill-opacity:1;" d="M 25.316406 28.695312 C 25.265625 28.753906 25.191406 28.789062 25.113281 28.789062 C 25.019531 28.789062 24.929688 28.738281 24.882812 28.65625 L 24.882812 29.078125 L 24.792969 29.078125 L 24.792969 28.175781 L 24.882812 28.175781 L 24.882812 28.308594 C 24.929688 28.222656 25.019531 28.167969 25.117188 28.167969 C 25.195312 28.167969 25.269531 28.199219 25.320312 28.261719 C 25.425781 28.386719 25.425781 28.570312 25.320312 28.695312 Z M 25.25 28.644531 C 25.289062 28.597656 25.308594 28.539062 25.308594 28.480469 C 25.308594 28.417969 25.289062 28.359375 25.25 28.3125 C 25.210938 28.265625 25.15625 28.242188 25.097656 28.242188 C 25.035156 28.242188 24.980469 28.269531 24.941406 28.3125 C 24.902344 28.359375 24.878906 28.414062 24.878906 28.476562 C 24.878906 28.535156 24.902344 28.59375 24.941406 28.640625 C 24.980469 28.6875 25.035156 28.710938 25.097656 28.710938 C 25.15625 28.714844 25.210938 28.6875 25.25 28.644531 Z M 25.25 28.644531 "/>
<path style=" stroke:none;fill-rule:nonzero;fill:rgb(25.490196%,25.098039%,25.882353%);fill-opacity:1;" d="M 25.640625 28.175781 L 25.640625 28.296875 C 25.671875 28.21875 25.75 28.167969 25.835938 28.167969 C 25.84375 28.164062 25.855469 28.164062 25.863281 28.167969 L 25.863281 28.257812 C 25.847656 28.257812 25.835938 28.257812 25.828125 28.257812 C 25.773438 28.253906 25.71875 28.277344 25.6875 28.324219 C 25.65625 28.371094 25.636719 28.425781 25.640625 28.480469 L 25.640625 28.777344 L 25.554688 28.777344 L 25.554688 28.175781 Z M 25.640625 28.175781 "/>
<path style=" stroke:none;fill-rule:nonzero;fill:rgb(25.490196%,25.098039%,25.882353%);fill-opacity:1;" d="M 26.007812 28.699219 C 25.945312 28.640625 25.914062 28.5625 25.917969 28.480469 C 25.917969 28.351562 25.992188 28.238281 26.109375 28.191406 C 26.226562 28.140625 26.359375 28.167969 26.449219 28.257812 C 26.507812 28.3125 26.542969 28.390625 26.542969 28.476562 C 26.542969 28.601562 26.464844 28.714844 26.351562 28.765625 C 26.234375 28.8125 26.097656 28.789062 26.007812 28.699219 Z M 26.386719 28.644531 C 26.429688 28.597656 26.449219 28.539062 26.449219 28.480469 C 26.449219 28.417969 26.429688 28.359375 26.386719 28.3125 C 26.34375 28.269531 26.289062 28.242188 26.226562 28.242188 C 26.167969 28.242188 26.109375 28.269531 26.070312 28.3125 C 26.027344 28.355469 26.003906 28.417969 26.007812 28.476562 C 26.003906 28.539062 26.027344 28.597656 26.070312 28.644531 C 26.109375 28.691406 26.167969 28.714844 26.230469 28.714844 C 26.289062 28.714844 26.347656 28.6875 26.390625 28.644531 Z M 26.386719 28.644531 "/>
<path style=" stroke:none;fill-rule:nonzero;fill:rgb(25.490196%,25.098039%,25.882353%);fill-opacity:1;" d="M 26.792969 28.175781 L 26.792969 28.90625 C 26.792969 29.023438 26.734375 29.082031 26.621094 29.082031 C 26.601562 29.078125 26.582031 29.078125 26.566406 29.070312 L 26.566406 29 C 26.578125 29 26.59375 29.003906 26.609375 29.003906 C 26.632812 29.003906 26.660156 28.996094 26.679688 28.976562 C 26.699219 28.957031 26.707031 28.933594 26.703125 28.90625 L 26.703125 28.175781 Z M 26.746094 27.894531 C 26.773438 27.894531 26.796875 27.910156 26.808594 27.933594 C 26.816406 27.957031 26.8125 27.988281 26.792969 28.007812 C 26.773438 28.023438 26.746094 28.03125 26.722656 28.019531 C 26.695312 28.011719 26.679688 27.988281 26.679688 27.960938 C 26.679688 27.941406 26.6875 27.925781 26.699219 27.914062 C 26.710938 27.898438 26.730469 27.894531 26.746094 27.894531 Z M 26.746094 27.894531 "/>
<path style=" stroke:none;fill-rule:nonzero;fill:rgb(25.490196%,25.098039%,25.882353%);fill-opacity:1;" d="M 27.035156 28.503906 C 27.039062 28.5625 27.0625 28.613281 27.105469 28.652344 C 27.144531 28.691406 27.195312 28.710938 27.253906 28.710938 C 27.335938 28.710938 27.410156 28.664062 27.445312 28.589844 L 27.507812 28.632812 C 27.460938 28.730469 27.363281 28.789062 27.253906 28.789062 C 27.171875 28.789062 27.09375 28.757812 27.035156 28.695312 C 26.917969 28.574219 26.917969 28.382812 27.03125 28.257812 C 27.085938 28.195312 27.160156 28.160156 27.242188 28.164062 C 27.320312 28.160156 27.398438 28.191406 27.453125 28.25 C 27.503906 28.3125 27.53125 28.390625 27.527344 28.472656 C 27.527344 28.484375 27.527344 28.492188 27.527344 28.503906 Z M 27.4375 28.429688 C 27.425781 28.316406 27.355469 28.242188 27.242188 28.242188 C 27.191406 28.242188 27.140625 28.261719 27.105469 28.296875 C 27.070312 28.332031 27.046875 28.378906 27.039062 28.429688 Z M 27.4375 28.429688 "/>
<path style=" stroke:none;fill-rule:nonzero;fill:rgb(25.490196%,25.098039%,25.882353%);fill-opacity:1;" d="M 27.785156 28.640625 C 27.824219 28.6875 27.882812 28.710938 27.941406 28.710938 C 28.027344 28.714844 28.105469 28.660156 28.132812 28.574219 L 28.210938 28.609375 C 28.167969 28.722656 28.058594 28.792969 27.941406 28.789062 C 27.859375 28.792969 27.777344 28.757812 27.722656 28.699219 C 27.664062 28.640625 27.628906 28.5625 27.632812 28.476562 C 27.632812 28.394531 27.664062 28.316406 27.722656 28.257812 C 27.78125 28.199219 27.859375 28.164062 27.941406 28.164062 C 28.058594 28.160156 28.167969 28.230469 28.207031 28.34375 L 28.128906 28.375 C 28.105469 28.292969 28.027344 28.238281 27.941406 28.242188 C 27.882812 28.242188 27.824219 28.265625 27.785156 28.3125 C 27.742188 28.355469 27.722656 28.414062 27.722656 28.472656 C 27.722656 28.535156 27.742188 28.59375 27.785156 28.640625 Z M 27.785156 28.640625 "/>
<path style=" stroke:none;fill-rule:nonzero;fill:rgb(25.490196%,25.098039%,25.882353%);fill-opacity:1;" d="M 28.390625 28.625 L 28.390625 28.253906 L 28.277344 28.253906 L 28.277344 28.175781 L 28.390625 28.175781 L 28.390625 28 L 28.476562 28 L 28.476562 28.175781 L 28.628906 28.175781 L 28.628906 28.253906 L 28.476562 28.253906 L 28.476562 28.621094 C 28.476562 28.675781 28.507812 28.707031 28.574219 28.707031 C 28.59375 28.707031 28.609375 28.703125 28.628906 28.699219 L 28.628906 28.773438 C 28.605469 28.78125 28.582031 28.785156 28.558594 28.785156 C 28.445312 28.785156 28.390625 28.730469 28.390625 28.625 Z M 28.390625 28.625 "/>
<path style=" stroke:none;fill-rule:nonzero;fill:rgb(25.490196%,25.098039%,25.882353%);fill-opacity:1;" d="M 29.222656 28.0625 L 29.222656 28.175781 L 29.378906 28.175781 L 29.378906 28.253906 L 29.222656 28.253906 L 29.222656 28.777344 L 29.132812 28.777344 L 29.132812 28.253906 L 29.019531 28.253906 L 29.019531 28.175781 L 29.132812 28.175781 L 29.132812 28.0625 C 29.132812 27.929688 29.207031 27.855469 29.316406 27.855469 C 29.339844 27.855469 29.363281 27.859375 29.382812 27.867188 L 29.382812 27.941406 C 29.363281 27.9375 29.34375 27.933594 29.320312 27.933594 C 29.265625 27.933594 29.222656 27.96875 29.222656 28.0625 Z M 29.222656 28.0625 "/>
<path style=" stroke:none;fill-rule:nonzero;fill:rgb(25.490196%,25.098039%,25.882353%);fill-opacity:1;" d="M 29.582031 28.175781 L 29.582031 28.296875 C 29.617188 28.21875 29.691406 28.167969 29.777344 28.167969 C 29.789062 28.164062 29.796875 28.164062 29.808594 28.167969 L 29.808594 28.257812 C 29.792969 28.257812 29.78125 28.257812 29.773438 28.257812 C 29.71875 28.253906 29.664062 28.277344 29.628906 28.324219 C 29.597656 28.371094 29.582031 28.425781 29.582031 28.480469 L 29.582031 28.777344 L 29.496094 28.777344 L 29.496094 28.175781 Z M 29.582031 28.175781 "/>
<path style=" stroke:none;fill-rule:nonzero;fill:rgb(25.490196%,25.098039%,25.882353%);fill-opacity:1;" d="M 29.949219 28.699219 C 29.890625 28.640625 29.859375 28.5625 29.859375 28.480469 C 29.859375 28.351562 29.9375 28.238281 30.054688 28.191406 C 30.167969 28.140625 30.304688 28.167969 30.394531 28.257812 C 30.453125 28.3125 30.488281 28.390625 30.488281 28.476562 C 30.488281 28.558594 30.457031 28.640625 30.398438 28.699219 C 30.339844 28.757812 30.257812 28.789062 30.175781 28.789062 C 30.089844 28.792969 30.007812 28.757812 29.949219 28.699219 Z M 30.332031 28.644531 C 30.371094 28.597656 30.394531 28.539062 30.394531 28.480469 C 30.394531 28.417969 30.371094 28.359375 30.332031 28.3125 C 30.289062 28.269531 30.230469 28.242188 30.171875 28.242188 C 30.113281 28.242188 30.054688 28.269531 30.011719 28.3125 C 29.972656 28.355469 29.949219 28.417969 29.953125 28.476562 C 29.949219 28.539062 29.972656 28.597656 30.011719 28.644531 C 30.054688 28.691406 30.113281 28.714844 30.175781 28.714844 C 30.234375 28.714844 30.292969 28.6875 30.332031 28.644531 Z M 30.332031 28.644531 "/>
<path style=" stroke:none;fill-rule:nonzero;fill:rgb(25.490196%,25.098039%,25.882353%);fill-opacity:1;" d="M 31.050781 28.777344 L 31.050781 28.425781 C 31.050781 28.320312 31 28.246094 30.894531 28.246094 C 30.847656 28.242188 30.800781 28.265625 30.773438 28.300781 C 30.742188 28.339844 30.726562 28.386719 30.726562 28.4375 L 30.726562 28.78125 L 30.636719 28.78125 L 30.636719 28.179688 L 30.726562 28.179688 L 30.726562 28.28125 C 30.761719 28.210938 30.839844 28.164062 30.917969 28.167969 C 31.003906 28.160156 31.082031 28.210938 31.113281 28.289062 C 31.15625 28.210938 31.238281 28.167969 31.324219 28.167969 C 31.464844 28.167969 31.546875 28.261719 31.546875 28.410156 L 31.546875 28.777344 L 31.460938 28.777344 L 31.460938 28.425781 C 31.460938 28.316406 31.410156 28.242188 31.304688 28.242188 C 31.257812 28.242188 31.210938 28.261719 31.179688 28.296875 C 31.148438 28.335938 31.132812 28.382812 31.136719 28.429688 L 31.136719 28.777344 Z M 31.050781 28.777344 "/>
<path style=" stroke:none;fill-rule:nonzero;fill:rgb(46.27451%,24.705882%,59.607843%);fill-opacity:1;" d="M 24.867188 21.367188 C 25.355469 21.367188 25.761719 21.609375 25.984375 22.023438 L 25.5 22.355469 C 25.339844 22.085938 25.128906 21.953125 24.863281 21.953125 C 24.472656 21.953125 24.195312 22.226562 24.195312 22.640625 C 24.1875 22.820312 24.253906 23 24.378906 23.132812 C 24.507812 23.257812 24.683594 23.324219 24.863281 23.316406 C 25.128906 23.316406 25.339844 23.183594 25.5 22.917969 L 25.984375 23.246094 C 25.761719 23.664062 25.355469 23.902344 24.863281 23.902344 C 24.140625 23.914062 23.527344 23.34375 23.539062 22.636719 C 23.53125 21.933594 24.136719 21.351562 24.867188 21.367188 Z M 24.867188 21.367188 "/>
<path style=" stroke:none;fill-rule:nonzero;fill:rgb(46.27451%,24.705882%,59.607843%);fill-opacity:1;" d="M 27.804688 23.859375 L 27.25 23.101562 L 26.988281 23.101562 L 26.988281 23.863281 L 26.351562 23.863281 L 26.351562 21.410156 L 27.3125 21.410156 C 27.855469 21.410156 28.257812 21.746094 28.257812 22.253906 C 28.261719 22.539062 28.113281 22.804688 27.871094 22.949219 L 28.519531 23.859375 Z M 26.988281 22.542969 L 27.3125 22.542969 C 27.492188 22.542969 27.605469 22.429688 27.605469 22.253906 C 27.605469 22.078125 27.492188 21.96875 27.3125 21.96875 L 26.988281 21.96875 Z M 26.988281 22.542969 "/>
<path style=" stroke:none;fill-rule:nonzero;fill:rgb(46.27451%,24.705882%,59.607843%);fill-opacity:1;" d="M 28.769531 21.410156 L 30.46875 21.410156 L 30.46875 21.988281 L 29.40625 21.988281 L 29.40625 22.324219 L 30.164062 22.324219 L 30.164062 22.859375 L 29.40625 22.859375 L 29.40625 23.285156 L 30.511719 23.285156 L 30.511719 23.863281 L 28.769531 23.863281 Z M 28.769531 21.410156 "/>
<path style=" stroke:none;fill-rule:nonzero;fill:rgb(46.27451%,24.705882%,59.607843%);fill-opacity:1;" d="M 32.328125 23.65625 L 31.445312 23.65625 L 31.359375 23.863281 L 30.671875 23.863281 L 31.785156 21.367188 L 31.992188 21.367188 L 33.101562 23.863281 L 32.417969 23.863281 Z M 31.890625 22.578125 L 31.675781 23.144531 L 32.101562 23.144531 Z M 31.890625 22.578125 "/>
<path style=" stroke:none;fill-rule:nonzero;fill:rgb(46.27451%,24.705882%,59.607843%);fill-opacity:1;" d="M 33.601562 21.988281 L 32.871094 21.988281 L 32.871094 21.410156 L 34.976562 21.410156 L 34.976562 21.988281 L 34.242188 21.988281 L 34.242188 23.859375 L 33.601562 23.859375 Z M 33.601562 21.988281 "/>
<path style=" stroke:none;fill-rule:nonzero;fill:rgb(46.27451%,24.705882%,59.607843%);fill-opacity:1;" d="M 36.410156 21.367188 C 37.125 21.351562 37.75 21.933594 37.738281 22.636719 C 37.75 23.34375 37.125 23.914062 36.410156 23.90625 C 35.695312 23.914062 35.082031 23.34375 35.09375 22.636719 C 35.082031 21.933594 35.695312 21.351562 36.410156 21.367188 Z M 36.414062 21.953125 C 36.023438 21.953125 35.75 22.230469 35.75 22.636719 C 35.742188 22.820312 35.808594 23 35.933594 23.132812 C 36.0625 23.257812 36.238281 23.324219 36.414062 23.316406 C 36.792969 23.316406 37.082031 23.042969 37.082031 22.636719 C 37.082031 22.226562 36.792969 21.953125 36.414062 21.953125 Z M 36.414062 21.953125 "/>
<path style=" stroke:none;fill-rule:nonzero;fill:rgb(46.27451%,24.705882%,59.607843%);fill-opacity:1;" d="M 39.554688 23.859375 L 39 23.101562 L 38.738281 23.101562 L 38.738281 23.863281 L 38.101562 23.863281 L 38.101562 21.410156 L 39.0625 21.410156 C 39.609375 21.410156 40.007812 21.746094 40.007812 22.253906 C 40.015625 22.539062 39.867188 22.804688 39.625 22.949219 L 40.269531 23.859375 Z M 38.738281 22.542969 L 39.0625 22.542969 C 39.242188 22.542969 39.355469 22.429688 39.355469 22.253906 C 39.355469 22.078125 39.242188 21.96875 39.0625 21.96875 L 38.738281 21.96875 Z M 38.738281 22.542969 "/>
<path style=" stroke:none;fill-rule:nonzero;fill:rgb(27.058824%,16.078431%,43.529412%);fill-opacity:1;" d="M 24.867188 24.574219 C 25.355469 24.574219 25.761719 24.816406 25.984375 25.230469 L 25.5 25.5625 C 25.339844 25.292969 25.128906 25.160156 24.863281 25.160156 C 24.472656 25.160156 24.195312 25.4375 24.195312 25.847656 C 24.1875 26.03125 24.253906 26.207031 24.378906 26.339844 C 24.507812 26.464844 24.683594 26.53125 24.859375 26.527344 C 25.128906 26.527344 25.339844 26.394531 25.5 26.125 L 25.984375 26.457031 C 25.761719 26.875 25.355469 27.113281 24.859375 27.113281 C 24.140625 27.125 23.527344 26.554688 23.539062 25.84375 C 23.53125 25.144531 24.136719 24.558594 24.867188 24.574219 Z M 24.867188 24.574219 "/>
<path style=" stroke:none;fill-rule:nonzero;fill:rgb(27.058824%,16.078431%,43.529412%);fill-opacity:1;" d="M 26.351562 24.621094 L 26.988281 24.621094 L 26.988281 26.492188 L 28 26.492188 L 28 27.066406 L 26.351562 27.066406 Z M 26.351562 24.621094 "/>
<path style=" stroke:none;fill-rule:nonzero;fill:rgb(27.058824%,16.078431%,43.529412%);fill-opacity:1;" d="M 28.28125 24.621094 L 28.921875 24.621094 L 28.921875 26.078125 C 28.921875 26.355469 29.101562 26.527344 29.367188 26.527344 C 29.628906 26.527344 29.8125 26.355469 29.8125 26.078125 L 29.8125 24.621094 L 30.449219 24.621094 L 30.449219 26.027344 C 30.449219 26.675781 29.988281 27.113281 29.367188 27.113281 C 28.738281 27.113281 28.28125 26.683594 28.28125 26.027344 Z M 28.28125 24.621094 "/>
<path style=" stroke:none;fill-rule:nonzero;fill:rgb(27.058824%,16.078431%,43.529412%);fill-opacity:1;" d="M 32.066406 27.066406 L 30.925781 27.066406 L 30.925781 24.621094 L 31.804688 24.621094 C 32.277344 24.621094 32.632812 24.917969 32.632812 25.34375 C 32.636719 25.492188 32.585938 25.640625 32.484375 25.753906 C 32.742188 25.859375 32.894531 26.058594 32.894531 26.339844 C 32.894531 26.765625 32.539062 27.066406 32.066406 27.066406 Z M 31.535156 25.15625 L 31.535156 25.585938 L 31.769531 25.585938 C 31.921875 25.585938 32.011719 25.503906 32.011719 25.371094 C 32.011719 25.242188 31.921875 25.15625 31.769531 25.15625 Z M 32.027344 26.097656 L 31.535156 26.097656 L 31.535156 26.53125 L 32.027344 26.53125 C 32.179688 26.53125 32.269531 26.460938 32.269531 26.316406 C 32.269531 26.171875 32.179688 26.097656 32.027344 26.097656 Z M 32.027344 26.097656 "/>
</g>
</svg>
