<svg xmlns="http://www.w3.org/2000/svg" id="Layer_1" data-name="Layer 1" viewBox="208.78 446.99 661.03 188.15"><defs><style>.cls-1{fill:#763f98;}.cls-2{fill:#45296f;}.cls-3{fill:#414042;}</style></defs><path class="cls-1" d="M426.42,529.55a49.34,49.34,0,0,1-14.5,37.08,49.94,49.94,0,0,1-14.39,10,23.66,23.66,0,0,1-26.56-4.9L345.8,551.86a13.33,13.33,0,0,0-16.53,0l-25.16,19.9a23.75,23.75,0,0,1-26.89,4.75,49.5,49.5,0,0,1,20.89-94.34h78.21C402.94,482.17,425.29,503,426.42,529.55Z"/><path class="cls-2" d="M381.5,614H293.58a83.51,83.51,0,1,1,0-167H381.5a83.51,83.51,0,1,1,0,167ZM293.58,468.67a61.81,61.81,0,0,0,0,123.62H381.5a61.81,61.81,0,1,0,0-123.62Z"/><rect class="cls-2" x="312.81" y="620.79" width="49.46" height="14.35" rx="7.17"/><path id="Path_266" data-name="Path 266" class="cls-3" d="M699.37,607.25h-3.3a.25.25,0,0,1-.23-.17l-1-3.67a.24.24,0,0,1,.16-.3H707.6a.26.26,0,0,1,.24.18l1,3.67a.24.24,0,0,1-.17.29h-4.1a.24.24,0,0,0-.24.24v13.6a.24.24,0,0,1-.24.24h-4.25a.24.24,0,0,1-.24-.24h0v-13.6a.24.24,0,0,0-.24-.24"/><path id="Path_267" data-name="Path 267" class="cls-3" d="M719.14,618.09H711.7a.24.24,0,0,0-.21.12l-1.75,3a.25.25,0,0,1-.21.12H705.2a.24.24,0,0,1-.24-.24.27.27,0,0,1,0-.12l10.22-17.76a.24.24,0,0,1,.33-.09.2.2,0,0,1,.09.09L725.84,621a.24.24,0,0,1-.09.33.21.21,0,0,1-.12,0H721.3a.22.22,0,0,1-.2-.12l-1.76-3a.24.24,0,0,0-.2-.12m-2-3.72-1.47-2.52a.24.24,0,0,0-.33-.09.38.38,0,0,0-.09.09l-1.48,2.52a.24.24,0,0,0,.21.36h2.95a.25.25,0,0,0,.25-.24.21.21,0,0,0,0-.12"/><path id="Path_268" data-name="Path 268" class="cls-3" d="M737.63,621.33H726.94a.24.24,0,0,1-.24-.24V603.36a.25.25,0,0,1,.24-.25h4.26a.24.24,0,0,1,.24.24h0v13.59a.24.24,0,0,0,.24.24h7.07a.24.24,0,0,1,.24.24s0,.05,0,.07l-1.12,3.68a.25.25,0,0,1-.23.17"/><path id="Path_269" data-name="Path 269" class="cls-3" d="M740.32,621.05V603.34a.24.24,0,0,1,.24-.24h5.14a13.09,13.09,0,0,1,4,.57,5.46,5.46,0,0,1,2.71,1.81,5.21,5.21,0,0,1,1,3.25,5.08,5.08,0,0,1-.84,2.8,4.25,4.25,0,0,1-2,1.72.25.25,0,0,0-.13.32v0L754.9,621a.24.24,0,0,1-.09.33.17.17,0,0,1-.12,0h-5a.23.23,0,0,1-.21-.13l-4.4-8h-.05v7.9a.24.24,0,0,1-.24.24h-4.26a.24.24,0,0,1-.24-.24m4.74-9.23a.25.25,0,0,0,.24.25h0a6,6,0,0,0,1.73-.27,2.37,2.37,0,0,0,1.22-.86,2.61,2.61,0,0,0,.42-1.53,2,2,0,0,0-.9-1.93,5.33,5.33,0,0,0-2.47-.51.25.25,0,0,0-.25.24h0v4.61Z"/><path id="Path_270" data-name="Path 270" class="cls-3" d="M769,604.38a9.06,9.06,0,0,1,3.32,3.3,8.89,8.89,0,0,1,1.23,4.56,8.79,8.79,0,0,1-1.23,4.55,9.17,9.17,0,0,1-15.78,0,9,9,0,0,1,0-9.11,9.09,9.09,0,0,1,3.33-3.3,9.23,9.23,0,0,1,9.13,0m-7,3.47a5.26,5.26,0,0,0-2.45,4.39,5.08,5.08,0,0,0,.67,2.49,5.34,5.34,0,0,0,1.78,1.91,4.49,4.49,0,0,0,4.88,0,5.46,5.46,0,0,0,1.79-1.91,5.08,5.08,0,0,0,0-5,5.32,5.32,0,0,0-1.78-1.9,4.52,4.52,0,0,0-2.45-.72,4.35,4.35,0,0,0-2.44.72"/><path id="Path_271" data-name="Path 271" class="cls-3" d="M775.44,621.09V603.34a.24.24,0,0,1,.24-.24h5.53a16.26,16.26,0,0,1,3.29.29,6.56,6.56,0,0,1,2.4,1,4.33,4.33,0,0,1,1.55,1.81,6.49,6.49,0,0,1,.54,2.79,5.18,5.18,0,0,1-.54,2.41,5.54,5.54,0,0,1-1.51,1.82,6.77,6.77,0,0,1-2.3,1.17,9.15,9.15,0,0,1-2.79.41h-1.42a.25.25,0,0,0-.24.25h0v6.09a.24.24,0,0,1-.24.24h-4.27a.24.24,0,0,1-.24-.24m4.75-13.88v3.44a.24.24,0,0,0,.24.24h1.12a3.32,3.32,0,0,0,2-.52,1.85,1.85,0,0,0,0-2.9,3.47,3.47,0,0,0-2-.5h-1.12a.24.24,0,0,0-.24.24"/><path class="cls-3" d="M510.5,621.63h-2.05l8.25-19.11H519l8.24,19.11h-2.12L523,616.75H512.6Zm11.74-6.71L517.8,604.6l-4.44,10.32Z"/><path class="cls-3" d="M546.85,619.82a5.52,5.52,0,0,1-4.39,2,5.67,5.67,0,0,1-5-2.88v9.11h-1.9V608.6h1.88v2.83a5.8,5.8,0,0,1,5.05-3,5.53,5.53,0,0,1,4.39,2,7.28,7.28,0,0,1,0,9.42Zm-1.46-1.1a5.24,5.24,0,0,0,1.24-3.58,5.35,5.35,0,0,0-1.24-3.59,4.08,4.08,0,0,0-3.32-1.49,4.3,4.3,0,0,0-3.32,1.52,5,5,0,0,0-1.34,3.48,5.24,5.24,0,0,0,1.32,3.59,4.24,4.24,0,0,0,3.34,1.49A4.12,4.12,0,0,0,545.39,618.72Z"/><path class="cls-3" d="M553.82,608.6v2.59a4.64,4.64,0,0,1,4.2-2.79,3,3,0,0,1,.63,0v2c-.31,0-.56-.05-.73-.05a3.52,3.52,0,0,0-3.1,1.44,5.83,5.83,0,0,0-1,3.42v6.37H552v-13Z"/><path class="cls-3" d="M561.73,619.9a6.43,6.43,0,0,1-1.93-4.74,6.76,6.76,0,0,1,11.51-4.83,6.41,6.41,0,0,1,2,4.73,6.78,6.78,0,0,1-11.54,4.84Zm8.22-1.2a5,5,0,0,0,1.36-3.54,5.25,5.25,0,0,0-1.36-3.61,4.7,4.7,0,0,0-6.86,0,5.07,5.07,0,0,0-1.34,3.56,5.24,5.24,0,0,0,1.34,3.62,4.49,4.49,0,0,0,3.47,1.48A4.41,4.41,0,0,0,570,618.7Z"/><path class="cls-3" d="M578.7,608.6v15.81c0,2.49-1.24,3.73-3.7,3.73a5.3,5.3,0,0,1-1.2-.19v-1.59a3.63,3.63,0,0,0,.93.1,1.88,1.88,0,0,0,2.07-2.1V608.6Zm-1-6.1a1.43,1.43,0,1,1-1.41,1.44A1.42,1.42,0,0,1,577.75,602.5Z"/><path class="cls-3" d="M584,615.7a4.7,4.7,0,0,0,1.44,3.2,4.43,4.43,0,0,0,3.22,1.26,4.53,4.53,0,0,0,4.12-2.61l1.41.93a6.06,6.06,0,0,1-5.51,3.37,6.34,6.34,0,0,1-4.71-2,7,7,0,0,1-.07-9.52,5.86,5.86,0,0,1,4.51-2,5.66,5.66,0,0,1,4.54,1.88,7.07,7.07,0,0,1,1.61,4.8,5.11,5.11,0,0,1,0,.64Zm8.63-1.61c-.26-2.44-1.78-4.05-4.22-4.05a4,4,0,0,0-2.9,1.19,4.81,4.81,0,0,0-1.49,2.86Z"/><path class="cls-3" d="M600.14,618.65a4.33,4.33,0,0,0,3.4,1.51,4.14,4.14,0,0,0,4.12-2.92l1.66.73a5.89,5.89,0,0,1-5.81,3.88,6.46,6.46,0,0,1-4.73-1.91,6.61,6.61,0,0,1-1.91-4.83,6.63,6.63,0,0,1,6.67-6.73,5.79,5.79,0,0,1,5.73,3.81l-1.66.73a4.1,4.1,0,0,0-4.07-2.86,4.43,4.43,0,0,0-3.4,1.47,5,5,0,0,0-1.31,3.51A5.35,5.35,0,0,0,600.14,618.65Z"/><path class="cls-3" d="M613.2,618.26v-8h-2.42V608.6h2.42v-3.76h1.87v3.76h3.3v1.68h-3.3v7.93q0,1.83,2.13,1.83a4.51,4.51,0,0,0,1.17-.1v1.59a5.48,5.48,0,0,1-1.49.2C614.41,621.73,613.2,620.58,613.2,618.26Z"/><path class="cls-3" d="M631.17,606.14v2.46h3.42v1.66h-3.42v11.37h-1.9V610.26h-2.42V608.6h2.42v-2.42c0-2.92,1.59-4.49,4-4.49a4.41,4.41,0,0,1,1.44.25v1.61a4.28,4.28,0,0,0-1.37-.17C632.17,603.38,631.17,604.11,631.17,606.14Z"/><path class="cls-3" d="M639,608.6v2.59a4.61,4.61,0,0,1,4.19-2.79,3.18,3.18,0,0,1,.64,0v2c-.32,0-.56-.05-.73-.05a3.51,3.51,0,0,0-3.1,1.44,5.84,5.84,0,0,0-1,3.42v6.37h-1.9v-13Z"/><path class="cls-3" d="M646.93,619.9a6.47,6.47,0,0,1-1.93-4.74,6.77,6.77,0,0,1,11.52-4.83,6.44,6.44,0,0,1,2,4.73,6.66,6.66,0,0,1-6.76,6.79A6.53,6.53,0,0,1,646.93,619.9Zm8.22-1.2a5,5,0,0,0,1.37-3.54,5.26,5.26,0,0,0-1.37-3.61,4.7,4.7,0,0,0-6.86,0,5.07,5.07,0,0,0-1.34,3.56,5.24,5.24,0,0,0,1.34,3.62,4.49,4.49,0,0,0,3.47,1.48A4.38,4.38,0,0,0,655.15,618.7Z"/><path class="cls-3" d="M670.69,621.63V614c0-2.27-1.12-3.9-3.37-3.9a3.22,3.22,0,0,0-2.63,1.22,4.43,4.43,0,0,0-1,2.9v7.42h-1.9v-13h1.88v2.27a4.67,4.67,0,0,1,4.19-2.51,4.26,4.26,0,0,1,4.18,2.61,5.18,5.18,0,0,1,4.58-2.59c3.05,0,4.81,2.07,4.81,5.2v8h-1.9V614c0-2.34-1.1-3.93-3.37-3.93a3.28,3.28,0,0,0-2.64,1.17,4.24,4.24,0,0,0-1,2.86v7.49Z"/><path class="cls-1" d="M537.1,461.52c10.58,0,19.39,5.21,24.2,14.19l-10.5,7.13c-3.44-5.77-8-8.65-13.78-8.65-8.42,0-14.43,5.93-14.43,14.82a14.65,14.65,0,0,0,4,10.66,14.34,14.34,0,0,0,10.42,4c5.77,0,10.34-2.89,13.78-8.66l10.5,7.13c-4.81,9-13.62,14.19-24.28,14.19-15.55.24-28.85-12.1-28.53-27.41C508.25,473.79,521.39,461.2,537.1,461.52Z"/><path class="cls-1" d="M600.57,515.38,588.63,499h-5.69v16.43H569.16V462.49h20.75c11.78,0,20.44,7.21,20.44,18.19A17.21,17.21,0,0,1,602,495.74l14,19.64Zm-17.63-28.45h7c3.85,0,6.33-2.49,6.33-6.25s-2.48-6.17-6.33-6.17h-7Z"/><path class="cls-1" d="M621.41,462.49h36.7v12.42H635.19v7.29h16.35v11.54H635.19V503h23.88v12.42H621.41Z"/><path class="cls-1" d="M698.26,511h-19l-1.92,4.41H662.52l24-53.86H691l24,53.86H700.19Zm-9.45-23.32-4.65,12.26h9.21Z"/><path class="cls-1" d="M725.83,474.91H710V462.49h45.52v12.42H739.62v40.47H725.83Z"/><path class="cls-1" d="M786.5,461.52c15.39-.32,28.93,12.27,28.61,27.41.32,15.31-13.22,27.65-28.61,27.41-15.47.24-28.77-12.1-28.45-27.41C757.73,473.79,771,461.2,786.5,461.52Zm.08,12.67c-8.49,0-14.42,6-14.42,14.74a14.84,14.84,0,0,0,4,10.74,14.23,14.23,0,0,0,10.42,4c8.17,0,14.42-5.93,14.42-14.75S794.75,474.19,786.58,474.19Z"/><path class="cls-1" d="M854.38,515.38,842.44,499h-5.69v16.43H823V462.49h20.76c11.78,0,20.44,7.21,20.44,18.19a17.21,17.21,0,0,1-8.34,15.06l13.95,19.64Zm-17.63-28.45h7c3.85,0,6.33-2.49,6.33-6.25s-2.48-6.17-6.33-6.17h-7Z"/><path class="cls-2" d="M537.1,530.81c10.58,0,19.39,5.21,24.2,14.19l-10.5,7.13c-3.44-5.77-8-8.65-13.78-8.65-8.42,0-14.43,5.93-14.43,14.82a14.65,14.65,0,0,0,4,10.66A14.34,14.34,0,0,0,537,573c5.77,0,10.34-2.89,13.78-8.66l10.5,7.13c-4.81,9-13.62,14.19-24.28,14.19-15.55.24-28.85-12.1-28.53-27.41C508.25,543.08,521.39,530.49,537.1,530.81Z"/><path class="cls-2" d="M569.16,531.78h13.78v40.47h21.88v12.42H569.16Z"/><path class="cls-2" d="M610.91,531.78h13.78v31.49c0,6,3.93,9.7,9.62,9.7s9.62-3.69,9.62-9.7V531.78h13.78v30.45c0,13.94-10,23.4-23.4,23.4-13.54,0-23.4-9.3-23.4-23.4Z"/><path class="cls-2" d="M692.65,584.67H668V531.78H687c10.18,0,17.87,6.41,17.87,15.62a12.81,12.81,0,0,1-3.2,8.9c5.53,2.24,8.81,6.57,8.81,12.66C710.52,578.1,702.83,584.67,692.65,584.67ZM681.19,543.4v9.29h5c3.29,0,5.29-1.84,5.29-4.65s-2-4.64-5.29-4.64Zm10.58,20.35H681.19v9.3h10.58c3.29,0,5.29-1.53,5.29-4.65S695.06,563.75,691.77,563.75Z"/></svg>