<svg width="37" height="36" viewBox="0 0 37 36" fill="none" xmlns="http://www.w3.org/2000/svg">
<path d="M18.6463 35.0049C8.88811 35.0049 0.978027 27.1701 0.978027 17.5049C0.978027 7.83963 8.88811 0.00488281 18.6463 0.00488281C28.4045 0.00488281 36.3146 7.83963 36.3146 17.5049C36.304 27.1649 28.3992 34.9944 18.6463 35.0049ZM11.0966 22.3821C10.8687 22.3821 10.6426 22.4101 10.42 22.4626L10.1549 22.5344L9.10543 24.3141C8.91373 24.6308 8.85217 25.0084 8.93348 25.3688C9.01479 25.7292 9.23274 26.0449 9.54232 26.2506C9.8519 26.4564 10.2294 26.5365 10.597 26.4745C10.9645 26.4124 11.2939 26.2129 11.5172 25.9171L11.6267 25.7544L13.0225 23.3551C12.7963 23.0555 12.5031 22.8117 12.1659 22.6429C11.8288 22.4741 11.4568 22.3848 11.079 22.3821H11.0966ZM20.7859 11.6599C20.2362 12.1714 19.8717 12.8478 19.7488 13.5849C19.5518 14.6012 19.7406 15.6537 20.2788 16.5406L25.65 25.7561C25.8369 26.0677 26.135 26.2984 26.4854 26.4027C26.8358 26.5071 27.2129 26.4774 27.5423 26.3196C27.8707 26.1592 28.1259 25.8819 28.2569 25.5432C28.3879 25.2045 28.3851 24.8294 28.249 24.4926L28.1624 24.3176L26.749 21.8834H28.8515C29.2197 21.8803 29.573 21.739 29.8401 21.488C30.1073 21.237 30.2683 20.8949 30.2907 20.5309C30.3131 20.1669 30.1953 19.808 29.961 19.5266C29.7266 19.2453 29.3933 19.0625 29.0282 19.0151L28.8515 19.0046H25.0705L21.1941 12.3546L20.7895 11.6546L20.7859 11.6599ZM8.50471 18.9924C8.31485 18.9928 8.12694 19.0304 7.95176 19.1029C7.77657 19.1754 7.61754 19.2814 7.48378 19.4149C7.35002 19.5483 7.24416 19.7066 7.17226 19.8806C7.10035 20.0547 7.06382 20.2411 7.06475 20.4291C7.06475 21.1536 7.60893 21.7661 8.3351 21.8589L8.51178 21.8676H21.7276C21.8739 21.5767 21.9475 21.2553 21.9423 20.9304C21.9371 20.6055 21.8531 20.2865 21.6976 20.0004C21.5653 19.7323 21.3682 19.5008 21.1238 19.3265C20.8793 19.1521 20.5951 19.0404 20.2965 19.0011L20.0827 18.9906H15.5756L21.8089 8.29988C22.0009 7.96848 22.053 7.57538 21.9538 7.20613C21.8832 6.94701 21.7411 6.71254 21.5433 6.52909C21.3455 6.34565 21.0999 6.22052 20.8343 6.16778C20.5686 6.11504 20.2933 6.13679 20.0394 6.23057C19.7855 6.32436 19.5631 6.48646 19.3972 6.69863L19.2877 6.85963L18.6463 7.96913L18.012 6.85963C17.8251 6.54768 17.5266 6.31664 17.1759 6.21228C16.8251 6.10792 16.4475 6.13784 16.118 6.29613C15.7897 6.45722 15.5347 6.73482 15.4038 7.0737C15.2728 7.41258 15.2755 7.78787 15.4112 8.12488L15.4978 8.29988L16.9643 10.8549L12.2203 18.9924H8.50471Z" fill="white"/>
</svg>
