<svg width="509" height="384" viewBox="0 0 509 384" fill="none" xmlns="http://www.w3.org/2000/svg">
<g clip-path="url(#clip0_2040_16171)">
<g opacity="0.4">
<g opacity="0.96" filter="url(#filter0_bd_2040_16171)">
<circle cx="875.206" cy="112.167" r="499.667" stroke="#EBC13A" shape-rendering="crispEdges"/>
</g>
<g opacity="0.96" filter="url(#filter1_bd_2040_16171)">
<circle cx="791.948" cy="129.597" r="499.667" stroke="white" shape-rendering="crispEdges"/>
</g>
<g opacity="0.96" filter="url(#filter2_bd_2040_16171)">
<circle cx="708.69" cy="147.018" r="499.667" stroke="#EBC13A" shape-rendering="crispEdges"/>
</g>
<g opacity="0.96" filter="url(#filter3_bd_2040_16171)">
<circle cx="625.425" cy="164.448" r="499.667" stroke="white" shape-rendering="crispEdges"/>
</g>
<g opacity="0.96" filter="url(#filter4_bd_2040_16171)">
<circle cx="542.167" cy="181.87" r="499.667" stroke="#EBC13A" shape-rendering="crispEdges"/>
</g>
</g>
</g>
<path opacity="0.1" d="M397.246 129.361C387.712 92.5072 353.125 94.7953 320.307 101.639C302.648 105.314 277.934 110.41 252.14 102.889C196.653 86.7127 132.807 82.6237 101.345 102.889C69.8836 123.153 50.9748 147.475 60.032 181.511C69.0892 215.547 92.1506 246.13 72.5531 264.382C52.9557 282.634 53.2947 351.596 133.888 356.988C214.481 362.38 206.494 284.954 259.725 288.588C312.956 292.221 422.214 344.541 426.833 306.596C431.451 268.651 372.161 241.554 393.422 178.524C397.638 165.992 401.631 146.183 397.246 129.361Z" fill="#F7F7F7"/>
<path opacity="0.1" d="M211.959 69.0438C211.959 69.0438 214.025 55.8235 219.819 56.3319C221.419 56.4696 222.51 58.101 223.23 59.8383C223.325 60.0729 223.491 60.2721 223.704 60.4081C223.918 60.5442 224.168 60.6105 224.421 60.5977C224.674 60.5848 224.916 60.4936 225.115 60.3366C225.313 60.1797 225.458 59.9648 225.529 59.7218C227.054 54.351 230.19 46.1519 235.063 46.1519C240.095 46.1519 240.253 55.5374 239.893 61.2472C239.882 61.4326 239.931 61.6167 240.034 61.7712C240.138 61.9256 240.289 62.0419 240.465 62.1021C240.64 62.1623 240.831 62.1631 241.007 62.1043C241.183 62.0455 241.335 61.9305 241.44 61.7768C242.764 59.8277 244.703 57.9527 247.054 58.493C251.631 59.5523 250.402 69.0862 250.402 69.0862L211.959 69.0438Z" fill="#D6D6D6"/>
<path opacity="0.1" d="M0 193.355C0 193.355 2.05508 180.134 7.84957 180.643C9.45974 180.781 10.5508 182.412 11.2606 184.149C11.3556 184.384 11.5213 184.583 11.7347 184.719C11.9481 184.855 12.1986 184.921 12.4514 184.909C12.7042 184.896 12.9467 184.805 13.1452 184.648C13.3438 184.491 13.4885 184.276 13.5593 184.033C15.0953 178.662 18.2309 170.463 23.0932 170.463C28.125 170.463 28.2839 179.848 27.9237 185.558C27.9121 185.744 27.9616 185.928 28.0649 186.082C28.1681 186.237 28.3192 186.353 28.4949 186.413C28.6707 186.473 28.8613 186.474 29.0376 186.415C29.2138 186.356 29.3659 186.241 29.4703 186.088C30.7945 184.139 32.7224 182.264 35.0847 182.804C39.661 183.863 38.4322 193.344 38.4322 193.344L0 193.355Z" fill="#D6D6D6"/>
<path opacity="0.1" d="M407.839 140.537C407.839 140.537 409.958 127.328 415.699 127.826C417.299 127.974 418.39 129.595 419.11 131.342C419.205 131.577 419.371 131.776 419.584 131.912C419.798 132.048 420.048 132.115 420.301 132.102C420.554 132.089 420.796 131.998 420.995 131.841C421.193 131.684 421.338 131.469 421.409 131.226C422.934 125.855 426.08 117.656 430.943 117.656C435.974 117.656 436.144 127.031 435.773 132.751C435.762 132.937 435.811 133.121 435.914 133.275C436.018 133.43 436.169 133.546 436.344 133.606C436.52 133.666 436.711 133.667 436.887 133.608C437.063 133.55 437.215 133.435 437.32 133.281C438.644 131.321 440.582 129.446 442.934 129.997C447.521 131.056 446.282 140.527 446.282 140.527L407.839 140.537Z" fill="#D6D6D6"/>
<path d="M285.371 174.785C280.93 178.399 275.947 181.287 270.604 183.344C270.604 183.344 265.604 186.469 259.206 190.113C251.663 194.404 245.848 197.243 240.286 198.757C236.204 199.883 232.207 201.299 228.326 202.995L227.267 203.482C224.163 204.88 222.299 205.918 222.299 205.918L218.411 196.745C218.411 196.745 225.487 189.711 229.661 186.257C234.841 182.02 244.237 172.741 255.233 168.757C256.056 168.457 256.898 168.213 257.754 168.027C262.693 164.587 267.806 161.405 273.072 158.493C274.708 157.536 276.474 156.822 278.316 156.374C278.316 156.374 288.634 165.866 285.371 174.785Z" fill="#F9B587"/>
<path d="M261.027 173.238C261.027 173.238 257.341 169.159 255.19 168.746C256.013 168.446 256.856 168.201 257.712 168.015C257.712 168.015 260.699 171.024 261.027 173.238Z" fill="#F39568"/>
<path d="M285.37 174.785C280.93 178.399 275.946 181.288 270.603 183.345C270.603 183.345 265.603 186.47 259.205 190.114C263.654 186.936 270.688 180.209 276.091 175.59C279.777 172.412 277.743 168.419 276.25 164.648C275.625 163.08 274.004 160.347 273.241 158.567C273.241 158.493 273.093 158.482 273.029 158.44C274.665 157.483 276.431 156.769 278.273 156.321C278.273 156.321 288.633 165.866 285.37 174.785Z" fill="#F39568"/>
<path d="M226.853 199.986L228.029 211.024C228.093 211.6 228.02 212.184 227.815 212.727C227.611 213.27 227.281 213.757 226.853 214.149L220.413 220.028C220.231 220.196 220.018 220.326 219.785 220.411C219.553 220.496 219.306 220.534 219.059 220.523C218.812 220.512 218.569 220.453 218.345 220.348C218.121 220.243 217.92 220.095 217.754 219.911C217.468 219.599 217.295 219.198 217.264 218.776C217.234 218.353 217.346 217.932 217.584 217.581L222.372 210.579L221.546 208.46L218.749 212.697L216.504 216.882L215.36 223.397C215.322 223.622 215.239 223.837 215.115 224.028C214.992 224.22 214.83 224.384 214.641 224.511C214.451 224.638 214.238 224.725 214.013 224.767C213.789 224.808 213.559 224.803 213.336 224.753C212.941 224.662 212.59 224.433 212.349 224.107C212.108 223.78 211.992 223.378 212.023 222.973L212.669 215.155L213.601 209.467L211.292 215.325L208.771 224.933C208.687 225.242 208.514 225.52 208.273 225.732C208.031 225.943 207.733 226.078 207.415 226.119C207.179 226.149 206.94 226.127 206.714 226.054C206.488 225.981 206.281 225.86 206.107 225.698C205.933 225.536 205.797 225.338 205.708 225.118C205.619 224.898 205.58 224.661 205.593 224.424L206.101 215.95L207.817 209.89L202.785 218.365L200.052 224.318C199.906 224.637 199.65 224.891 199.33 225.035C199.011 225.179 198.651 225.203 198.315 225.102C198.132 225.048 197.961 224.957 197.813 224.837C197.665 224.716 197.542 224.567 197.451 224.399C197.361 224.231 197.305 224.046 197.285 223.856C197.266 223.666 197.285 223.474 197.341 223.291L199.459 216.289L203.029 209.435L199.555 214.89L198.622 217.009C198.527 217.223 198.351 217.391 198.133 217.476C197.915 217.561 197.672 217.557 197.457 217.464C197.268 217.383 197.113 217.237 197.02 217.053C196.927 216.87 196.902 216.659 196.949 216.458L197.499 214.022L199.915 208.979L218.463 196.67C218.463 196.67 221.567 195.653 226.853 199.986Z" fill="#F9B587"/>
<path d="M228.115 203.079L227.225 203.471C227.225 203.471 226.939 202.009 224.672 200.134C226.106 200.721 227.313 201.754 228.115 203.079Z" fill="#F39568"/>
<path d="M398.792 181.141C398.306 181.914 397.552 182.48 396.673 182.73C397.404 193.98 397.139 203.641 395.455 207.995C390.243 221.406 345.89 227.963 335.222 218.228C324.555 208.493 318.75 144.181 333.104 134.043C343.834 126.469 366.345 125.23 377.076 125.092C379.269 125.06 381.421 125.689 383.25 126.899C385.079 128.108 386.501 129.841 387.33 131.872C390.021 138.535 392.425 149.096 394.163 160.357C394.837 160.368 395.506 160.486 396.144 160.707C398.4 161.48 399.841 179.075 398.792 181.141Z" fill="#2C2A40"/>
<path d="M317.383 313.841C317.816 315.539 318.587 317.132 319.65 318.524C319.65 318.524 314.947 320.42 310.593 322.199C307.267 323.555 301.833 324.318 298.316 325.706C297.53 325.978 296.785 326.356 296.102 326.829C295.953 326.935 295.816 327.051 295.689 327.157C293.75 328.979 283.538 333.248 280.318 334.011C280.077 334.082 279.828 334.125 279.576 334.138C278.942 334.143 278.318 333.986 277.761 333.682C277.205 333.378 276.736 332.937 276.398 332.401C275.667 331.214 275.339 329.307 276.133 326.331C276.928 323.354 279.311 319.975 281.758 317.03C284.707 313.462 288.265 310.445 292.267 308.121C296.017 305.939 300.741 303.089 301.663 302.072C304.608 298.841 307.235 295.102 311.419 293.449C312.661 293.041 313.971 292.879 315.275 292.973C318.596 293.209 321.877 293.831 325.053 294.826C325.053 294.826 315.032 304.265 317.383 313.841Z" fill="#B0B1CA"/>
<path d="M315.318 292.973C313.295 294.435 310.021 296.998 308.75 299.329C306.759 302.856 298.92 306.522 295.519 308.736C292.119 310.95 279.026 321.193 277.744 326.818C276.632 331.691 278.877 333.556 280.318 334.011C280.077 334.081 279.828 334.12 279.576 334.128C277.744 334.128 274.524 332.634 276.176 326.331C276.939 323.439 279.354 319.975 281.801 317.03C284.749 313.462 288.307 310.446 292.31 308.121C296.06 305.939 300.784 303.09 301.706 302.073C304.651 298.842 307.278 295.102 311.462 293.45C312.703 293.036 314.014 292.874 315.318 292.973Z" fill="#2C2A40"/>
<path opacity="0.2" d="M319.651 318.524C319.651 318.524 314.947 320.42 310.593 322.2C307.267 323.556 301.833 324.319 298.316 325.706C297.53 325.979 296.785 326.356 296.102 326.829C295.953 326.935 295.816 327.052 295.689 327.158C293.75 328.98 283.538 333.249 280.318 334.011C280.077 334.083 279.828 334.126 279.576 334.139C278.943 334.144 278.318 333.987 277.762 333.683C277.205 333.379 276.736 332.938 276.398 332.401C276.398 332.401 283.062 330.929 286.526 328.704C288.761 327.274 291.822 324.954 294.746 323.408C293.848 321.704 292.809 320.077 291.642 318.545C293.287 319.772 294.796 321.172 296.144 322.719C297.147 322.243 298.22 321.931 299.322 321.798C302.744 321.48 313.517 317.91 317.331 313.863C317.781 315.558 318.571 317.143 319.651 318.524Z" fill="#2C2A40"/>
<path d="M294.491 283.333C294.406 288.566 295.55 292.867 295.307 294.668C294.968 297.984 289.385 304.604 289.385 304.604C288.972 308.386 285.953 313.736 281.97 316.575H281.917L281.779 316.734C280.707 317.569 279.449 318.134 278.112 318.381C276.776 318.628 275.399 318.55 274.099 318.153C273.802 318.047 273.506 317.931 273.209 317.793C268.071 315.314 266.482 297.613 273.209 290.526C279.692 283.683 282.436 269.615 288.887 268.047C295.338 266.479 298.643 269.265 298.643 269.265C298.474 269.52 298.304 269.774 298.156 270.028C295.757 274.052 294.491 278.649 294.491 283.333Z" fill="#B0B1CA"/>
<path d="M298.654 269.233C298.485 269.488 298.326 269.742 298.167 269.996C297.552 269.774 291.44 267.623 287.68 269.996C283.718 272.517 281.493 282.104 279.406 284.721C277.319 287.337 270.773 296.913 270.603 300.663C270.434 304.413 269.544 313.64 273.125 316.341C276.504 318.884 280.54 317.401 281.79 316.68C279.194 318.46 276.197 319.17 273.22 317.74C268.082 315.271 266.493 297.613 273.22 290.483C279.703 283.64 282.447 269.572 288.898 268.005C295.349 266.437 298.654 269.233 298.654 269.233Z" fill="#2C2A40"/>
<path opacity="0.2" d="M295.339 294.668C295.021 297.73 290.265 303.588 289.513 304.488L289.46 304.562C289.047 308.344 286.028 313.694 282.045 316.533H281.992L281.78 316.734C280.707 317.569 279.45 318.134 278.113 318.381C276.776 318.628 275.4 318.55 274.1 318.153C274.611 317.907 275.152 317.729 275.71 317.624C280.275 316.692 284.184 310.357 285.074 306.893C285.554 305.544 286.272 304.292 287.193 303.196C285.613 302.168 283.82 301.513 281.949 301.278C281.949 301.278 284.068 300.516 287.903 302.253C290.254 299.276 293.199 296.141 293.57 294.7C294.1 292.444 294.544 283.365 294.544 283.365C294.492 288.567 295.551 292.867 295.339 294.668Z" fill="#2C2A40"/>
<path d="M428.273 101.766L415.254 109.107L402.065 116.459C402.065 116.459 396.769 104.435 401.493 96.9882C401.493 96.9882 402.606 96.342 404.226 95.484C405.413 94.859 406.875 94.1281 408.379 93.4607C409.237 93.0793 410.106 92.7192 410.942 92.4014C411.936 89.2592 413.114 86.1783 414.47 83.1747C415.36 81.5031 415.777 79.6207 415.678 77.7298C415.66 77.2148 415.515 76.7123 415.254 76.2679C419.032 74.362 422.622 72.1026 425.974 69.52C425.974 69.52 434.322 88.7043 428.273 101.766Z" fill="#F9B587"/>
<path d="M417.553 97.6344C415.766 97.9673 413.919 97.7387 412.267 96.98C410.615 96.2213 409.238 94.9697 408.326 93.3972C409.184 93.0158 410.053 92.6556 410.89 92.3378C410.89 92.359 413.464 96.9353 417.553 97.6344Z" fill="#F39568"/>
<path d="M415.254 109.107L402.065 116.458C402.065 116.458 396.769 104.435 401.493 96.988C401.493 96.988 402.606 96.3418 404.226 95.4837C404.226 95.4837 404.364 105.706 405.762 108.196C407.161 110.685 411.811 109.838 415.254 109.107Z" fill="#F39568"/>
<path d="M425.921 69.5416C422.981 72.1941 419.816 74.5866 416.462 76.692C416.112 76.8615 415.625 76.692 415.148 76.3C413.381 76.4244 411.605 76.2159 409.915 75.6856C408.983 75.2619 408.993 73.9483 409.237 72.5077C407.012 71.9674 402.669 68.567 402.722 65.3255C402.796 61.7979 406.578 61.5331 406.578 61.5331C406.544 61.0317 406.626 60.5291 406.82 60.0651C407.013 59.6012 407.311 59.1885 407.692 58.8597C408.072 58.5309 408.523 58.295 409.01 58.1707C409.497 58.0464 410.006 58.037 410.498 58.1433C410.699 56.3742 413.898 55.5903 413.898 55.5903C414.226 54.0861 416.313 53.8318 417.553 54.4144C418.792 54.9971 426.176 63.567 426.504 65.1348C426.602 66.6277 426.404 68.1253 425.921 69.5416Z" fill="#F9B587"/>
<path d="M414.958 70.6006C415.498 72.6345 413.792 72.8887 413.792 72.8887C414.131 72.6239 414.11 71.7659 414.015 71.0137C413.989 70.6368 413.921 70.2638 413.814 69.9015C413.715 69.5093 413.532 69.1434 413.277 68.8288C413.023 68.5143 412.704 68.2586 412.341 68.0794C410.816 67.4015 410.117 67.857 410.117 67.857L407.087 63.7468C408.416 64.6717 409.641 65.7372 410.742 66.9248C411.658 66.8675 412.565 67.1327 413.306 67.6745C414.047 68.2163 414.575 69.0004 414.799 69.8909C415.108 69.8897 415.408 69.7846 415.65 69.5924C415.892 69.4003 416.062 69.1323 416.133 68.8315C416.236 68.3364 416.24 67.8257 416.143 67.3292C416.047 66.8327 415.853 66.3603 415.572 65.9396L411.335 60.3358C411.335 60.3358 417.076 65.696 417.214 67.751C417.296 68.0915 417.299 68.4461 417.224 68.788C417.149 69.13 416.997 69.4504 416.779 69.7249C416.562 69.9994 416.285 70.2209 415.969 70.3726C415.654 70.5243 415.308 70.6023 414.958 70.6006Z" fill="#F39568"/>
<path d="M415.562 58.6516C415.562 58.6516 419.322 63.1432 419.799 64.3614C419.916 64.638 419.976 64.9357 419.974 65.2361C419.973 65.5366 419.91 65.8337 419.79 66.1092C419.671 66.3847 419.496 66.6329 419.277 66.8387C419.058 67.0445 418.799 67.2036 418.517 67.3063C418.261 67.3939 417.986 67.4175 417.719 67.3751C417.451 67.3326 417.198 67.2254 416.981 67.0627V68.4821C416.981 68.4821 420.784 69.0754 420.742 65.4631C420.742 63.6622 415.562 58.6516 415.562 58.6516Z" fill="#F39568"/>
<path d="M420.551 64.6153C420.82 64.8636 421.147 65.0417 421.502 65.1341C421.856 65.2265 422.228 65.2302 422.585 65.145C423.697 64.7848 423.93 64.0856 423.644 63.3441C423.842 63.5653 423.959 63.8469 423.976 64.1432C423.994 64.4394 423.91 64.7328 423.739 64.9755C422.987 66.2361 421.123 66.0348 420.561 65.8547L420.551 64.6153Z" fill="#F39568"/>
<path d="M419.82 75.6856C419.383 76.3933 418.75 76.9592 417.998 77.3145C417.246 77.6699 416.407 77.7995 415.582 77.6877C415.587 77.1952 415.475 76.7085 415.254 76.2682C416.799 76.3535 418.346 76.156 419.82 75.6856Z" fill="#F39568"/>
<path d="M376.345 246.289C376.345 246.289 372.511 237.867 373.167 233.089C373.824 228.312 380.339 235.833 381.187 237.856C382.034 239.88 380.869 245.441 376.345 246.289Z" fill="#6C8C31"/>
<path d="M327.605 295.431C324.096 297.003 320.332 297.929 316.493 298.164C318.794 296.55 321.367 295.366 324.089 294.668C325.278 294.833 326.454 295.088 327.605 295.431Z" fill="#2C2A40"/>
<path d="M402.542 314.361C401.843 299.202 376.896 260.611 373.008 231.342L357.373 225.706C355.254 225.102 356.208 225.452 353.761 224.721C353.761 224.721 316.822 205.653 300.275 230.738C299.182 236.991 300.223 243.431 303.231 249.022C305.35 252.941 306.896 265.049 305.35 267.496C303.085 267.828 300.865 268.411 298.729 269.233C295.953 270.197 291.674 271.945 288.771 273.153C286.962 273.893 285.35 275.044 284.063 276.515C282.776 277.986 281.849 279.736 281.356 281.628C280.783 283.868 280.89 286.228 281.663 288.407C284.449 296.426 291.42 297.295 295.953 296.596C301.785 296.624 307.607 297.091 313.369 297.994C314.418 298.169 315.484 298.229 316.547 298.174C314.239 299.722 312.598 302.082 311.949 304.784C310.381 312.496 317.797 318.015 317.797 318.015C317.797 318.015 318.57 319.583 324.492 319.233C330.413 318.884 330.403 317.305 335.297 319.286C340.191 321.267 374.492 335.441 385.816 335.96C397.14 336.479 403.189 329.519 402.542 314.361ZM338.326 298.164C338.326 298.164 332.818 296.935 327.659 295.431C333.411 292.952 338.686 288.916 340.371 283.873C342.797 276.458 341.896 272.401 342.638 269.159C347.307 281.469 354.728 292.549 364.333 301.553C364.333 301.553 347.278 297.856 338.273 298.164H338.326Z" fill="#2C2A40"/>
<path d="M299.978 272.836L298.368 273.175L298.538 273.959L300.148 273.62L301.747 273.281L301.589 272.497L299.978 272.836Z" fill="#5B5B6C"/>
<path d="M283.644 278.428L284.035 279.127C284.978 278.598 285.942 278.068 286.917 277.57L286.546 276.86C285.572 277.369 284.597 277.899 283.644 278.428Z" fill="#5B5B6C"/>
<path d="M293.283 274.361L293.484 275.134C294.417 274.88 295.455 274.626 296.662 274.361L296.493 273.577C295.275 273.852 294.226 274.107 293.283 274.361Z" fill="#5B5B6C"/>
<path d="M310.381 261.416L311.187 261.363C311.123 260.304 311.017 259.16 310.869 258.069L310.074 258.175C310.201 259.245 310.297 260.336 310.381 261.416Z" fill="#5B5B6C"/>
<path d="M303.792 228.344L302.986 228.291C302.923 229.403 302.87 230.505 302.859 231.585H303.654C303.675 230.537 303.717 229.435 303.792 228.344Z" fill="#5B5B6C"/>
<path d="M309.766 256.352L310.55 256.204C310.349 255.081 310.105 253.99 309.83 252.973L309.057 253.174C309.321 254.128 309.565 255.198 309.766 256.352Z" fill="#5B5B6C"/>
<path d="M288.294 276.014L288.612 276.745C289.605 276.337 290.62 275.983 291.652 275.686L291.419 274.923C290.358 275.229 289.315 275.594 288.294 276.014Z" fill="#5B5B6C"/>
<path d="M309.449 269.816C309.14 270.159 308.761 270.43 308.337 270.611L308.686 271.331C309.231 271.097 309.711 270.733 310.085 270.272C310.427 269.751 310.664 269.168 310.784 268.556L310 268.365C309.907 268.879 309.721 269.371 309.449 269.816Z" fill="#5B5B6C"/>
<path d="M309.258 251.056C308.903 249.998 308.464 248.971 307.944 247.984L307.245 248.354C307.738 249.31 308.16 250.302 308.506 251.32L309.258 251.056Z" fill="#5B5B6C"/>
<path d="M303.664 233.503H302.859C302.859 234.657 302.944 235.77 303.039 236.818L303.834 236.744C303.739 235.727 303.686 234.636 303.664 233.503Z" fill="#5B5B6C"/>
<path d="M311.228 263.301H310.381C310.381 263.418 310.381 263.534 310.381 263.651C310.381 264.71 310.381 265.664 310.254 266.532L311.048 266.617C311.146 265.631 311.192 264.641 311.186 263.651L311.228 263.301Z" fill="#5B5B6C"/>
<path d="M304.714 241.797C304.43 240.752 304.211 239.691 304.057 238.619L303.263 238.736C303.424 239.836 303.65 240.925 303.941 241.999L304.714 241.797Z" fill="#5B5B6C"/>
<path d="M305.318 243.566L304.576 243.863C304.949 244.817 305.452 245.715 306.07 246.532L306.26 246.787L306.907 246.31C306.843 246.215 306.769 246.13 306.705 246.045C306.131 245.286 305.665 244.452 305.318 243.566Z" fill="#5B5B6C"/>
<path d="M303.453 272.094L303.633 272.868C304.968 272.571 305.996 272.306 306.811 272.041L306.568 271.268C305.773 271.533 304.777 271.798 303.453 272.094Z" fill="#5B5B6C"/>
<path d="M344.787 267.518L343.908 266.183L344.586 265.749L345.455 267.084L344.787 267.518Z" fill="#5B5B6C"/>
<path d="M329.598 299.107C330.445 299.308 331.451 299.562 332.68 299.891L332.882 299.118C331.653 298.789 330.636 298.535 329.788 298.323L329.598 299.107Z" fill="#5B5B6C"/>
<path d="M324.756 297.571L324.661 298.365C325.466 298.461 326.187 298.535 326.78 298.567C327.111 298.595 327.44 298.644 327.765 298.715L327.913 297.921C327.563 297.85 327.21 297.8 326.854 297.772C326.271 297.74 325.551 297.666 324.756 297.571Z" fill="#5B5B6C"/>
<path d="M334.47 300.378C335.444 300.643 336.472 300.918 337.542 301.226L337.754 300.452L334.682 299.605L334.47 300.378Z" fill="#5B5B6C"/>
<path d="M339.544 300.934L339.326 301.709L342.396 302.57L342.614 301.795L339.544 300.934Z" fill="#5B5B6C"/>
<path d="M344.184 303.079L347.256 303.937L347.467 303.164L344.406 302.316L344.184 303.079Z" fill="#5B5B6C"/>
<path d="M356.79 283.746L354.958 281.14L354.301 281.596L356.133 284.202L356.79 283.746Z" fill="#5B5B6C"/>
<path d="M372.234 303.725C371.899 302.65 371.323 301.664 370.55 300.844L369.946 301.353C370.629 302.089 371.145 302.963 371.461 303.916L372.234 303.725Z" fill="#5B5B6C"/>
<path d="M359.724 287.836C359.11 286.988 358.485 286.13 357.871 285.262L357.214 285.728L359.078 288.302L359.724 287.836Z" fill="#5B5B6C"/>
<path d="M319.714 297.242L319.661 297.518C320.784 297.737 321.843 297.927 322.839 298.09L322.966 297.306L321.504 297.052C320.89 297.126 320.307 297.189 319.714 297.242Z" fill="#5B5B6C"/>
<path d="M345.805 269.064L347.574 271.723L348.241 271.278L346.472 268.63L345.805 269.064Z" fill="#5B5B6C"/>
<path d="M365.032 307.2C364.678 307.199 364.324 307.178 363.972 307.137L363.888 307.931C364.239 307.971 364.593 307.992 364.947 307.995H365.117C365.858 307.995 366.557 307.921 367.172 307.857L367.087 307.062C366.419 307.084 365.752 307.126 365.032 307.2Z" fill="#5B5B6C"/>
<path d="M368.866 299.085C368.347 298.587 367.743 297.952 367.075 297.2L366.472 297.729C367.16 298.503 367.785 299.159 368.315 299.668L368.707 300.039L369.268 299.467L368.866 299.085Z" fill="#5B5B6C"/>
<path d="M365.868 295.802C365.254 295.06 364.576 294.234 363.877 293.334L363.241 293.821C363.962 294.732 364.629 295.569 365.254 296.31L365.868 295.802Z" fill="#5B5B6C"/>
<path d="M360.169 289.806C360.826 290.696 361.472 291.554 362.086 292.348L362.722 291.872C362.108 291.077 361.472 290.219 360.805 289.329L360.169 289.806Z" fill="#5B5B6C"/>
<path d="M368.803 306.713L368.993 307.497C370.154 307.331 371.21 306.734 371.949 305.823L371.282 305.389C370.645 306.118 369.763 306.589 368.803 306.713Z" fill="#5B5B6C"/>
<path d="M349.057 304.435L352.129 305.262L352.341 304.488L349.258 303.662L349.057 304.435Z" fill="#5B5B6C"/>
<path d="M358.845 306.946C360.042 307.222 361.09 307.444 362.023 307.603L362.16 306.819C361.292 306.66 360.254 306.438 359.067 306.173L358.845 306.946Z" fill="#5B5B6C"/>
<path d="M351.44 277.444L353.241 280.071L353.898 279.616L352.097 276.999L351.44 277.444Z" fill="#5B5B6C"/>
<path d="M351.049 275.42L349.269 272.782L348.612 273.227L350.392 275.865L351.049 275.42Z" fill="#5B5B6C"/>
<path d="M353.93 305.738L357.023 306.522L357.214 305.738C356.281 305.515 355.243 305.25 354.131 304.964L353.93 305.738Z" fill="#5B5B6C"/>
<path d="M327.605 295.431C324.096 297.003 320.332 297.929 316.493 298.164C318.794 296.55 321.367 295.366 324.089 294.668C325.278 294.833 326.454 295.088 327.605 295.431Z" fill="#2C2A40"/>
<path d="M403.326 118.365C403.273 123.408 403.008 127.073 403.008 127.073C401.991 127.452 400.997 127.891 400.032 128.387C393.146 131.872 384.576 139.16 382.5 146.586C381.663 149.541 381.282 155.643 381.133 162.539C381.006 168.111 381.049 174.192 381.133 179.584C381.133 179.87 381.133 180.156 381.133 180.442C381.239 187.253 381.409 192.762 381.409 194.319C381.409 198.673 380.54 211.575 380.349 217.147C380.159 222.719 381.748 228.641 382.468 238.048C383.188 247.454 376.356 246.289 376.356 246.289C382.977 243.503 379.534 235.569 375.296 233.874C374.671 233.62 373.941 233.344 373.125 233.058C363.019 229.478 339.566 223.44 327.574 221.681C309.777 219.075 300.191 230.749 300.191 230.749C300.191 230.749 303.676 211.406 306.631 207.571C309.587 203.736 311.345 191.194 312.563 185.971C312.733 185.116 312.829 184.248 312.849 183.376C313.019 178.694 311.991 171.342 311.398 167.539C311.165 166.014 310.985 165.06 310.985 165.06C309.195 168.026 297.5 174.118 291.515 177.105C289.396 178.164 287.998 178.831 287.998 178.831L283.03 171.3L273.188 156.353C273.188 156.353 273.835 155.759 275.879 154.149C277.33 153.005 279.481 151.353 282.595 149.033C290.085 143.461 298.972 133.355 302.277 131.787C305.583 130.219 306.112 130.399 310.466 126.215C313.527 123.281 324.608 119.732 330.953 117.868C333.665 117.073 335.508 116.596 335.508 116.596C340.385 118.144 345.669 117.765 350.275 115.537C350.275 115.537 352.595 114.012 355.731 112.105C360.826 109.022 368.082 104.933 371.091 104.69C374.915 104.393 391.345 99.7743 398.294 97.7828L401.409 96.8824C403.104 103.111 403.4 111.872 403.326 118.365Z" fill="#A5C723"/>
<path d="M342.414 124.552C340.058 124.71 337.708 124.155 335.67 122.962C333.632 121.768 332 119.99 330.984 117.857C333.696 117.063 335.539 116.586 335.539 116.586C340.416 118.134 345.701 117.755 350.306 115.527C350.306 115.527 352.626 114.001 355.762 112.095C356.673 119.817 350.878 124.118 342.414 124.552Z" fill="#2C2A40"/>
<path d="M291.547 177.094C289.428 178.153 288.03 178.821 288.03 178.821L273.199 156.342C273.199 156.342 273.845 155.749 275.89 154.138L291.547 177.094Z" fill="#2C2A40"/>
<path d="M403.008 127.115C401.991 127.494 400.997 127.933 400.032 128.429C401.335 115.78 399.311 103.005 398.326 97.878L401.441 96.9775C404.407 107.91 403.008 127.115 403.008 127.115Z" fill="#2C2A40"/>
<path d="M381.122 179.584C368.908 174.234 339.152 164.647 312.881 183.366C313.05 178.683 312.023 171.332 311.43 167.529C315.413 165.007 334.533 153.577 352.839 154.139C362.828 154.506 372.562 157.396 381.133 162.539C381.006 168.111 381.048 174.202 381.122 179.584Z" fill="#B8E019"/>
<path d="M322.213 74.6473C322.213 74.6473 317.372 73.588 316.779 79.1812C316.271 83.9905 322.372 85.7913 322.372 85.7913C322.372 85.7913 324.332 77.624 322.213 74.6473Z" fill="#2C2A40"/>
<path d="M324.597 82.8034C324.597 82.8034 319.756 81.7441 319.163 87.3267C318.654 92.1361 324.756 93.9369 324.756 93.9369C324.756 93.9369 326.716 85.8013 324.597 82.8034Z" fill="#2C2A40"/>
<path d="M321.409 75.7811C319.239 74.9153 317.494 73.2344 316.547 71.0981C315.601 68.9619 315.529 66.54 316.345 64.351C318.973 55.8764 328.994 59.2451 328.994 59.2451C329.157 57.5166 329.969 55.914 331.266 54.7602C332.563 53.6064 334.25 52.987 335.985 53.0269C337.81 52.8863 339.636 53.2829 341.238 54.1676C342.839 55.0523 344.147 56.3865 345 58.0057C345 58.0057 349.47 53.5565 354.915 54.8913C360.36 56.226 362.204 62.8362 360.509 65.9612C360.509 65.9612 363.973 65.3468 366.6 69.3722C369.227 73.3976 369.905 79.3722 366.6 81.5968C367.74 82.9671 368.503 84.6119 368.811 86.368C369.12 88.1241 368.964 89.9303 368.358 91.6073C367.79 93.2301 366.738 94.6395 365.344 95.6454C363.95 96.6513 362.281 97.2052 360.562 97.2323C360.562 97.2323 361.621 104.754 354.354 106.586C347.087 108.419 347.744 101.925 347.744 101.925C347.744 101.925 334.99 72.4336 321.409 75.7811Z" fill="#2C2A40"/>
<path d="M351.842 109.573L352.902 114.743C353.032 115.387 352.976 116.056 352.739 116.669C352.503 117.283 352.096 117.816 351.567 118.207C342.203 125.008 335.073 120.326 333.559 118.016C334.692 116.957 354.745 97.8891 355.116 87.2959C355.126 87.2429 357.436 100.548 351.842 109.573Z" fill="#F9B587"/>
<path d="M321.938 90.1341C321.212 92.9918 321.39 96.0044 322.447 98.7569L325.731 107.232C326.324 108.771 327.385 110.086 328.764 110.991C330.144 111.895 331.773 112.344 333.421 112.274C338.216 112.165 342.892 110.767 346.96 108.227C355.434 102.592 355.434 89.6468 355.434 89.6468C355.434 89.6468 354.735 76.5218 343.835 71.543C332.934 66.5642 321.854 72.3904 321.854 72.3904L320.604 81.5642C320.53 82.0731 320.487 82.586 320.477 83.1002C320.422 84.8332 320.692 86.5612 321.271 88.1955L321.938 90.1341Z" fill="#F9B587"/>
<path d="M330.815 80.4413C330.815 80.4413 336.938 74.4561 341.165 79.848L340.402 81.2252C340.402 81.2252 336.165 77.5175 331.207 82.1468L330.815 80.4413Z" fill="#2C2A40"/>
<path d="M321.939 90.134C321.55 91.6588 321.418 93.2375 321.547 94.8056C322.86 93.8734 325.508 93.0895 330.826 93.8098C330.826 93.8098 327.977 91.4899 325.127 91.4476C324.949 91.4429 324.775 91.397 324.619 91.3133C324.462 91.2297 324.327 91.1107 324.224 90.9657C324.121 90.8208 324.053 90.6539 324.026 90.4783C323.999 90.3026 324.013 90.1231 324.068 89.9539L325.667 85.081C325.24 84.4427 324.609 83.9684 323.877 83.7357C322.765 83.4442 321.632 83.2423 320.487 83.1319C320.433 84.865 320.703 86.5929 321.282 88.2272L321.939 90.134Z" fill="#F39568"/>
<path d="M320.741 81.6709C322.009 81.7533 323.262 81.9953 324.47 82.3912L324.661 83.9802C323.407 83.535 322.082 83.3232 320.752 83.3552C320.627 83.367 320.5 83.3525 320.381 83.3126C320.262 83.2727 320.152 83.2082 320.06 83.1234C319.967 83.0386 319.893 82.9353 319.842 82.8201C319.792 82.7049 319.766 82.5805 319.767 82.4548C319.777 82.3385 319.811 82.2255 319.866 82.1226C319.921 82.0197 319.996 81.9289 320.087 81.8557C320.178 81.7826 320.283 81.7285 320.395 81.6967C320.508 81.6649 320.625 81.6562 320.741 81.6709Z" fill="#2C2A40"/>
<path d="M324.375 97.7299L338.983 96.3951C338.983 96.3951 337.32 104.255 329.576 104.054C323.443 103.81 324.375 97.7299 324.375 97.7299Z" fill="white"/>
<path d="M334.291 112.02C334.291 112.02 343.316 110.897 348.168 98.3338C348.168 98.3338 350.413 102.963 347.776 109.626C345.138 116.289 333.57 118.016 333.57 118.016L334.291 112.02Z" fill="#F39568"/>
<path d="M351.694 87.5288C351.694 87.5288 354.438 82.3064 358.442 84.6581C362.446 87.0098 360.211 98.9377 354.406 96.7025C348.601 94.4674 351.694 87.5288 351.694 87.5288Z" fill="#F9B587"/>
<path d="M332.627 85.0495C332.627 85.0495 333.485 82.4542 335.805 82.4436C336.704 82.3828 337.596 82.6326 338.333 83.1514C339.07 83.6702 339.606 84.4263 339.852 85.2932C339.852 85.2932 336.546 80.7593 332.627 85.0495Z" fill="#2C2A40"/>
<path d="M324.99 86.8608C324.99 86.8608 322.648 84.0748 321.261 87.454C321.462 87.1643 321.72 86.9183 322.018 86.7308C322.317 86.5432 322.65 86.4179 322.999 86.3625C323.347 86.3071 323.703 86.3227 324.045 86.4083C324.387 86.4939 324.708 86.6478 324.99 86.8608Z" fill="#2C2A40"/>
<path d="M321.409 75.7803C323.912 76.3163 326.525 75.8484 328.687 74.4773C332.024 72.1786 331.218 70.1341 331.218 70.1341C331.218 70.1341 332.574 73.5239 337.087 73.1743C341.6 72.8248 342.225 71.5748 342.225 71.5748C342.225 71.5748 342.034 76.6171 345.721 77.3904C346.821 77.6041 347.958 77.5138 349.011 77.1293C350.064 76.7448 350.992 76.0806 351.695 75.2082C351.695 75.2082 335.297 60.7697 329.661 64.615C324.026 68.4604 319.121 70.4731 321.409 75.7803Z" fill="#2C2A40"/>
<path d="M349.703 75.8654C349.703 75.8654 347.468 80.198 351.249 82.698C351.144 85.0127 350.691 87.2983 349.904 89.4776H352.785C352.785 89.4776 354.904 85.7806 354.692 82.6132C354.48 79.4459 354.47 74.5942 349.703 75.8654Z" fill="#2C2A40"/>
<path d="M425.922 69.5407C425.579 70.4411 425.027 71.2471 424.312 71.8924C424.312 71.8924 425.922 71.8182 426.43 70.8966L425.922 69.5407Z" fill="#F39568"/>
<path opacity="0.2" d="M373.125 233.048C363.019 229.467 339.566 223.429 327.574 221.671C309.777 219.065 300.191 230.739 300.191 230.739C300.191 230.739 303.676 211.395 306.631 207.561C309.587 203.726 311.345 191.184 312.563 185.961C312.733 185.106 312.829 184.237 312.849 183.366C313.019 178.684 311.991 171.332 311.398 167.529C311.165 166.003 310.985 165.05 310.985 165.05C309.195 168.016 297.5 174.107 291.515 177.095C289.396 178.154 287.998 178.821 287.998 178.821L283.03 171.289L282.352 168.016C282.352 168.016 295.36 160.961 313.252 151.289C313.252 151.289 321.356 161.48 321.229 173.239C321.006 194.16 318.051 208.44 330.953 213.313C343.549 218.037 371.398 232.169 373.125 233.048Z" fill="#2C2A40"/>
<path opacity="0.2" d="M403.326 118.366C403.273 123.408 403.008 127.073 403.008 127.073C401.991 127.452 400.997 127.891 400.032 128.387C393.146 131.872 384.576 139.16 382.5 146.586C381.663 149.542 381.282 155.643 381.133 162.539C381.006 168.111 381.049 174.192 381.133 179.584C381.133 179.87 381.133 180.156 381.133 180.442C381.133 180.442 376.525 149.022 379.142 139.796C381.758 130.569 402.86 118.641 403.326 118.366Z" fill="#2C2A40"/>
<path d="M316.737 125.855C312.924 148.503 313.623 175.336 313.623 175.336C314.426 179.737 313.883 184.277 312.066 188.365C297.532 172.656 307.532 125.865 312.924 116.406C319.566 104.753 329.28 118.365 329.28 118.365L324.311 119.933C324.311 119.933 322.585 117.507 320.455 118.016C318.326 118.524 316.737 125.855 316.737 125.855Z" fill="#2C2A40"/>
<path d="M357.818 110.928C357.818 110.928 359.301 99.4771 367.659 99.1805C380.9 98.7144 384.237 133.524 385.286 152.337C386.335 171.151 381.133 174.943 381.133 174.943L380.974 164.191C380.974 164.191 374.121 117.899 370.731 109.753C367.013 100.822 363.824 105.229 360.477 109.753L357.489 111.13" fill="#2C2A40"/>
<path d="M68.4006 99.0434C47.0023 93.4926 30.265 73.3019 25.8264 68.4396C25.3066 67.7938 24.8755 67.0812 24.5447 66.321C20.2968 57.5286 13.443 28.5986 11.9176 22.0308C11.8116 21.5859 11.7375 21.2363 11.6845 20.9715C11.6315 20.7066 11.6104 20.6537 11.6104 20.6537L23.782 15.3571C23.782 15.3571 24.7777 27.0096 30.6358 36.4481C36.4938 45.8867 41.9069 60.8125 41.9069 60.8125C53.3794 66.4587 65.6781 76.9354 65.6781 76.9354C72.034 90.357 68.4006 99.0434 68.4006 99.0434Z" fill="#F9B587"/>
<path d="M68.3998 99.0428C47.0016 93.4919 30.2643 73.3013 25.8257 68.439C25.3058 67.7931 24.8748 67.0806 24.5439 66.3203C24.7982 66.5216 40.6244 80.0915 46.5778 83.5449C52.5312 86.9983 59.3638 90.0915 62.7007 87.7822C66.0376 85.4729 66.938 80.9813 65.635 76.9453C72.0333 90.3563 68.3998 99.0428 68.3998 99.0428Z" fill="#F39568"/>
<path d="M12.3516 21.3103C16.2732 20.7626 20.14 19.8765 23.9088 18.662C24.2584 18.4925 24.4067 17.984 24.449 17.3908C25.6818 16.121 26.663 14.6293 27.341 12.9946C27.6164 12.0094 26.5995 11.1726 25.3813 10.4628C26.4406 8.40773 26.5889 2.89926 24.0677 0.865362C21.3241 -1.34862 18.6863 1.38443 18.6863 1.38443C18.3248 1.03541 17.8872 0.775212 17.4079 0.624379C16.9285 0.473546 16.4207 0.436208 15.9245 0.515316C15.4283 0.594423 14.9573 0.787808 14.5486 1.0802C14.14 1.37259 13.8049 1.75599 13.5698 2.20011C12.0868 1.21494 9.42787 3.17468 9.42787 3.17468C8.07194 2.46494 6.52533 3.89502 6.17576 5.22977C5.82618 6.56451 7.64821 17.7086 8.63338 19.0009C9.71213 20.0035 10.9748 20.7877 12.3516 21.3103Z" fill="#F9B587"/>
<path d="M20.2119 13.588C21.4195 15.3041 22.7119 14.1706 22.7119 14.1706C22.2882 14.266 21.6526 13.6833 21.1335 13.1113C20.8585 12.8526 20.6165 12.5608 20.4132 12.2427C20.1792 11.9135 20.0184 11.538 19.9417 11.1415C19.8649 10.745 19.874 10.3366 19.9683 9.94393C20.4238 8.34435 21.1865 8.1113 21.1865 8.1113L20.0212 3.17487C19.8881 4.78433 19.9236 6.40329 20.1271 8.00537C19.494 8.67147 19.1136 9.5379 19.0517 10.4548C18.9898 11.3717 19.2503 12.2814 19.7882 13.0266C19.5943 13.2551 19.3316 13.4147 19.0395 13.4815C18.7473 13.5484 18.4414 13.5188 18.1674 13.3973C17.2678 12.9111 16.5975 12.0884 16.303 11.1092L14.7246 4.23419C14.7246 4.23419 15.1272 12.0838 16.6526 13.5244C16.8634 13.792 17.1311 14.0094 17.4363 14.1609C17.7415 14.3124 18.0765 14.3941 18.4172 14.4002C18.7578 14.4063 19.0955 14.3365 19.4059 14.1961C19.7163 14.0556 19.9916 13.8479 20.2119 13.588Z" fill="#F39568"/>
<path d="M10.667 6.35281C10.667 6.35281 11.7263 12.1155 12.3089 13.2914C12.4453 13.5582 12.6347 13.7944 12.8655 13.9855C13.0962 14.1766 13.3636 14.3186 13.6511 14.4029C13.9387 14.4872 14.2404 14.5119 14.5378 14.4756C14.8352 14.4393 15.1221 14.3428 15.381 14.1918C15.6134 14.0513 15.8081 13.8564 15.9484 13.6239C16.0886 13.3913 16.1702 13.1281 16.1861 12.857L17.2454 13.7787C17.2454 13.7787 15.2539 17.0626 12.5208 14.7215C11.1755 13.5668 10.667 6.35281 10.667 6.35281Z" fill="#F39568"/>
<path d="M12.0552 14.0226C12.0703 14.3834 11.996 14.7425 11.8389 15.0677C11.6818 15.393 11.4468 15.6744 11.1548 15.887C10.159 16.512 9.43867 16.2048 9.03613 15.5586C9.07807 15.8522 9.21815 16.123 9.43357 16.3269C9.649 16.5308 9.92708 16.6557 10.2226 16.6814C11.7162 16.9463 12.712 15.3679 13.0086 14.8276L12.0552 14.0226Z" fill="#F39568"/>
<path d="M14.5447 21.3102C13.7817 21.8533 12.8509 22.1085 11.9176 22.0306C11.8117 21.5857 11.7375 21.2361 11.6846 20.9713C12.6144 21.2331 13.5795 21.3475 14.5447 21.3102Z" fill="#F39568"/>
<path d="M24.1947 18.3974C23.4984 19.0607 22.6824 19.5856 21.79 19.944C22.6889 19.9932 23.5818 19.7718 24.3536 19.3084L24.1947 18.3974Z" fill="#F39568"/>
<path d="M41.9067 60.8127C41.9067 60.8127 37.8283 64.2343 35.5508 64.5945C37.088 64.9978 38.7073 64.9647 40.2267 64.4987C41.7461 64.0328 43.1056 63.1525 44.1525 61.9568L41.9067 60.8127Z" fill="#F39568"/>
<path d="M54.9679 164.34C55.5476 165.039 56.36 165.505 57.256 165.654C57.9658 176.904 59.4594 186.437 61.6946 190.548C68.5696 203.185 113.4 204.022 122.743 193.005C132.086 181.988 129.618 117.465 114.067 109.245C102.415 103.101 79.9679 104.743 69.3217 105.982C67.1414 106.227 65.0858 107.124 63.4243 108.557C61.7628 109.99 60.5728 111.891 60.0103 114.012C58.1988 120.961 57.1607 131.755 56.8323 143.132C56.1695 143.235 55.5264 143.438 54.9255 143.736C52.8493 144.806 53.6755 162.444 54.9679 164.34Z" fill="#2C2A40"/>
<path d="M223.136 101.692C223.136 101.692 219.704 114.404 214.291 128.471C213.475 130.59 212.606 132.709 211.695 134.923C208.009 143.694 203.644 152.348 198.983 158.228C196.473 161.406 193.867 163.726 191.219 164.891C191.219 164.891 183.623 165.95 178.284 162.772C172.945 159.594 152.161 149.266 149.683 144.817C149.683 144.817 157.68 133.482 165.276 132.465C165.276 132.465 168.104 133.916 172.098 136.247C177.266 139.211 182.26 142.468 187.055 146.003L188.475 147.062C188.475 147.062 188.867 146.3 189.534 144.944C191.335 141.565 195.18 134.541 199.841 127.115C200.837 125.526 201.865 123.937 202.924 122.327L203.634 121.268C211.897 109.012 212.966 100.081 212.966 100.081C212.966 100.081 220.869 99.4247 223.136 101.692Z" fill="#F9B587"/>
<path d="M214.29 128.472C213.474 130.59 212.606 132.709 211.695 134.923L199.777 127.169C200.773 125.58 201.801 123.991 202.86 122.381L214.29 128.472Z" fill="#F39568"/>
<path d="M198.94 158.238C196.43 161.416 193.824 163.736 191.176 164.901C191.176 164.901 183.58 165.96 178.241 162.782C172.902 159.604 152.118 149.276 149.64 144.827C149.64 144.827 157.638 133.492 165.233 132.475C165.233 132.475 168.061 133.926 172.055 136.257C171.589 137.846 169.746 143.577 166.44 146.352C162.574 149.594 171.504 157.051 179.237 160.388C186.97 163.725 192.309 163.566 198.94 158.238Z" fill="#F39568"/>
<path d="M188.072 155.717C188.962 152.073 187.013 146.014 187.013 146.014L188.432 147.073C188.432 147.073 188.824 146.31 189.492 144.954C190.254 152.761 188.072 155.717 188.072 155.717Z" fill="#F39568"/>
<path d="M152.543 344.52C145.424 340.431 142.945 336.353 138.676 329.234C136.144 324.997 133.793 321.48 132.32 319.308C131.817 318.571 131.522 317.71 131.468 316.819C131.414 315.927 131.602 315.038 132.013 314.245C132.076 314.118 132.14 313.991 132.214 313.863C133.877 310.685 136.653 306.247 139.047 306.13L141.759 307.603L151.134 312.709C151.134 312.709 155.212 322.105 155.032 326.205C154.884 329.785 161.801 338.079 163.888 342.741C164.051 343.085 164.192 343.438 164.312 343.8C164.378 344.022 164.427 344.248 164.46 344.478C164.958 348.514 159.661 348.609 152.543 344.52Z" fill="#B0B1CA"/>
<path d="M152.543 344.52C145.424 340.431 142.945 336.353 138.676 329.234C136.144 324.997 133.793 321.48 132.32 319.308C131.817 318.57 131.522 317.71 131.468 316.819C131.414 315.927 131.602 315.038 132.013 314.245C132.076 314.117 132.14 313.99 132.214 313.863C132.908 316.847 134.254 319.64 136.155 322.041C139.333 325.77 144.047 334.17 145.17 335.812C146.293 337.454 154.216 344.287 159.216 345.272C163.263 346.098 164.004 345.272 164.312 343.884C164.378 344.106 164.427 344.333 164.46 344.562C164.958 348.514 159.661 348.609 152.543 344.52Z" fill="#2C2A40"/>
<path opacity="0.2" d="M152.543 344.52C145.424 340.431 142.945 336.353 138.676 329.234C136.144 324.997 133.793 321.48 132.32 319.308C131.817 318.571 131.522 317.71 131.468 316.819C131.414 315.927 131.602 315.038 132.013 314.245C132.076 314.118 132.14 313.991 132.214 313.863C133.877 310.685 136.653 306.247 139.047 306.13L141.759 307.603C141.759 307.603 136.462 312.359 138.157 317.592C139.852 322.825 145.498 330.749 148.443 334.213C151.388 337.677 157.627 343.44 163.888 342.741C164.051 343.085 164.192 343.438 164.312 343.8C164.378 344.022 164.427 344.248 164.46 344.478C164.958 348.514 159.661 348.609 152.543 344.52Z" fill="#2C2A40"/>
<path d="M149.968 368.725C149.809 373.439 146.451 377.782 139.046 376.511C130.71 375.091 128.379 368.163 126.419 363.894C124.46 359.625 119.841 344.88 117.945 339.011C117.091 336.011 117.011 332.844 117.712 329.805C117.945 328.58 118.278 327.375 118.707 326.204L121.716 326.659L138.739 329.233C140.776 333.802 142.095 338.658 142.648 343.63C143.263 350.176 147.638 358.661 149.332 364.318C149.603 365.166 149.805 366.034 149.936 366.913C150.005 367.515 150.016 368.121 149.968 368.725Z" fill="#B0B1CA"/>
<path opacity="0.2" d="M149.968 368.725C149.809 373.439 146.451 377.782 139.046 376.511C130.71 375.091 128.379 368.163 126.419 363.894C124.46 359.625 119.841 344.88 117.945 339.011C117.091 336.011 117.011 332.844 117.712 329.805C117.945 328.58 118.278 327.375 118.707 326.204L121.716 326.659C121.43 329.615 122.701 337.983 125.053 342.475C127.987 348.079 130.169 360.388 135.275 365.854C140.381 371.32 149.534 372.337 149.332 364.318C149.603 365.166 149.805 366.034 149.936 366.913C150.005 367.515 150.016 368.121 149.968 368.725Z" fill="#2C2A40"/>
<path d="M149.968 368.725C149.809 373.439 146.451 377.782 139.046 376.511C130.71 375.092 128.379 368.164 126.419 363.895C124.46 359.626 119.841 344.88 117.945 339.011C117.091 336.012 117.011 332.845 117.712 329.806C119.007 335.844 120.778 341.77 123.008 347.528C127.246 358.418 130.678 367.984 133.602 371.183C136.525 374.382 148.305 376.511 149.968 368.725Z" fill="#2C2A40"/>
<path d="M62.7546 97.2103L69.4283 99.329C69.4283 99.329 68.3054 104.043 66.3668 104.043C64.4283 104.043 62.1719 102.994 62.7546 97.2103Z" fill="#00497B"/>
<path d="M200.349 245.961C200 244.687 199.366 243.51 198.495 242.518C195.625 239.213 187.15 230.463 170.148 220.272C148.464 207.306 144.375 208.365 133.538 200.368C133.538 200.368 96.4615 196.204 81.2391 210.961C81.0802 211.109 80.9213 211.268 80.773 211.427C79.3802 212.834 78.1991 214.437 77.2666 216.183C77.2666 216.183 77.2666 235.41 84.8619 242.433C92.4573 249.457 116.292 274.276 118.601 274.043C118.601 274.043 118.781 277.899 121.62 278.079C121.62 278.079 117.711 293.906 119.311 300.654C119.311 300.654 116.822 306.342 118.072 310.431C119.322 314.52 117.711 318.609 117.711 321.098C117.711 323.588 119.83 334.605 126.779 336.914C133.728 339.223 141.356 336.734 141.885 330.696C142.415 324.658 140.995 320.738 141.536 317.359C141.673 316.448 142.309 313.757 143.178 310.209C145.731 311.808 149.767 313.016 151.133 312.74C152.902 312.391 156.631 301.903 158.951 301.194C161.271 300.484 169.428 290.346 175.296 284.658C180.921 279.181 204.502 261.649 200.349 245.961ZM138.686 248.524L166.408 257.073C166.408 257.073 156.875 270.219 151.207 278.514C152.637 273.111 153.845 269.732 152.553 266.501C151.133 262.942 138.686 248.524 138.686 248.524Z" fill="#2C2A40"/>
<path d="M82.0446 212.55L80.9853 212.73C80.89 212.136 80.8158 211.67 80.7734 211.395C80.9217 211.236 81.0806 211.077 81.2395 210.929L81.7586 210.855L82.0446 212.55Z" fill="#5B5B6C"/>
<path d="M82.4578 214.912L81.3984 215.103C81.6103 216.257 81.8222 217.412 82.0552 218.535L83.1145 218.333C82.8815 217.211 82.6273 216.098 82.4578 214.912ZM83.6018 220.685L82.5425 220.908C82.8073 222.094 83.0616 223.238 83.3264 224.319L84.3857 224.064C84.1103 222.994 83.8561 221.861 83.6018 220.685ZM84.9578 226.395L83.8984 226.67C84.2268 227.878 84.5446 229.011 84.873 230.039L85.9323 229.721C85.5934 228.704 85.2756 227.592 84.9578 226.395ZM86.6633 231.988L85.6675 232.348C86.0599 233.469 86.5271 234.563 87.0658 235.622L88.0086 235.113C87.496 234.1 87.0467 233.057 86.6633 231.988ZM89.2798 236.978L88.5171 237.719C89.0361 238.259 89.8624 239.107 90.9853 240.208L91.7374 239.456C90.6251 238.344 89.7989 237.518 89.2798 236.978ZM93.4535 241.151L92.712 241.903L95.212 244.34L95.9535 243.577L93.4535 241.151ZM97.6908 245.251L96.9493 246.024L99.4705 248.439L100.201 247.666L97.6908 245.251ZM101.928 249.329L101.197 250.103C102.034 250.897 102.881 251.691 103.729 252.507L104.46 251.723L101.928 249.329ZM106.165 253.376L105.434 254.16L107.987 256.543L108.708 255.759L106.165 253.376ZM110.477 257.412L109.756 258.185C110.625 259.001 111.483 259.795 112.32 260.558L113.04 259.774L110.477 257.412ZM114.82 261.395L114.11 262.189C115.011 263.016 115.89 263.8 116.706 264.53L117.415 263.725C116.684 263.005 115.816 262.221 114.905 261.395H114.82ZM119.216 265.325L118.517 266.13C119.576 267.052 120.487 267.814 121.208 268.397L121.875 267.56C121.261 266.999 120.36 266.247 119.301 265.325H119.216ZM123.74 268.853L123.316 269.827C124.089 270.177 124.545 270.886 124.831 272.242L125.89 272.02C125.829 271.364 125.609 270.733 125.249 270.181C124.889 269.629 124.4 269.173 123.824 268.853H123.74ZM126.24 274.456L125.18 274.573C125.284 275.761 125.49 276.937 125.795 278.09L126.854 277.793C126.584 276.698 126.407 275.581 126.324 274.456H126.24ZM125.922 280.293C125.821 281.431 125.662 282.562 125.445 283.683L126.504 283.874C126.73 282.718 126.893 281.551 126.992 280.378L125.922 280.293ZM124.99 286.045C124.809 286.925 124.619 287.825 124.428 288.747L124.28 289.456L125.339 289.668L125.498 288.969L126.059 286.257L124.99 286.045ZM123.792 291.819C123.517 293.164 123.316 294.255 123.146 295.261L124.206 295.431C124.375 294.446 124.576 293.365 124.841 292.03L123.792 291.819ZM123.792 297.793L122.733 297.666C122.597 298.685 122.522 299.71 122.511 300.738C122.511 300.908 122.511 301.066 122.511 301.225H123.57V300.78C123.629 299.778 123.753 298.78 123.941 297.793H123.792ZM123.729 303.588H122.67C122.67 304.181 122.67 304.795 122.67 305.42C122.67 306.045 122.67 306.48 122.67 307.03H123.729C123.729 306.458 123.729 305.918 123.729 305.388C123.729 304.859 123.941 304.191 123.867 303.588H123.729ZM122.574 309.467C122.574 310.092 122.5 310.717 122.468 311.331C122.437 311.946 122.394 312.391 122.362 312.941L123.422 313.005L123.517 311.395C123.517 310.78 123.591 310.155 123.634 309.53L122.574 309.467ZM123.348 318.28C123.348 317.73 123.348 317.221 123.348 316.554C123.348 316.172 123.348 315.78 123.348 315.388H122.288C122.288 315.791 122.288 316.183 122.288 316.575C122.288 317.211 122.288 317.793 122.288 318.355C122.288 318.524 122.288 318.704 122.288 318.884H123.348C123.506 318.662 123.496 318.461 123.485 318.28H123.348ZM122.161 321.204C122.055 322.211 121.886 323.323 121.653 324.615L122.712 324.806C122.945 323.524 123.125 322.348 123.231 321.321L122.161 321.204ZM121.187 326.956C120.953 328.016 120.689 329.17 120.392 330.336L121.451 330.6C121.748 329.414 122.013 328.27 122.246 327.189L121.187 326.956Z" fill="#5B5B6C"/>
<path d="M134.534 241.236L137.839 242.295L138.189 241.236L134.873 240.176L134.534 241.236Z" fill="#5B5B6C"/>
<path d="M143.718 243.217L140.424 242.094L140.085 243.154L143.369 244.266L143.718 243.217Z" fill="#5B5B6C"/>
<path d="M150.402 285.727L151.271 286.342L153.273 283.503L152.394 282.888L150.402 285.727Z" fill="#5B5B6C"/>
<path d="M149.012 287.696L147.013 290.539L147.888 291.154L149.887 288.312L149.012 287.696Z" fill="#5B5B6C"/>
<path d="M145.127 293.143C145.127 293.736 145.18 294.329 145.18 294.923L146.451 293.111L145.582 292.497L145.127 293.143Z" fill="#5B5B6C"/>
<path d="M149.28 245.103L145.996 244.043L145.646 245.05L148.941 246.172L149.28 245.103Z" fill="#5B5B6C"/>
<path d="M165.942 250.918L162.669 249.742L162.319 250.802L165.582 251.967L165.942 250.918Z" fill="#5B5B6C"/>
<path d="M154.841 247.02L151.557 245.887L151.218 246.893L154.491 248.026L154.841 247.02Z" fill="#5B5B6C"/>
<path d="M164.64 266.946L165.424 267.667C166.133 266.883 166.96 265.982 167.754 265.082L166.949 264.372C166.165 265.304 165.339 266.205 164.64 266.946Z" fill="#5B5B6C"/>
<path d="M168.517 262.592L169.332 263.28C170.201 262.221 170.911 261.342 171.504 260.526L170.635 259.901C170.063 260.695 169.364 261.585 168.517 262.592Z" fill="#5B5B6C"/>
<path d="M171.472 252.994C170.699 252.676 169.597 252.252 168.21 251.744L167.839 252.75C169.216 253.259 170.307 253.672 171.07 253.99L171.472 252.994Z" fill="#5B5B6C"/>
<path d="M173.613 254.732L172.606 255.081C172.659 255.242 172.684 255.41 172.68 255.579C172.607 256.417 172.338 257.226 171.896 257.941L172.829 258.45C173.369 257.584 173.685 256.597 173.75 255.579C173.755 255.291 173.709 255.004 173.613 254.732Z" fill="#5B5B6C"/>
<path d="M153.781 280.918L154.66 281.532L156.652 278.704L155.783 278.079L153.781 280.918Z" fill="#5B5B6C"/>
<path d="M160.71 271.374L161.526 272.062C162.119 271.353 162.829 270.558 163.814 269.467L163.019 268.757C162.076 269.848 161.314 270.653 160.71 271.374Z" fill="#5B5B6C"/>
<path d="M158.898 273.704L157.203 276.119L158.072 276.734L159.767 274.329L160.074 273.905L159.216 273.27L158.898 273.704Z" fill="#5B5B6C"/>
<path d="M156.779 248.81L160.053 249.954L160.413 248.895L157.129 247.751L156.779 248.81Z" fill="#5B5B6C"/>
<path d="M170.148 135.103C168.898 140.664 163.622 145.696 159.427 149.001C157.693 150.365 155.875 151.617 153.982 152.751L151.493 150.632L143.76 143.98L140.052 151.649C136.334 159.308 137.362 178.906 136.938 184.488C136.557 189.35 144.067 200.759 145.571 204.615C145.768 204.978 145.85 205.392 145.804 205.802C145.179 207.401 126.631 209.806 114.565 205.802C102.499 201.797 78.0821 216.395 77.277 216.151C76.4719 215.908 75.7834 180.208 72.044 164.35C68.3046 148.492 74.5334 106.893 74.5334 106.893L69.5122 105.304L67.2452 104.584C60.6668 104.944 62.7643 97.1683 62.7643 97.1683C62.7643 97.1683 62.9868 104.986 67.0016 102.952C68.7918 102.041 68.7177 96.7234 68.0609 91.1407C67.277 84.3293 65.6774 77.0518 65.6774 76.9458C65.6774 76.8399 66.9592 77.2848 68.8554 77.8251C75.2113 79.6047 89.1838 83.7467 94.4698 86.9034C96.0588 87.8462 99.9041 90.6005 102.87 92.7721C105.063 94.3611 106.779 95.6428 106.779 95.6428C117.245 101.416 120.55 101.035 129.131 103.567L130.264 103.895C140.624 106.978 152.51 110.632 156.885 118.047C160.285 123.778 166.016 130.452 168.707 133.471C169.576 134.531 170.148 135.103 170.148 135.103Z" fill="#E5BC26"/>
<path d="M69.5024 105.304L67.2355 104.584C60.6571 104.944 62.7545 97.1683 62.7545 97.1683C62.7545 97.1683 62.977 104.986 66.9918 102.952C68.7821 102.041 68.7079 96.7234 68.0511 91.1407C67.2778 84.3293 65.6783 77.0518 65.6783 76.9458C65.6783 76.8399 66.96 77.2848 68.8562 77.8251C70.4028 84.2022 73.2418 98.3441 69.5024 105.304Z" fill="#2C2A40"/>
<path d="M170.148 135.103C168.898 140.664 163.622 145.696 159.427 149.001C157.694 150.365 155.875 151.617 153.983 152.751L151.493 150.632C159.968 144.912 165.932 137.719 168.262 133.037C169.163 134.033 170.148 135.103 170.148 135.103Z" fill="#2C2A40"/>
<path d="M128.178 103.323C126.515 107.772 123.94 111.798 110.943 108.62C96.2603 105.071 104.279 93.7892 104.279 93.7892C106.472 95.3782 106.716 95.5795 106.716 95.5795C117.182 101.353 117.457 100.113 125.995 102.645L128.178 103.323Z" fill="#2C2A40"/>
<path opacity="0.2" d="M159.417 149.001C157.683 150.364 155.865 151.617 153.972 152.751L143.75 143.948L140.042 151.617C136.324 159.276 137.352 178.873 136.928 184.456C129.597 167.041 142.415 135.123 142.415 135.123C146.123 142.316 159.205 148.842 159.417 149.001Z" fill="#2C2A40"/>
<path opacity="0.2" d="M145.795 205.802C145.17 207.401 126.621 209.806 114.555 205.802C102.49 201.798 78.0723 216.395 77.2672 216.151C76.4622 215.908 75.7736 180.209 72.0342 164.351C68.2948 148.493 74.5236 106.893 74.5236 106.893L67.2355 104.584C60.6571 104.944 62.7545 97.1685 62.7545 97.1685C62.7545 97.1685 62.977 104.986 66.9918 102.952C68.7821 102.041 68.7079 96.7236 68.0511 91.1409C68.0511 91.1409 80.763 100.283 88.0299 102.412C88.0299 102.412 85.9854 115.474 84.0363 132.497C82.0871 149.52 83.3266 161.204 87.2143 173.111C91.102 185.018 99.852 196.416 111.971 197.677C124.089 198.937 135.89 207.391 145.54 204.573C145.753 204.945 145.842 205.376 145.795 205.802Z" fill="#2C2A40"/>
<path d="M149.142 63.3544C148.835 63.651 148.633 63.8099 148.633 63.8099L108.739 77.7718C108.739 77.7718 102.754 75.0281 103.125 64.615C103.137 62.0407 103.874 59.5219 105.251 57.3468C106.628 55.1717 108.589 53.4283 110.911 52.3163C110.6 52.0034 110.31 51.6708 110.042 51.3205C109.96 51.2153 109.908 51.0891 109.893 50.9561C109.878 50.8231 109.9 50.6886 109.957 50.5676C110.015 50.4466 110.104 50.3439 110.217 50.2711C110.329 50.1983 110.459 50.1582 110.593 50.1553C111.036 50.1421 111.478 50.1633 111.917 50.2188C111.811 49.7441 111.737 49.2628 111.695 48.7781C111.689 48.6511 111.717 48.5248 111.776 48.4121C111.835 48.2994 111.923 48.2043 112.031 48.1365C112.138 48.0687 112.262 48.0306 112.389 48.0261C112.516 48.0216 112.642 48.0508 112.754 48.1108C113.417 48.4929 114.009 48.9875 114.502 49.5726H114.555C118.428 45.6778 123.605 43.3535 129.089 43.0472C132.087 42.8671 135.752 42.6023 139.386 42.1998C146.366 41.4371 151.801 42.6871 153.835 40.5896C153.877 40.526 162.489 54.8481 149.142 63.3544Z" fill="#2C2A40"/>
<path d="M148.369 60.8127C148.369 60.8127 152.447 70.3466 145.689 76.0563C145.689 76.0563 144.683 64.6156 148.369 60.8127Z" fill="#2C2A40"/>
<path d="M124.65 105.06L124.438 105.23C123.271 106.109 121.954 106.769 120.551 107.179C117.087 108.238 109.438 104.891 106.112 103.281C105.682 103.073 105.345 102.713 105.167 102.27C104.989 101.827 104.982 101.334 105.148 100.887C106.995 95.9372 107.925 90.6927 107.892 85.41C108.02 80.0877 109.126 74.8344 111.155 69.9121C110.328 73.7257 111.769 79.2341 113.994 84.7426C116.973 91.8006 120.538 98.5969 124.65 105.06Z" fill="#F9B587"/>
<path d="M143.009 80.8014C143.024 83.7848 142.118 86.7002 140.413 89.1488L135.117 96.6806C134.16 98.0489 132.797 99.0824 131.222 99.6355C129.646 100.189 127.937 100.233 126.335 99.7632C121.651 98.494 117.396 95.9875 114.015 92.5069C107.066 84.901 110.18 72.1785 110.18 72.1785C110.18 72.1785 114.11 59.4561 126.059 57.1997C138.009 54.9434 147.458 63.3861 147.458 63.3861L146.473 72.7188C146.42 73.239 146.335 73.7556 146.218 74.2654C145.847 75.978 145.165 77.608 144.206 79.0747L143.009 80.8014Z" fill="#F9B587"/>
<path d="M136.652 69.1173C136.652 69.1173 132.086 61.702 126.631 66.0135L127.044 67.5601C127.044 67.5601 132.139 64.9436 135.858 70.738L136.652 69.1173Z" fill="#2C2A40"/>
<path d="M143.008 80.8022C143.02 82.3939 142.765 83.9764 142.256 85.4844C141.197 84.245 138.781 82.8361 133.379 82.3065C133.379 82.3065 136.748 80.7175 139.565 81.3637C139.741 81.4043 139.923 81.4029 140.098 81.3597C140.273 81.3165 140.435 81.2326 140.571 81.1149C140.707 80.9973 140.814 80.8491 140.882 80.6825C140.95 80.5159 140.978 80.3355 140.964 80.156L140.593 74.976C141.173 74.4417 141.924 74.1302 142.712 74.0967C143.874 74.0762 145.037 74.1541 146.186 74.3298C145.815 76.0424 145.132 77.6724 144.173 79.1391L143.008 80.8022Z" fill="#F39568"/>
<path d="M146.282 72.7722C145.017 72.5487 143.729 72.4811 142.447 72.5709L141.875 74.0857C143.212 73.9556 144.562 74.0705 145.858 74.4247C145.979 74.4668 146.107 74.4833 146.235 74.473C146.362 74.4628 146.486 74.4262 146.599 74.3654C146.712 74.3046 146.81 74.221 146.889 74.12C146.967 74.0189 147.024 73.9027 147.055 73.7785C147.073 73.6613 147.067 73.5417 147.037 73.4269C147.008 73.3121 146.955 73.2045 146.883 73.1104C146.811 73.0164 146.72 72.938 146.617 72.8799C146.514 72.8217 146.4 72.7851 146.282 72.7722Z" fill="#2C2A40"/>
<path d="M138.771 87.6659L124.799 82.7719C124.799 82.7719 124.534 90.8969 132.214 92.5918C138.231 93.9054 138.771 87.6659 138.771 87.6659Z" fill="white"/>
<path d="M125.593 99.297L124.958 104.784L124.65 105.06L124.439 105.229C122.383 104.286 113.845 99.9326 112.934 93.6614C112.461 90.6544 112.828 87.575 113.994 84.7631C114.319 83.9456 114.754 83.1759 115.286 82.475C117.002 96.0025 125.593 99.297 125.593 99.297Z" fill="#F39568"/>
<path d="M114.406 70.9714C114.406 70.9714 112.976 65.1663 108.474 66.5011C103.972 67.8358 103.262 80.1028 109.534 79.3189C115.805 78.535 114.406 70.9714 114.406 70.9714Z" fill="#F9B587"/>
<path d="M127.902 56.9463C127.902 56.9463 125.265 57.2217 124.947 60.548C124.629 63.8743 124.068 69.5522 119.777 69.4251C115.487 69.298 115.074 74.5204 115.074 74.5204L112.012 73.7789C112.012 73.7789 111.705 64.5204 113.75 61.3637C115.794 58.2069 124.385 53.6624 127.902 56.9463Z" fill="#2C2A40"/>
<path d="M127.415 71.5751C128.01 71.0038 128.759 70.6186 129.57 70.4666C130.38 70.3147 131.218 70.4028 131.979 70.7199C132.741 71.0371 133.393 71.5696 133.856 72.2522C134.319 72.9348 134.573 73.7377 134.587 74.5624C134.587 74.5624 132.945 70.4523 127.415 71.5751Z" fill="#2C2A40"/>
<path d="M141.25 76.7446C141.592 76.5575 141.971 76.4457 142.36 76.4164C142.749 76.3872 143.14 76.4413 143.506 76.5751C144.714 77.0518 144.269 78.6302 144.269 78.6302C144.269 78.6302 143.994 76.5963 141.25 76.7446Z" fill="#2C2A40"/>
<path d="M243.692 105.82L194.708 74.8652L174.211 107.3L223.195 138.255L243.692 105.82Z" fill="#2C2A40"/>
<path d="M243.686 105.812L223.188 138.249L174.205 107.295L176.324 107.147L242.807 102.454L243.4 104.721L243.686 105.812Z" fill="#2C2A40"/>
<path d="M243.401 104.721L223.803 135.823L222.32 134.891L208.898 103.884L242.797 102.454L243.401 104.721Z" fill="white"/>
<path d="M242.811 102.463L195.967 72.8615L175.47 105.297L222.314 134.898L242.811 102.463Z" fill="#2C2A40"/>
<path d="M227.585 89.5305C227.351 89.1218 227.039 88.7634 226.667 88.4761C226.294 88.1888 225.868 87.9783 225.413 87.8567C225.413 87.1258 224.693 86.4372 223.814 86.0559C223.298 85.8482 222.728 85.8184 222.193 85.9711C221.939 85.0813 220.985 84.3822 220.35 84.5728L219.937 84.6682C219.894 84.2775 219.735 83.9086 219.481 83.6089C219.208 83.1267 218.808 82.7291 218.324 82.4599C217.84 82.1908 217.291 82.0605 216.737 82.0834C216.737 82.0834 210.646 83.1427 209.206 87.38C207.765 91.6173 205.911 96.4796 208.062 96.183C208.902 95.9153 209.625 95.3652 210.106 94.6258C209.343 97.1894 209.047 99.1597 210.466 98.969C211.566 98.5371 212.478 97.7304 213.04 96.6915C212.458 98.8737 212.352 100.452 213.612 100.283C214.873 100.113 216.208 98.2381 217.32 96.1194C216.6 98.5877 216.367 100.463 217.733 100.283C219.407 100.05 220.572 96.6491 222.256 94.0538C224.227 91.0135 224.153 92.8038 226.282 91.9351L227.828 92.9097C228.043 92.3641 228.133 91.7772 228.091 91.1924C228.048 90.6076 227.876 90.0396 227.585 89.5305Z" fill="#F9B587"/>
<path d="M104.3 93.8524C104.3 93.8524 105.995 79.774 100.158 78.63C88.8343 76.4054 76.2707 93.2168 69.4275 110.632C59.1627 136.882 71.0271 156.607 71.0271 156.607L71.2389 146.543C71.2389 146.543 70.3067 124.679 80.4339 107.348C90.561 90.0177 97.6266 85.4308 99.0991 86.6384C100.572 87.8461 100.635 91.1829 100.635 91.1829L104.3 93.8524Z" fill="#2C2A40"/>
<path d="M130.223 103.895C130.223 103.895 133.612 95.1345 144.471 99.0434C154.004 102.454 152.945 112.582 151.526 125.908C150.106 139.234 137.151 172.211 137.151 172.211C137.151 172.211 136.6 160.558 138.062 153.662C138.062 153.662 146.949 124.361 143.75 112.762C140.551 101.162 133.475 104.87 133.475 104.87L130.223 103.895Z" fill="#2C2A40"/>
<defs>
<filter id="filter0_bd_2040_16171" x="261.039" y="-502" width="1228.33" height="1228.33" filterUnits="userSpaceOnUse" color-interpolation-filters="sRGB">
<feFlood flood-opacity="0" result="BackgroundImageFix"/>
<feGaussianBlur in="BackgroundImage" stdDeviation="57"/>
<feComposite in2="SourceAlpha" operator="in" result="effect1_backgroundBlur_2040_16171"/>
<feColorMatrix in="SourceAlpha" type="matrix" values="0 0 0 0 0 0 0 0 0 0 0 0 0 0 0 0 0 0 127 0" result="hardAlpha"/>
<feOffset dy="4"/>
<feGaussianBlur stdDeviation="2"/>
<feComposite in2="hardAlpha" operator="out"/>
<feColorMatrix type="matrix" values="0 0 0 0 0 0 0 0 0 0 0 0 0 0 0 0 0 0 0.25 0"/>
<feBlend mode="normal" in2="effect1_backgroundBlur_2040_16171" result="effect2_dropShadow_2040_16171"/>
<feBlend mode="normal" in="SourceGraphic" in2="effect2_dropShadow_2040_16171" result="shape"/>
</filter>
<filter id="filter1_bd_2040_16171" x="177.781" y="-484.57" width="1228.33" height="1228.33" filterUnits="userSpaceOnUse" color-interpolation-filters="sRGB">
<feFlood flood-opacity="0" result="BackgroundImageFix"/>
<feGaussianBlur in="BackgroundImage" stdDeviation="57"/>
<feComposite in2="SourceAlpha" operator="in" result="effect1_backgroundBlur_2040_16171"/>
<feColorMatrix in="SourceAlpha" type="matrix" values="0 0 0 0 0 0 0 0 0 0 0 0 0 0 0 0 0 0 127 0" result="hardAlpha"/>
<feOffset dy="4"/>
<feGaussianBlur stdDeviation="2"/>
<feComposite in2="hardAlpha" operator="out"/>
<feColorMatrix type="matrix" values="0 0 0 0 0 0 0 0 0 0 0 0 0 0 0 0 0 0 0.25 0"/>
<feBlend mode="normal" in2="effect1_backgroundBlur_2040_16171" result="effect2_dropShadow_2040_16171"/>
<feBlend mode="normal" in="SourceGraphic" in2="effect2_dropShadow_2040_16171" result="shape"/>
</filter>
<filter id="filter2_bd_2040_16171" x="94.5234" y="-467.148" width="1228.33" height="1228.33" filterUnits="userSpaceOnUse" color-interpolation-filters="sRGB">
<feFlood flood-opacity="0" result="BackgroundImageFix"/>
<feGaussianBlur in="BackgroundImage" stdDeviation="57"/>
<feComposite in2="SourceAlpha" operator="in" result="effect1_backgroundBlur_2040_16171"/>
<feColorMatrix in="SourceAlpha" type="matrix" values="0 0 0 0 0 0 0 0 0 0 0 0 0 0 0 0 0 0 127 0" result="hardAlpha"/>
<feOffset dy="4"/>
<feGaussianBlur stdDeviation="2"/>
<feComposite in2="hardAlpha" operator="out"/>
<feColorMatrix type="matrix" values="0 0 0 0 0 0 0 0 0 0 0 0 0 0 0 0 0 0 0.25 0"/>
<feBlend mode="normal" in2="effect1_backgroundBlur_2040_16171" result="effect2_dropShadow_2040_16171"/>
<feBlend mode="normal" in="SourceGraphic" in2="effect2_dropShadow_2040_16171" result="shape"/>
</filter>
<filter id="filter3_bd_2040_16171" x="11.2578" y="-449.719" width="1228.33" height="1228.33" filterUnits="userSpaceOnUse" color-interpolation-filters="sRGB">
<feFlood flood-opacity="0" result="BackgroundImageFix"/>
<feGaussianBlur in="BackgroundImage" stdDeviation="57"/>
<feComposite in2="SourceAlpha" operator="in" result="effect1_backgroundBlur_2040_16171"/>
<feColorMatrix in="SourceAlpha" type="matrix" values="0 0 0 0 0 0 0 0 0 0 0 0 0 0 0 0 0 0 127 0" result="hardAlpha"/>
<feOffset dy="4"/>
<feGaussianBlur stdDeviation="2"/>
<feComposite in2="hardAlpha" operator="out"/>
<feColorMatrix type="matrix" values="0 0 0 0 0 0 0 0 0 0 0 0 0 0 0 0 0 0 0.25 0"/>
<feBlend mode="normal" in2="effect1_backgroundBlur_2040_16171" result="effect2_dropShadow_2040_16171"/>
<feBlend mode="normal" in="SourceGraphic" in2="effect2_dropShadow_2040_16171" result="shape"/>
</filter>
<filter id="filter4_bd_2040_16171" x="-72" y="-432.297" width="1228.33" height="1228.33" filterUnits="userSpaceOnUse" color-interpolation-filters="sRGB">
<feFlood flood-opacity="0" result="BackgroundImageFix"/>
<feGaussianBlur in="BackgroundImage" stdDeviation="57"/>
<feComposite in2="SourceAlpha" operator="in" result="effect1_backgroundBlur_2040_16171"/>
<feColorMatrix in="SourceAlpha" type="matrix" values="0 0 0 0 0 0 0 0 0 0 0 0 0 0 0 0 0 0 127 0" result="hardAlpha"/>
<feOffset dy="4"/>
<feGaussianBlur stdDeviation="2"/>
<feComposite in2="hardAlpha" operator="out"/>
<feColorMatrix type="matrix" values="0 0 0 0 0 0 0 0 0 0 0 0 0 0 0 0 0 0 0.25 0"/>
<feBlend mode="normal" in2="effect1_backgroundBlur_2040_16171" result="effect2_dropShadow_2040_16171"/>
<feBlend mode="normal" in="SourceGraphic" in2="effect2_dropShadow_2040_16171" result="shape"/>
</filter>
<clipPath id="clip0_2040_16171">
<rect width="467" height="362" fill="white" transform="translate(42 22)"/>
</clipPath>
</defs>
</svg>
