<svg width="44" height="44" viewBox="0 0 44 44" fill="none" xmlns="http://www.w3.org/2000/svg">
<path d="M41.0894 35.5305L8.23302 2.67415C6.76191 1.20304 4.37805 1.20175 2.90852 2.67128L2.9076 2.6722C1.43807 4.14173 1.43936 6.52559 2.91047 7.9967L35.7669 40.8531C37.238 42.3242 39.6218 42.3255 41.0914 40.856L41.0923 40.855C42.5618 39.3855 42.5605 37.0017 41.0894 35.5305Z" fill="#0A4771"/>
<path d="M35.7634 2.67652L2.91064 35.5292C1.43851 37.0014 1.43723 39.3869 2.90777 40.8574C4.37832 42.328 6.76382 42.3267 8.23595 40.8545L41.0887 8.00183C42.5608 6.5297 42.5621 4.1442 41.0915 2.67365C39.621 1.20311 37.2355 1.20439 35.7634 2.67652Z" fill="#E5BC26"/>
</svg>
