<svg width="371" height="269" viewBox="0 0 371 269" fill="none" xmlns="http://www.w3.org/2000/svg">
<path opacity="0.1" d="M340.245 40.3611C330.711 3.50731 296.124 5.79544 263.307 12.6387C245.648 16.3145 220.934 21.4098 195.139 13.8887C139.652 -2.28718 75.8068 -6.37616 44.345 13.8887C12.8832 34.1535 -6.02573 58.4755 3.03147 92.5115C12.0887 126.547 35.1501 157.13 15.5526 175.382C-4.0448 193.634 -3.70582 262.596 76.8873 267.988C157.481 273.38 149.493 195.954 202.724 199.588C255.955 203.221 365.213 255.541 369.832 217.596C374.451 179.651 315.161 152.554 336.421 89.5242C340.637 76.9924 344.631 57.1831 340.245 40.3611Z" fill="#F7F7F7"/>
</svg>
