<svg width="54" height="44" viewBox="0 0 54 44" fill="none" xmlns="http://www.w3.org/2000/svg">
<path d="M50.233 0.851562H3.76702C1.68655 0.851562 0 2.5363 0 4.61452V4.61582C0 6.69405 1.68655 8.37878 3.76702 8.37878H50.233C52.3134 8.37878 54 6.69405 54 4.61582V4.61452C54 2.5363 52.3134 0.851562 50.233 0.851562Z" fill="#0A4771"/>
<path d="M19.7677 18H49.995C50.9942 18 51.9525 18.3965 52.6591 19.1023C53.3657 19.8081 53.7626 20.7654 53.7626 21.7636C53.7626 22.7618 53.3657 23.7191 52.6591 24.4249C51.9525 25.1307 50.9942 25.5272 49.995 25.5272H19.7677C18.7684 25.5272 17.8101 25.1307 17.1035 24.4249C16.3969 23.7191 16 22.7618 16 21.7636C16 20.7654 16.3969 19.8081 17.1035 19.1023C17.8101 18.3965 18.7684 18 19.7677 18V18Z" fill="#0A4771"/>
<path d="M50.2304 36H3.76962C1.68772 36 0 37.6859 0 39.7656C0 41.8452 1.68772 43.5311 3.76962 43.5311H50.2304C52.3123 43.5311 54 41.8452 54 39.7656C54 37.6859 52.3123 36 50.2304 36Z" fill="#E5BC26"/>
</svg>
