<svg width="447" height="377" viewBox="0 0 447 377" fill="none" xmlns="http://www.w3.org/2000/svg">
<path opacity="0.1" d="M397.245 129.361C387.711 92.5073 353.124 94.7954 320.307 101.639C302.648 105.315 277.934 110.41 252.139 102.889C196.652 86.7128 132.807 82.6238 101.345 102.889C69.8832 123.153 50.9743 147.475 60.0315 181.511C69.0887 215.547 92.1501 246.13 72.5526 264.382C52.9552 282.634 53.2942 351.596 133.887 356.988C214.48 362.38 206.493 284.954 259.724 288.588C312.955 292.221 422.213 344.541 426.832 306.596C431.451 268.651 372.16 241.554 393.421 178.524C397.637 165.992 401.631 146.183 397.245 129.361Z" fill="#F7F7F7"/>
<path opacity="0.1" d="M211.959 69.0438C211.959 69.0438 214.025 55.8235 219.82 56.3319C221.419 56.4696 222.51 58.101 223.231 59.8383C223.326 60.0729 223.491 60.2721 223.705 60.4081C223.918 60.5442 224.169 60.6105 224.421 60.5977C224.674 60.5848 224.917 60.4936 225.115 60.3366C225.314 60.1797 225.459 59.9648 225.529 59.7218C227.055 54.351 230.19 46.1519 235.063 46.1519C240.095 46.1519 240.254 55.5374 239.894 61.2472C239.882 61.4326 239.932 61.6167 240.035 61.7712C240.138 61.9256 240.289 62.0419 240.465 62.1021C240.641 62.1623 240.831 62.1631 241.008 62.1043C241.184 62.0455 241.336 61.9305 241.44 61.7768C242.765 59.8277 244.703 57.9527 247.055 58.493C251.631 59.5523 250.402 69.0862 250.402 69.0862L211.959 69.0438Z" fill="#D6D6D6"/>
<path opacity="0.1" d="M0 193.355C0 193.355 2.05508 180.134 7.84957 180.643C9.45974 180.781 10.5508 182.412 11.2606 184.149C11.3556 184.384 11.5213 184.583 11.7347 184.719C11.9481 184.855 12.1986 184.922 12.4514 184.909C12.7042 184.896 12.9467 184.805 13.1452 184.648C13.3438 184.491 13.4885 184.276 13.5593 184.033C15.0953 178.662 18.2309 170.463 23.0932 170.463C28.125 170.463 28.2839 179.848 27.9237 185.558C27.9121 185.744 27.9616 185.928 28.0649 186.082C28.1681 186.237 28.3192 186.353 28.4949 186.413C28.6707 186.473 28.8613 186.474 29.0376 186.415C29.2138 186.357 29.3659 186.242 29.4703 186.088C30.7945 184.139 32.7224 182.264 35.0847 182.804C39.661 183.863 38.4322 193.344 38.4322 193.344L0 193.355Z" fill="#D6D6D6"/>
<path opacity="0.1" d="M407.839 140.538C407.839 140.538 409.958 127.328 415.699 127.826C417.299 127.974 418.39 129.595 419.11 131.343C419.205 131.577 419.371 131.776 419.584 131.913C419.798 132.049 420.048 132.115 420.301 132.102C420.554 132.089 420.796 131.998 420.995 131.841C421.193 131.684 421.338 131.469 421.409 131.226C422.934 125.855 426.08 117.656 430.943 117.656C435.974 117.656 436.144 127.031 435.773 132.752C435.762 132.937 435.811 133.121 435.914 133.276C436.018 133.43 436.169 133.546 436.344 133.607C436.52 133.667 436.711 133.667 436.887 133.609C437.063 133.55 437.215 133.435 437.32 133.281C438.644 131.321 440.582 129.446 442.934 129.997C447.521 131.057 446.282 140.527 446.282 140.527L407.839 140.538Z" fill="#D6D6D6"/>
<path d="M285.37 174.785C280.93 178.399 275.946 181.287 270.603 183.344C270.603 183.344 265.603 186.469 259.205 190.113C251.663 194.404 245.847 197.243 240.286 198.757C236.203 199.883 232.206 201.299 228.326 202.995L227.267 203.482C224.163 204.88 222.298 205.918 222.298 205.918L218.411 196.745C218.411 196.745 225.487 189.711 229.661 186.257C234.841 182.02 244.237 172.741 255.233 168.757C256.056 168.457 256.898 168.213 257.754 168.027C262.692 164.587 267.805 161.405 273.072 158.493C274.707 157.536 276.474 156.822 278.315 156.374C278.315 156.374 288.633 165.866 285.37 174.785Z" fill="#F9B587"/>
<path d="M261.027 173.238C261.027 173.238 257.341 169.159 255.19 168.746C256.013 168.446 256.856 168.201 257.712 168.015C257.712 168.015 260.699 171.024 261.027 173.238Z" fill="#F39568"/>
<path d="M285.37 174.785C280.93 178.399 275.946 181.288 270.603 183.345C270.603 183.345 265.603 186.47 259.205 190.114C263.654 186.936 270.688 180.209 276.091 175.59C279.777 172.412 277.743 168.419 276.25 164.648C275.625 163.08 274.004 160.347 273.241 158.567C273.241 158.493 273.093 158.482 273.029 158.44C274.665 157.483 276.431 156.769 278.273 156.321C278.273 156.321 288.633 165.866 285.37 174.785Z" fill="#F39568"/>
<path d="M226.854 199.986L228.03 211.024C228.093 211.601 228.02 212.184 227.816 212.727C227.611 213.27 227.282 213.757 226.854 214.149L220.413 220.028C220.231 220.196 220.018 220.326 219.786 220.411C219.553 220.496 219.306 220.534 219.059 220.524C218.812 220.513 218.57 220.453 218.346 220.348C218.122 220.243 217.921 220.095 217.754 219.912C217.468 219.599 217.296 219.199 217.265 218.776C217.234 218.353 217.347 217.932 217.585 217.581L222.373 210.579L221.547 208.46L218.75 212.698L216.504 216.882L215.36 223.397C215.322 223.622 215.239 223.837 215.116 224.028C214.992 224.22 214.83 224.384 214.641 224.511C214.452 224.638 214.238 224.725 214.014 224.767C213.79 224.808 213.559 224.804 213.337 224.753C212.941 224.663 212.591 224.433 212.35 224.107C212.109 223.78 211.993 223.378 212.023 222.973L212.669 215.155L213.602 209.467L211.292 215.325L208.771 224.933C208.688 225.243 208.515 225.521 208.273 225.732C208.032 225.943 207.733 226.078 207.415 226.119C207.18 226.149 206.941 226.127 206.715 226.054C206.489 225.981 206.281 225.86 206.108 225.698C205.934 225.536 205.798 225.339 205.709 225.118C205.62 224.898 205.58 224.661 205.593 224.424L206.102 215.95L207.818 209.891L202.786 218.365L200.053 224.318C199.907 224.637 199.65 224.892 199.331 225.036C199.012 225.18 198.651 225.203 198.316 225.102C198.132 225.048 197.962 224.958 197.814 224.837C197.665 224.716 197.543 224.567 197.452 224.399C197.361 224.231 197.305 224.046 197.286 223.856C197.267 223.666 197.286 223.474 197.341 223.291L199.46 216.289L203.03 209.435L199.555 214.891L198.623 217.009C198.528 217.223 198.352 217.391 198.134 217.476C197.916 217.562 197.673 217.557 197.458 217.465C197.268 217.383 197.114 217.238 197.021 217.054C196.928 216.87 196.902 216.659 196.949 216.458L197.5 214.022L199.915 208.98L218.464 196.67C218.464 196.67 221.568 195.653 226.854 199.986Z" fill="#F9B587"/>
<path d="M228.114 203.079L227.224 203.471C227.224 203.471 226.938 202.009 224.671 200.134C226.105 200.721 227.312 201.754 228.114 203.079Z" fill="#F39568"/>
<path d="M398.792 181.141C398.306 181.914 397.552 182.48 396.673 182.73C397.404 193.98 397.139 203.641 395.455 207.995C390.243 221.406 345.89 227.963 335.222 218.228C324.555 208.492 318.75 144.181 333.104 134.043C343.834 126.469 366.345 125.23 377.076 125.092C379.269 125.059 381.421 125.689 383.25 126.898C385.079 128.108 386.501 129.841 387.33 131.872C390.021 138.535 392.425 149.096 394.163 160.357C394.837 160.367 395.506 160.485 396.144 160.706C398.4 161.48 399.841 179.075 398.792 181.141Z" fill="#2C2A40"/>
<path d="M317.383 313.841C317.815 315.539 318.586 317.132 319.65 318.524C319.65 318.524 314.947 320.42 310.593 322.199C307.266 323.555 301.832 324.318 298.315 325.706C297.53 325.978 296.785 326.356 296.101 326.829C295.953 326.935 295.815 327.051 295.688 327.157C293.749 328.979 283.538 333.248 280.317 334.011C280.076 334.082 279.827 334.125 279.576 334.138C278.942 334.143 278.317 333.986 277.761 333.682C277.205 333.378 276.736 332.937 276.398 332.401C275.667 331.214 275.338 329.307 276.133 326.331C276.927 323.354 279.311 319.975 281.758 317.03C284.706 313.462 288.264 310.445 292.266 308.121C296.016 305.939 300.741 303.089 301.663 302.072C304.608 298.841 307.235 295.102 311.419 293.449C312.661 293.041 313.971 292.879 315.275 292.973C318.595 293.209 321.876 293.831 325.052 294.826C325.052 294.826 315.031 304.265 317.383 313.841Z" fill="#B0B1CA"/>
<path d="M315.317 292.973C313.294 294.435 310.021 296.999 308.75 299.329C306.758 302.857 298.919 306.522 295.519 308.736C292.118 310.95 279.025 321.193 277.743 326.818C276.631 331.691 278.877 333.556 280.318 334.011C280.076 334.081 279.827 334.12 279.576 334.128C277.743 334.128 274.523 332.634 276.176 326.331C276.938 323.439 279.354 319.975 281.801 317.03C284.749 313.462 288.307 310.446 292.309 308.121C296.059 305.939 300.784 303.09 301.705 302.073C304.65 298.842 307.277 295.102 311.462 293.45C312.702 293.036 314.013 292.874 315.317 292.973Z" fill="#2C2A40"/>
<path opacity="0.2" d="M319.65 318.524C319.65 318.524 314.947 320.42 310.593 322.2C307.267 323.556 301.832 324.319 298.315 325.706C297.53 325.979 296.785 326.356 296.101 326.829C295.953 326.935 295.815 327.052 295.688 327.158C293.75 328.98 283.538 333.249 280.317 334.012C280.076 334.083 279.827 334.126 279.576 334.139C278.942 334.144 278.317 333.987 277.761 333.683C277.205 333.379 276.736 332.938 276.398 332.401C276.398 332.401 283.061 330.929 286.525 328.704C288.76 327.274 291.822 324.954 294.745 323.408C293.847 321.704 292.809 320.078 291.642 318.545C293.287 319.772 294.796 321.172 296.144 322.719C297.146 322.243 298.22 321.931 299.322 321.798C302.743 321.48 313.517 317.91 317.33 313.863C317.781 315.558 318.57 317.143 319.65 318.524Z" fill="#2C2A40"/>
<path d="M294.491 283.333C294.407 288.567 295.551 292.867 295.307 294.668C294.968 297.984 289.385 304.605 289.385 304.605C288.972 308.386 285.953 313.736 281.97 316.575H281.917L281.78 316.734C280.707 317.569 279.449 318.134 278.113 318.381C276.776 318.628 275.4 318.55 274.099 318.153C273.803 318.047 273.506 317.931 273.21 317.793C268.072 315.314 266.483 297.613 273.21 290.526C279.693 283.683 282.436 269.615 288.888 268.047C295.339 266.48 298.644 269.266 298.644 269.266C298.474 269.52 298.305 269.774 298.157 270.028C295.757 274.052 294.491 278.649 294.491 283.333Z" fill="#B0B1CA"/>
<path d="M298.654 269.233C298.485 269.488 298.326 269.742 298.167 269.996C297.552 269.774 291.44 267.623 287.68 269.996C283.718 272.517 281.493 282.104 279.406 284.721C277.319 287.337 270.773 296.914 270.603 300.663C270.434 304.413 269.544 313.64 273.125 316.341C276.504 318.884 280.54 317.401 281.79 316.68C279.194 318.46 276.197 319.17 273.22 317.74C268.082 315.272 266.493 297.613 273.22 290.483C279.703 283.64 282.447 269.572 288.898 268.005C295.349 266.437 298.654 269.233 298.654 269.233Z" fill="#2C2A40"/>
<path opacity="0.2" d="M295.339 294.668C295.021 297.73 290.265 303.588 289.513 304.488L289.46 304.562C289.047 308.344 286.028 313.694 282.045 316.533H281.992L281.78 316.734C280.707 317.569 279.45 318.134 278.113 318.381C276.776 318.628 275.4 318.55 274.1 318.153C274.611 317.907 275.152 317.729 275.71 317.624C280.275 316.691 284.184 310.357 285.074 306.893C285.554 305.544 286.272 304.292 287.193 303.196C285.613 302.168 283.82 301.513 281.949 301.278C281.949 301.278 284.068 300.516 287.903 302.253C290.254 299.276 293.199 296.141 293.57 294.7C294.1 292.444 294.544 283.365 294.544 283.365C294.492 288.567 295.551 292.867 295.339 294.668Z" fill="#2C2A40"/>
<path d="M428.273 101.766L415.254 109.107L402.065 116.459C402.065 116.459 396.769 104.435 401.493 96.9882C401.493 96.9882 402.606 96.342 404.226 95.484C405.413 94.859 406.875 94.1281 408.379 93.4607C409.237 93.0793 410.106 92.7192 410.942 92.4014C411.936 89.2592 413.114 86.1783 414.47 83.1747C415.36 81.5031 415.777 79.6207 415.678 77.7298C415.66 77.2148 415.515 76.7123 415.254 76.2679C419.032 74.362 422.622 72.1026 425.974 69.52C425.974 69.52 434.322 88.7043 428.273 101.766Z" fill="#F9B587"/>
<path d="M417.553 97.6345C415.766 97.9674 413.919 97.7388 412.267 96.9801C410.615 96.2214 409.238 94.9698 408.326 93.3972C409.184 93.0159 410.053 92.6557 410.89 92.3379C410.89 92.3591 413.464 96.9353 417.553 97.6345Z" fill="#F39568"/>
<path d="M415.254 109.107L402.065 116.458C402.065 116.458 396.769 104.435 401.493 96.9881C401.493 96.9881 402.606 96.3419 404.226 95.4839C404.226 95.4839 404.364 105.706 405.762 108.196C407.161 110.685 411.811 109.838 415.254 109.107Z" fill="#F39568"/>
<path d="M425.921 69.5413C422.981 72.1939 419.816 74.5863 416.462 76.6917C416.112 76.8612 415.625 76.6917 415.148 76.2998C413.381 76.4241 411.605 76.2157 409.915 75.6854C408.983 75.2616 408.993 73.9481 409.237 72.5074C407.012 71.9672 402.669 68.5667 402.722 65.3252C402.796 61.7977 406.578 61.5328 406.578 61.5328C406.544 61.0314 406.626 60.5289 406.82 60.0649C407.013 59.6009 407.311 59.1882 407.692 58.8594C408.072 58.5307 408.523 58.2948 409.01 58.1705C409.497 58.0461 410.006 58.0367 410.498 58.143C410.699 56.3739 413.898 55.5901 413.898 55.5901C414.226 54.0858 416.313 53.8316 417.553 54.4142C418.792 54.9968 426.176 63.5667 426.504 65.1345C426.602 66.6275 426.404 68.1251 425.921 69.5413Z" fill="#F9B587"/>
<path d="M414.957 70.6008C415.497 72.6347 413.792 72.8889 413.792 72.8889C414.131 72.6241 414.11 71.766 414.014 71.0139C413.988 70.6369 413.921 70.2639 413.813 69.9016C413.714 69.5095 413.531 69.1435 413.277 68.829C413.023 68.5144 412.703 68.2587 412.341 68.0796C410.815 67.4016 410.116 67.8571 410.116 67.8571L407.086 63.747C408.415 64.6718 409.641 65.7373 410.741 66.9249C411.657 66.8676 412.565 67.1329 413.306 67.6747C414.047 68.2165 414.575 69.0006 414.798 69.891C415.107 69.8899 415.407 69.7847 415.649 69.5926C415.891 69.4004 416.062 69.1324 416.133 68.8317C416.236 68.3365 416.239 67.8258 416.143 67.3293C416.046 66.8328 415.852 66.3605 415.572 65.9397L411.334 60.3359C411.334 60.3359 417.076 65.6961 417.214 67.7512C417.295 68.0916 417.299 68.4462 417.224 68.7882C417.148 69.1302 416.996 69.4505 416.779 69.725C416.561 69.9996 416.284 70.2211 415.969 70.3728C415.653 70.5245 415.307 70.6025 414.957 70.6008Z" fill="#F39568"/>
<path d="M415.561 58.6519C415.561 58.6519 419.322 63.1434 419.798 64.3616C419.916 64.6382 419.975 64.9359 419.974 65.2363C419.972 65.5368 419.91 65.8339 419.79 66.1094C419.67 66.3849 419.495 66.6331 419.276 66.8389C419.057 67.0447 418.799 67.2038 418.517 67.3065C418.26 67.3941 417.986 67.4178 417.718 67.3753C417.451 67.3328 417.197 67.2256 416.981 67.0629V68.4824C416.981 68.4824 420.783 69.0756 420.741 65.4633C420.741 63.6624 415.561 58.6519 415.561 58.6519Z" fill="#F39568"/>
<path d="M420.551 64.6154C420.82 64.8637 421.147 65.0419 421.502 65.1342C421.856 65.2266 422.228 65.2303 422.585 65.1451C423.697 64.7849 423.93 64.0858 423.644 63.3442C423.842 63.5654 423.959 63.8471 423.976 64.1433C423.994 64.4395 423.91 64.7329 423.739 64.9756C422.987 66.2362 421.123 66.0349 420.561 65.8548L420.551 64.6154Z" fill="#F39568"/>
<path d="M419.82 75.6855C419.383 76.3933 418.75 76.9591 417.998 77.3144C417.246 77.6698 416.407 77.7994 415.582 77.6877C415.587 77.1951 415.475 76.7084 415.254 76.2682C416.799 76.3534 418.346 76.156 419.82 75.6855Z" fill="#F39568"/>
<path d="M376.345 246.289C376.345 246.289 372.51 237.867 373.167 233.089C373.824 228.312 380.339 235.833 381.186 237.856C382.034 239.88 380.868 245.441 376.345 246.289Z" fill="#6C8C31"/>
<path d="M327.606 295.431C324.096 297.003 320.332 297.929 316.494 298.164C318.794 296.55 321.367 295.366 324.089 294.668C325.279 294.833 326.455 295.088 327.606 295.431Z" fill="#2C2A40"/>
<path d="M402.542 314.361C401.843 299.202 376.896 260.611 373.008 231.342L357.372 225.706C355.254 225.102 356.207 225.452 353.76 224.721C353.76 224.721 316.822 205.653 300.275 230.738C299.182 236.991 300.223 243.431 303.23 249.022C305.349 252.941 306.896 265.049 305.349 267.496C303.085 267.829 300.864 268.411 298.728 269.234C295.953 270.198 291.673 271.945 288.771 273.153C286.962 273.893 285.35 275.044 284.062 276.515C282.775 277.986 281.849 279.736 281.356 281.628C280.783 283.868 280.89 286.228 281.663 288.407C284.449 296.426 291.419 297.295 295.953 296.596C301.785 296.624 307.606 297.091 313.368 297.994C314.418 298.169 315.483 298.229 316.546 298.174C314.238 299.722 312.597 302.082 311.949 304.784C310.381 312.496 317.796 318.015 317.796 318.015C317.796 318.015 318.569 319.583 324.491 319.234C330.413 318.884 330.402 317.306 335.296 319.287C340.19 321.267 374.491 335.441 385.815 335.96C397.139 336.479 403.188 329.52 402.542 314.361ZM338.326 298.164C338.326 298.164 332.817 296.935 327.658 295.431C333.411 292.952 338.686 288.916 340.37 283.873C342.796 276.458 341.896 272.401 342.637 269.159C347.307 281.469 354.727 292.549 364.332 301.554C364.332 301.554 347.277 297.856 338.273 298.164H338.326Z" fill="#2C2A40"/>
<path d="M299.979 272.836L298.369 273.175L298.538 273.959L300.148 273.62L301.748 273.281L301.589 272.497L299.979 272.836Z" fill="#5B5B6C"/>
<path d="M283.644 278.428L284.036 279.127C284.979 278.598 285.943 278.068 286.917 277.57L286.547 276.86C285.572 277.369 284.597 277.898 283.644 278.428Z" fill="#5B5B6C"/>
<path d="M293.284 274.361L293.485 275.134C294.417 274.88 295.455 274.626 296.663 274.361L296.493 273.577C295.275 273.853 294.226 274.107 293.284 274.361Z" fill="#5B5B6C"/>
<path d="M310.381 261.416L311.186 261.363C311.122 260.304 311.017 259.16 310.868 258.069L310.074 258.175C310.201 259.245 310.296 260.336 310.381 261.416Z" fill="#5B5B6C"/>
<path d="M303.792 228.344L302.987 228.291C302.923 229.403 302.87 230.505 302.86 231.586H303.654C303.676 230.537 303.718 229.435 303.792 228.344Z" fill="#5B5B6C"/>
<path d="M309.767 256.352L310.551 256.204C310.35 255.081 310.106 253.99 309.83 252.973L309.057 253.174C309.322 254.128 309.566 255.198 309.767 256.352Z" fill="#5B5B6C"/>
<path d="M288.294 276.014L288.612 276.745C289.605 276.337 290.62 275.983 291.652 275.686L291.419 274.923C290.358 275.229 289.315 275.594 288.294 276.014Z" fill="#5B5B6C"/>
<path d="M309.449 269.817C309.14 270.159 308.761 270.43 308.337 270.611L308.686 271.331C309.231 271.097 309.711 270.733 310.085 270.272C310.427 269.751 310.664 269.168 310.784 268.556L310 268.365C309.907 268.879 309.721 269.371 309.449 269.817Z" fill="#5B5B6C"/>
<path d="M309.258 251.055C308.904 249.998 308.464 248.97 307.945 247.983L307.246 248.354C307.739 249.31 308.16 250.302 308.506 251.32L309.258 251.055Z" fill="#5B5B6C"/>
<path d="M303.665 233.503H302.86C302.86 234.658 302.945 235.77 303.04 236.819L303.834 236.744C303.739 235.728 303.686 234.636 303.665 233.503Z" fill="#5B5B6C"/>
<path d="M311.228 263.301H310.381C310.381 263.418 310.381 263.534 310.381 263.651C310.381 264.71 310.381 265.664 310.254 266.532L311.048 266.617C311.146 265.631 311.192 264.641 311.186 263.651L311.228 263.301Z" fill="#5B5B6C"/>
<path d="M304.714 241.797C304.43 240.752 304.211 239.691 304.057 238.619L303.263 238.736C303.424 239.836 303.65 240.925 303.941 241.998L304.714 241.797Z" fill="#5B5B6C"/>
<path d="M305.318 243.566L304.576 243.863C304.949 244.817 305.452 245.715 306.07 246.533L306.26 246.787L306.907 246.31C306.843 246.215 306.769 246.13 306.705 246.045C306.131 245.286 305.665 244.452 305.318 243.566Z" fill="#5B5B6C"/>
<path d="M303.453 272.094L303.633 272.868C304.968 272.571 305.996 272.306 306.811 272.041L306.568 271.268C305.773 271.533 304.777 271.798 303.453 272.094Z" fill="#5B5B6C"/>
<path d="M344.788 267.518L343.909 266.183L344.587 265.749L345.455 267.084L344.788 267.518Z" fill="#5B5B6C"/>
<path d="M329.597 299.107C330.445 299.308 331.451 299.563 332.68 299.891L332.881 299.118C331.652 298.789 330.635 298.535 329.788 298.323L329.597 299.107Z" fill="#5B5B6C"/>
<path d="M324.756 297.571L324.661 298.365C325.466 298.461 326.186 298.535 326.779 298.567C327.111 298.595 327.44 298.644 327.764 298.715L327.913 297.92C327.563 297.85 327.209 297.8 326.853 297.772C326.271 297.74 325.55 297.666 324.756 297.571Z" fill="#5B5B6C"/>
<path d="M334.47 300.378C335.445 300.643 336.472 300.919 337.542 301.226L337.754 300.452L334.682 299.605L334.47 300.378Z" fill="#5B5B6C"/>
<path d="M339.544 300.934L339.326 301.709L342.396 302.57L342.614 301.795L339.544 300.934Z" fill="#5B5B6C"/>
<path d="M344.184 303.079L347.256 303.937L347.468 303.164L344.407 302.316L344.184 303.079Z" fill="#5B5B6C"/>
<path d="M356.79 283.746L354.958 281.14L354.301 281.596L356.133 284.202L356.79 283.746Z" fill="#5B5B6C"/>
<path d="M372.235 303.726C371.9 302.65 371.324 301.664 370.551 300.844L369.947 301.353C370.629 302.089 371.146 302.963 371.462 303.916L372.235 303.726Z" fill="#5B5B6C"/>
<path d="M359.724 287.836C359.11 286.988 358.485 286.13 357.871 285.262L357.214 285.728L359.078 288.302L359.724 287.836Z" fill="#5B5B6C"/>
<path d="M319.714 297.242L319.661 297.518C320.784 297.737 321.843 297.927 322.839 298.09L322.966 297.306L321.504 297.052C320.889 297.126 320.307 297.189 319.714 297.242Z" fill="#5B5B6C"/>
<path d="M345.805 269.064L347.574 271.723L348.241 271.278L346.472 268.63L345.805 269.064Z" fill="#5B5B6C"/>
<path d="M365.032 307.2C364.678 307.199 364.324 307.178 363.972 307.137L363.888 307.931C364.239 307.971 364.593 307.992 364.947 307.995H365.117C365.858 307.995 366.557 307.921 367.172 307.857L367.087 307.062C366.419 307.084 365.752 307.126 365.032 307.2Z" fill="#5B5B6C"/>
<path d="M368.866 299.085C368.347 298.587 367.743 297.952 367.076 297.2L366.472 297.729C367.161 298.503 367.786 299.159 368.315 299.668L368.707 300.039L369.269 299.467L368.866 299.085Z" fill="#5B5B6C"/>
<path d="M365.868 295.802C365.254 295.06 364.576 294.234 363.877 293.333L363.241 293.821C363.962 294.732 364.629 295.569 365.254 296.31L365.868 295.802Z" fill="#5B5B6C"/>
<path d="M360.169 289.806C360.826 290.696 361.472 291.554 362.087 292.348L362.722 291.871C362.108 291.077 361.472 290.219 360.805 289.329L360.169 289.806Z" fill="#5B5B6C"/>
<path d="M368.803 306.713L368.993 307.497C370.154 307.331 371.21 306.734 371.949 305.823L371.282 305.389C370.645 306.118 369.763 306.589 368.803 306.713Z" fill="#5B5B6C"/>
<path d="M349.057 304.435L352.129 305.262L352.341 304.488L349.258 303.662L349.057 304.435Z" fill="#5B5B6C"/>
<path d="M358.845 306.946C360.042 307.222 361.091 307.444 362.023 307.603L362.161 306.819C361.292 306.66 360.254 306.438 359.068 306.173L358.845 306.946Z" fill="#5B5B6C"/>
<path d="M351.44 277.444L353.241 280.071L353.898 279.616L352.097 276.999L351.44 277.444Z" fill="#5B5B6C"/>
<path d="M351.049 275.42L349.269 272.782L348.612 273.227L350.392 275.865L351.049 275.42Z" fill="#5B5B6C"/>
<path d="M353.93 305.738L357.023 306.522L357.214 305.738C356.281 305.515 355.243 305.25 354.131 304.964L353.93 305.738Z" fill="#5B5B6C"/>
<path d="M327.606 295.431C324.096 297.003 320.332 297.929 316.494 298.164C318.794 296.55 321.367 295.366 324.089 294.668C325.279 294.833 326.455 295.088 327.606 295.431Z" fill="#2C2A40"/>
<path d="M403.326 118.365C403.273 123.408 403.008 127.073 403.008 127.073C401.991 127.452 400.997 127.891 400.032 128.387C393.146 131.872 384.576 139.16 382.5 146.586C381.663 149.541 381.282 155.643 381.133 162.539C381.006 168.111 381.049 174.192 381.133 179.584C381.133 179.87 381.133 180.156 381.133 180.442C381.239 187.253 381.409 192.761 381.409 194.319C381.409 198.673 380.54 211.575 380.349 217.147C380.159 222.719 381.748 228.641 382.468 238.047C383.188 247.454 376.356 246.289 376.356 246.289C382.977 243.503 379.534 235.569 375.296 233.874C374.671 233.62 373.941 233.344 373.125 233.058C363.019 229.478 339.566 223.439 327.574 221.681C309.777 219.075 300.191 230.749 300.191 230.749C300.191 230.749 303.676 211.406 306.631 207.571C309.587 203.736 311.345 191.194 312.563 185.971C312.733 185.116 312.829 184.248 312.849 183.376C313.019 178.694 311.991 171.342 311.398 167.539C311.165 166.014 310.985 165.06 310.985 165.06C309.195 168.026 297.5 174.117 291.515 177.105C289.396 178.164 287.998 178.831 287.998 178.831L283.03 171.3L273.188 156.353C273.188 156.353 273.835 155.759 275.879 154.149C277.33 153.005 279.481 151.353 282.595 149.033C290.085 143.461 298.972 133.355 302.277 131.787C305.583 130.219 306.112 130.399 310.466 126.215C313.527 123.281 324.608 119.732 330.953 117.867C333.665 117.073 335.508 116.596 335.508 116.596C340.385 118.144 345.669 117.765 350.275 115.537C350.275 115.537 352.595 114.012 355.731 112.105C360.826 109.022 368.082 104.933 371.091 104.69C374.915 104.393 391.345 99.7743 398.294 97.7827L401.409 96.8823C403.104 103.111 403.4 111.872 403.326 118.365Z" fill="#A5C723"/>
<path d="M342.415 124.552C340.058 124.71 337.709 124.156 335.671 122.962C333.633 121.768 332 119.99 330.985 117.857C333.697 117.063 335.54 116.586 335.54 116.586C340.417 118.134 345.701 117.755 350.307 115.527C350.307 115.527 352.627 114.002 355.762 112.095C356.673 119.817 350.879 124.118 342.415 124.552Z" fill="#2C2A40"/>
<path d="M291.546 177.094C289.428 178.153 288.029 178.821 288.029 178.821L273.199 156.342C273.199 156.342 273.845 155.749 275.889 154.139L291.546 177.094Z" fill="#2C2A40"/>
<path d="M403.008 127.115C401.991 127.494 400.997 127.933 400.032 128.429C401.335 115.78 399.311 103.005 398.326 97.878L401.441 96.9775C404.407 107.91 403.008 127.115 403.008 127.115Z" fill="#2C2A40"/>
<path d="M381.122 179.584C368.908 174.234 339.152 164.647 312.881 183.365C313.05 178.683 312.023 171.331 311.43 167.528C315.413 165.007 334.533 153.577 352.839 154.139C362.828 154.506 372.562 157.396 381.133 162.539C381.006 168.111 381.048 174.202 381.122 179.584Z" fill="#B8E019"/>
<path d="M322.214 74.6473C322.214 74.6473 317.373 73.588 316.78 79.1812C316.271 83.9905 322.373 85.7914 322.373 85.7914C322.373 85.7914 324.333 77.624 322.214 74.6473Z" fill="#2C2A40"/>
<path d="M324.597 82.8033C324.597 82.8033 319.756 81.744 319.163 87.3266C318.654 92.1359 324.756 93.9368 324.756 93.9368C324.756 93.9368 326.716 85.8012 324.597 82.8033Z" fill="#2C2A40"/>
<path d="M321.409 75.7809C319.238 74.9152 317.493 73.2342 316.547 71.098C315.601 68.9617 315.528 66.5399 316.345 64.3508C318.972 55.8763 328.993 59.2449 328.993 59.2449C329.156 57.5164 329.968 55.9139 331.265 54.7601C332.563 53.6063 334.249 52.9869 335.985 53.0267C337.809 52.8862 339.635 53.2827 341.237 54.1675C342.839 55.0522 344.147 56.3864 345 58.0055C345 58.0055 349.47 53.5564 354.915 54.8911C360.36 56.2259 362.203 62.836 360.508 65.961C360.508 65.961 363.972 65.3466 366.599 69.372C369.226 73.3974 369.904 79.372 366.599 81.5966C367.74 82.9669 368.502 84.6118 368.811 86.3679C369.119 88.1239 368.963 89.9301 368.358 91.6072C367.79 93.2299 366.738 94.6394 365.344 95.6453C363.949 96.6512 362.28 97.2051 360.561 97.2322C360.561 97.2322 361.62 104.753 354.353 106.586C347.087 108.419 347.743 101.925 347.743 101.925C347.743 101.925 334.989 72.4335 321.409 75.7809Z" fill="#2C2A40"/>
<path d="M351.843 109.574L352.902 114.743C353.033 115.388 352.976 116.056 352.74 116.67C352.503 117.283 352.097 117.817 351.568 118.207C342.203 125.008 335.074 120.326 333.559 118.016C334.693 116.957 354.746 97.8893 355.116 87.2961C355.127 87.2431 357.436 100.548 351.843 109.574Z" fill="#F9B587"/>
<path d="M321.938 90.134C321.212 92.9917 321.39 96.0043 322.447 98.7569L325.731 107.231C326.324 108.771 327.385 110.086 328.764 110.991C330.144 111.895 331.773 112.344 333.421 112.274C338.216 112.165 342.892 110.767 346.96 108.227C355.434 102.592 355.434 89.6467 355.434 89.6467C355.434 89.6467 354.735 76.5217 343.835 71.5429C332.934 66.5641 321.854 72.3903 321.854 72.3903L320.604 81.5641C320.53 82.073 320.487 82.5859 320.477 83.1001C320.422 84.8331 320.692 86.5611 321.271 88.1954L321.938 90.134Z" fill="#F9B587"/>
<path d="M330.815 80.4411C330.815 80.4411 336.938 74.456 341.165 79.8479L340.402 81.225C340.402 81.225 336.165 77.5174 331.207 82.1467L330.815 80.4411Z" fill="#2C2A40"/>
<path d="M321.939 90.1339C321.55 91.6587 321.418 93.2374 321.547 94.8056C322.86 93.8734 325.508 93.0894 330.826 93.8098C330.826 93.8098 327.977 91.4899 325.127 91.4475C324.949 91.4429 324.775 91.3969 324.619 91.3133C324.462 91.2296 324.327 91.1106 324.224 90.9657C324.121 90.8207 324.053 90.6538 324.026 90.4782C323.999 90.3026 324.013 90.123 324.068 89.9539L325.667 85.081C325.24 84.4427 324.609 83.9683 323.877 83.7356C322.765 83.4442 321.632 83.2423 320.487 83.1318C320.433 84.8649 320.703 86.5929 321.282 88.2272L321.939 90.1339Z" fill="#F39568"/>
<path d="M320.741 81.671C322.009 81.7534 323.262 81.9954 324.47 82.3913L324.661 83.9803C323.407 83.5351 322.082 83.3233 320.752 83.3553C320.627 83.3671 320.5 83.3526 320.381 83.3127C320.262 83.2728 320.152 83.2083 320.06 83.1235C319.967 83.0387 319.893 82.9354 319.842 82.8202C319.792 82.7051 319.766 82.5806 319.767 82.4549C319.777 82.3386 319.811 82.2256 319.866 82.1227C319.921 82.0198 319.996 81.929 320.087 81.8558C320.178 81.7827 320.283 81.7286 320.395 81.6968C320.508 81.6651 320.625 81.6563 320.741 81.671Z" fill="#2C2A40"/>
<path d="M324.375 97.7298L338.983 96.395C338.983 96.395 337.32 104.255 329.576 104.054C323.443 103.81 324.375 97.7298 324.375 97.7298Z" fill="white"/>
<path d="M334.29 112.02C334.29 112.02 343.316 110.898 348.167 98.334C348.167 98.334 350.413 102.963 347.775 109.626C345.138 116.289 333.57 118.016 333.57 118.016L334.29 112.02Z" fill="#F39568"/>
<path d="M351.695 87.5286C351.695 87.5286 354.438 82.3062 358.443 84.6579C362.447 87.0096 360.212 98.9375 354.407 96.7024C348.602 94.4672 351.695 87.5286 351.695 87.5286Z" fill="#F9B587"/>
<path d="M332.627 85.0495C332.627 85.0495 333.485 82.4541 335.805 82.4435C336.704 82.3827 337.596 82.6326 338.333 83.1513C339.07 83.6701 339.606 84.4262 339.852 85.2931C339.852 85.2931 336.546 80.7592 332.627 85.0495Z" fill="#2C2A40"/>
<path d="M324.989 86.8608C324.989 86.8608 322.648 84.0748 321.26 87.454C321.461 87.1644 321.719 86.9184 322.018 86.7308C322.316 86.5432 322.65 86.418 322.998 86.3626C323.347 86.3072 323.702 86.3227 324.045 86.4084C324.387 86.494 324.708 86.6479 324.989 86.8608Z" fill="#2C2A40"/>
<path d="M321.409 75.7804C323.912 76.3165 326.525 75.8486 328.686 74.4774C332.023 72.1787 331.218 70.1342 331.218 70.1342C331.218 70.1342 332.574 73.524 337.087 73.1745C341.599 72.8249 342.224 71.5749 342.224 71.5749C342.224 71.5749 342.034 76.6172 345.72 77.3905C346.82 77.6042 347.958 77.5139 349.011 77.1294C350.063 76.7449 350.991 76.0808 351.695 75.2083C351.695 75.2083 335.296 60.7698 329.661 64.6151C324.025 68.4605 319.121 70.4732 321.409 75.7804Z" fill="#2C2A40"/>
<path d="M349.703 75.8654C349.703 75.8654 347.468 80.198 351.249 82.698C351.144 85.0127 350.691 87.2983 349.904 89.4777H352.785C352.785 89.4777 354.904 85.7806 354.692 82.6133C354.48 79.4459 354.47 74.5942 349.703 75.8654Z" fill="#2C2A40"/>
<path d="M425.921 69.5405C425.578 70.4409 425.026 71.247 424.311 71.8922C424.311 71.8922 425.921 71.8181 426.43 70.8965L425.921 69.5405Z" fill="#F39568"/>
<path opacity="0.2" d="M373.125 233.048C363.019 229.467 339.566 223.429 327.574 221.671C309.777 219.065 300.191 230.739 300.191 230.739C300.191 230.739 303.676 211.395 306.631 207.561C309.587 203.726 311.345 191.184 312.563 185.961C312.733 185.106 312.829 184.238 312.849 183.366C313.019 178.684 311.991 171.332 311.398 167.529C311.165 166.004 310.985 165.05 310.985 165.05C309.195 168.016 297.5 174.107 291.515 177.095C289.396 178.154 287.998 178.821 287.998 178.821L283.03 171.29L282.352 168.016C282.352 168.016 295.36 160.961 313.252 151.29C313.252 151.29 321.356 161.48 321.229 173.239C321.006 194.16 318.051 208.44 330.953 213.313C343.549 218.037 371.398 232.169 373.125 233.048Z" fill="#2C2A40"/>
<path opacity="0.2" d="M403.326 118.366C403.273 123.408 403.008 127.073 403.008 127.073C401.991 127.452 400.997 127.891 400.032 128.387C393.146 131.872 384.576 139.16 382.5 146.586C381.663 149.542 381.282 155.643 381.133 162.539C381.006 168.111 381.049 174.192 381.133 179.584C381.133 179.87 381.133 180.156 381.133 180.442C381.133 180.442 376.525 149.022 379.142 139.796C381.758 130.569 402.86 118.641 403.326 118.366Z" fill="#2C2A40"/>
<path d="M316.737 125.855C312.924 148.503 313.623 175.335 313.623 175.335C314.426 179.736 313.883 184.277 312.066 188.365C297.532 172.655 307.532 125.865 312.924 116.405C319.566 104.753 329.28 118.365 329.28 118.365L324.311 119.933C324.311 119.933 322.585 117.507 320.455 118.016C318.326 118.524 316.737 125.855 316.737 125.855Z" fill="#2C2A40"/>
<path d="M357.818 110.928C357.818 110.928 359.301 99.477 367.659 99.1804C380.9 98.7143 384.237 133.524 385.286 152.337C386.335 171.151 381.133 174.943 381.133 174.943L380.974 164.191C380.974 164.191 374.121 117.899 370.731 109.752C367.013 100.822 363.824 105.229 360.477 109.752L357.489 111.13" fill="#2C2A40"/>
<path d="M68.4006 99.0433C47.0023 93.4925 30.265 73.3018 25.8264 68.4395C25.3066 67.7937 24.8755 67.0811 24.5447 66.3209C20.2968 57.5285 13.443 28.5984 11.9176 22.0307C11.8116 21.5857 11.7375 21.2362 11.6845 20.9713C11.6315 20.7065 11.6104 20.6535 11.6104 20.6535L23.782 15.3569C23.782 15.3569 24.7777 27.0095 30.6358 36.448C36.4938 45.8866 41.9069 60.8124 41.9069 60.8124C53.3794 66.4586 65.6781 76.9353 65.6781 76.9353C72.034 90.3569 68.4006 99.0433 68.4006 99.0433Z" fill="#F9B587"/>
<path d="M68.4003 99.0427C47.002 93.4919 30.2648 73.3012 25.8262 68.439C25.3063 67.7931 24.8752 67.0806 24.5444 66.3203C24.7987 66.5216 40.6249 80.0915 46.5783 83.5449C52.5317 86.9983 59.3643 90.0915 62.7012 87.7822C66.038 85.4728 66.9385 80.9813 65.6355 76.9453C72.0338 90.3563 68.4003 99.0427 68.4003 99.0427Z" fill="#F39568"/>
<path d="M12.3516 21.3103C16.2732 20.7626 20.14 19.8765 23.9088 18.662C24.2584 18.4925 24.4067 17.984 24.449 17.3908C25.6818 16.121 26.663 14.6293 27.341 12.9946C27.6164 12.0094 26.5995 11.1726 25.3813 10.4628C26.4406 8.40773 26.5889 2.89926 24.0677 0.865362C21.3241 -1.34862 18.6863 1.38443 18.6863 1.38443C18.3248 1.03541 17.8872 0.775212 17.4079 0.624379C16.9285 0.473546 16.4207 0.436208 15.9245 0.515316C15.4283 0.594423 14.9573 0.787808 14.5486 1.0802C14.14 1.37259 13.8049 1.75599 13.5698 2.20011C12.0868 1.21494 9.42787 3.17468 9.42787 3.17468C8.07194 2.46494 6.52533 3.89502 6.17576 5.22977C5.82618 6.56451 7.64821 17.7086 8.63338 19.0009C9.71213 20.0035 10.9748 20.7877 12.3516 21.3103Z" fill="#F9B587"/>
<path d="M20.2119 13.5879C21.4195 15.304 22.7119 14.1706 22.7119 14.1706C22.2882 14.2659 21.6526 13.6833 21.1335 13.1112C20.8585 12.8525 20.6165 12.5608 20.4132 12.2426C20.1792 11.9134 20.0184 11.5379 19.9417 11.1414C19.8649 10.7449 19.874 10.3366 19.9683 9.94387C20.4238 8.34429 21.1865 8.11124 21.1865 8.11124L20.0212 3.1748C19.8881 4.78427 19.9236 6.40323 20.1271 8.00531C19.494 8.67141 19.1136 9.53784 19.0517 10.4547C18.9898 11.3716 19.2503 12.2813 19.7882 13.0265C19.5943 13.255 19.3316 13.4146 19.0395 13.4815C18.7473 13.5483 18.4414 13.5188 18.1674 13.3973C17.2678 12.9111 16.5975 12.0884 16.303 11.1091L14.7246 4.23413C14.7246 4.23413 15.1272 12.0837 16.6526 13.5244C16.8634 13.792 17.1311 14.0094 17.4363 14.1608C17.7415 14.3123 18.0765 14.394 18.4172 14.4001C18.7578 14.4062 19.0955 14.3365 19.4059 14.196C19.7163 14.0556 19.9916 13.8478 20.2119 13.5879Z" fill="#F39568"/>
<path d="M10.6675 6.35303C10.6675 6.35303 11.7268 12.1157 12.3094 13.2916C12.4458 13.5584 12.6352 13.7946 12.866 13.9857C13.0967 14.1768 13.3641 14.3189 13.6516 14.4031C13.9391 14.4874 14.2409 14.5122 14.5383 14.4759C14.8357 14.4396 15.1226 14.343 15.3815 14.192C15.6139 14.0515 15.8086 13.8566 15.9489 13.6241C16.0891 13.3915 16.1707 13.1284 16.1865 12.8573L17.2459 13.7789C17.2459 13.7789 15.2543 17.0628 12.5213 14.7217C11.176 13.567 10.6675 6.35303 10.6675 6.35303Z" fill="#F39568"/>
<path d="M12.0552 14.0225C12.0703 14.3833 11.996 14.7424 11.8389 15.0676C11.6818 15.3929 11.4468 15.6743 11.1548 15.8869C10.159 16.5119 9.43867 16.2047 9.03613 15.5585C9.07807 15.8521 9.21815 16.1229 9.43357 16.3268C9.649 16.5307 9.92708 16.6556 10.2226 16.6814C11.7162 16.9462 12.712 15.3678 13.0086 14.8275L12.0552 14.0225Z" fill="#F39568"/>
<path d="M14.5447 21.3102C13.7817 21.8533 12.8509 22.1085 11.9176 22.0305C11.8117 21.5856 11.7375 21.236 11.6846 20.9712C12.6144 21.233 13.5795 21.3474 14.5447 21.3102Z" fill="#F39568"/>
<path d="M24.1947 18.3975C23.4984 19.0608 22.6824 19.5856 21.79 19.9441C22.6889 19.9933 23.5818 19.7719 24.3536 19.3085L24.1947 18.3975Z" fill="#F39568"/>
<path d="M41.9067 60.8125C41.9067 60.8125 37.8283 64.2341 35.5508 64.5943C37.088 64.9976 38.7073 64.9645 40.2267 64.4985C41.7461 64.0326 43.1056 63.1523 44.1525 61.9566L41.9067 60.8125Z" fill="#F39568"/>
<path d="M54.9679 164.34C55.5476 165.039 56.36 165.505 57.256 165.653C57.9658 176.903 59.4594 186.437 61.6946 190.547C68.5696 203.185 113.4 204.022 122.743 193.005C132.086 181.988 129.618 117.465 114.067 109.245C102.415 103.101 79.9679 104.742 69.3217 105.982C67.1414 106.227 65.0858 107.124 63.4243 108.557C61.7628 109.99 60.5728 111.891 60.0103 114.012C58.1988 120.961 57.1607 131.755 56.8323 143.132C56.1695 143.235 55.5264 143.438 54.9255 143.736C52.8493 144.806 53.6755 162.444 54.9679 164.34Z" fill="#2C2A40"/>
<path d="M223.135 101.692C223.135 101.692 219.703 114.404 214.29 128.471C213.474 130.59 212.606 132.709 211.695 134.923C208.008 143.694 203.644 152.348 198.983 158.228C196.472 161.406 193.866 163.726 191.218 164.891C191.218 164.891 183.623 165.95 178.284 162.772C172.945 159.594 152.161 149.266 149.682 144.817C149.682 144.817 157.68 133.482 165.275 132.465C165.275 132.465 168.104 133.916 172.097 136.247C177.265 139.211 182.259 142.468 187.055 146.003L188.474 147.062C188.474 147.062 188.866 146.3 189.534 144.944C191.335 141.565 195.18 134.541 199.841 127.115C200.837 125.526 201.864 123.937 202.924 122.327L203.633 121.268C211.896 109.012 212.966 100.082 212.966 100.082C212.966 100.082 220.869 99.4248 223.135 101.692Z" fill="#F9B587"/>
<path d="M214.29 128.471C213.474 130.59 212.606 132.709 211.695 134.923L199.777 127.169C200.773 125.58 201.801 123.991 202.86 122.38L214.29 128.471Z" fill="#F39568"/>
<path d="M198.94 158.238C196.43 161.416 193.824 163.736 191.176 164.901C191.176 164.901 183.58 165.96 178.241 162.782C172.902 159.604 152.118 149.276 149.64 144.827C149.64 144.827 157.638 133.492 165.233 132.475C165.233 132.475 168.061 133.926 172.055 136.257C171.589 137.846 169.746 143.577 166.44 146.352C162.574 149.594 171.504 157.051 179.237 160.388C186.97 163.725 192.309 163.566 198.94 158.238Z" fill="#F39568"/>
<path d="M188.072 155.717C188.962 152.073 187.013 146.013 187.013 146.013L188.432 147.073C188.432 147.073 188.824 146.31 189.492 144.954C190.254 152.761 188.072 155.717 188.072 155.717Z" fill="#F39568"/>
<path d="M152.543 344.52C145.424 340.431 142.945 336.353 138.676 329.234C136.144 324.997 133.793 321.48 132.32 319.308C131.817 318.571 131.522 317.71 131.468 316.819C131.414 315.927 131.602 315.038 132.013 314.245C132.076 314.118 132.14 313.991 132.214 313.863C133.877 310.685 136.653 306.247 139.047 306.13L141.759 307.603L151.134 312.709C151.134 312.709 155.212 322.105 155.032 326.205C154.884 329.785 161.801 338.079 163.888 342.741C164.051 343.085 164.192 343.438 164.312 343.8C164.378 344.022 164.427 344.248 164.46 344.478C164.958 348.514 159.661 348.609 152.543 344.52Z" fill="#B0B1CA"/>
<path d="M152.543 344.52C145.424 340.431 142.945 336.353 138.676 329.234C136.144 324.997 133.793 321.48 132.32 319.308C131.817 318.571 131.522 317.71 131.468 316.819C131.414 315.927 131.602 315.038 132.013 314.245C132.076 314.118 132.14 313.99 132.214 313.863C132.908 316.847 134.254 319.64 136.155 322.041C139.333 325.77 144.047 334.17 145.17 335.812C146.293 337.454 154.216 344.287 159.216 345.272C163.263 346.098 164.004 345.272 164.312 343.884C164.378 344.106 164.427 344.333 164.46 344.562C164.958 348.514 159.661 348.609 152.543 344.52Z" fill="#2C2A40"/>
<path opacity="0.2" d="M152.543 344.52C145.424 340.431 142.945 336.353 138.676 329.234C136.144 324.997 133.793 321.48 132.32 319.308C131.817 318.571 131.522 317.71 131.468 316.819C131.414 315.927 131.602 315.038 132.013 314.245C132.076 314.118 132.14 313.991 132.214 313.863C133.877 310.685 136.653 306.247 139.047 306.13L141.759 307.603C141.759 307.603 136.462 312.359 138.157 317.592C139.852 322.825 145.498 330.749 148.443 334.213C151.388 337.677 157.627 343.44 163.888 342.741C164.051 343.085 164.192 343.438 164.312 343.8C164.378 344.022 164.427 344.248 164.46 344.478C164.958 348.514 159.661 348.609 152.543 344.52Z" fill="#2C2A40"/>
<path d="M149.968 368.725C149.809 373.439 146.451 377.782 139.046 376.511C130.71 375.091 128.379 368.163 126.419 363.894C124.46 359.625 119.841 344.879 117.945 339.011C117.091 336.011 117.011 332.844 117.712 329.805C117.945 328.58 118.278 327.375 118.707 326.204L121.716 326.659L138.739 329.233C140.776 333.802 142.095 338.658 142.648 343.629C143.263 350.176 147.638 358.661 149.332 364.318C149.603 365.166 149.805 366.033 149.936 366.913C150.005 367.515 150.016 368.121 149.968 368.725Z" fill="#B0B1CA"/>
<path opacity="0.2" d="M149.968 368.725C149.809 373.439 146.451 377.782 139.046 376.511C130.71 375.091 128.379 368.163 126.419 363.894C124.46 359.625 119.841 344.879 117.945 339.011C117.091 336.011 117.011 332.844 117.712 329.805C117.945 328.58 118.278 327.375 118.707 326.204L121.716 326.659C121.43 329.615 122.701 337.983 125.053 342.475C127.987 348.079 130.169 360.388 135.275 365.854C140.381 371.32 149.534 372.337 149.332 364.318C149.603 365.166 149.805 366.033 149.936 366.913C150.005 367.515 150.016 368.121 149.968 368.725Z" fill="#2C2A40"/>
<path d="M149.968 368.725C149.809 373.439 146.451 377.782 139.046 376.511C130.71 375.092 128.379 368.164 126.419 363.895C124.46 359.626 119.841 344.88 117.945 339.011C117.091 336.012 117.011 332.845 117.712 329.806C119.007 335.844 120.778 341.77 123.008 347.528C127.246 358.418 130.678 367.984 133.602 371.183C136.525 374.382 148.305 376.511 149.968 368.725Z" fill="#2C2A40"/>
<path d="M62.7541 97.2104L69.4278 99.3291C69.4278 99.3291 68.3049 104.043 66.3663 104.043C64.4278 104.043 62.1714 102.994 62.7541 97.2104Z" fill="#00497B"/>
<path d="M200.349 245.961C200 244.687 199.366 243.51 198.495 242.518C195.625 239.213 187.15 230.463 170.148 220.272C148.464 207.306 144.375 208.365 133.538 200.367C133.538 200.367 96.4615 196.204 81.2391 210.961C81.0802 211.109 80.9213 211.268 80.773 211.427C79.3802 212.834 78.1991 214.436 77.2666 216.183C77.2666 216.183 77.2666 235.41 84.8619 242.433C92.4573 249.456 116.292 274.276 118.601 274.043C118.601 274.043 118.781 277.899 121.62 278.079C121.62 278.079 117.711 293.905 119.311 300.653C119.311 300.653 116.822 306.342 118.072 310.431C119.322 314.52 117.711 318.609 117.711 321.098C117.711 323.588 119.83 334.605 126.779 336.914C133.728 339.223 141.356 336.734 141.885 330.696C142.415 324.658 140.995 320.738 141.536 317.359C141.673 316.448 142.309 313.757 143.178 310.208C145.731 311.808 149.767 313.016 151.133 312.74C152.902 312.391 156.631 301.903 158.951 301.194C161.271 300.484 169.428 290.346 175.296 284.658C180.921 279.181 204.502 261.649 200.349 245.961ZM138.686 248.524L166.408 257.073C166.408 257.073 156.875 270.219 151.207 278.514C152.637 273.111 153.845 269.732 152.553 266.501C151.133 262.941 138.686 248.524 138.686 248.524Z" fill="#2C2A40"/>
<path d="M82.0446 212.549L80.9853 212.729C80.89 212.136 80.8158 211.67 80.7734 211.395C80.9217 211.236 81.0806 211.077 81.2395 210.929L81.7586 210.854L82.0446 212.549Z" fill="#5B5B6C"/>
<path d="M82.4578 214.912L81.3984 215.103C81.6103 216.257 81.8222 217.412 82.0552 218.535L83.1145 218.334C82.8815 217.211 82.6273 216.099 82.4578 214.912ZM83.6018 220.685L82.5425 220.908C82.8073 222.094 83.0616 223.238 83.3264 224.319L84.3857 224.065C84.1103 222.995 83.8561 221.861 83.6018 220.685ZM84.9578 226.395L83.8984 226.671C84.2268 227.878 84.5446 229.012 84.873 230.039L85.9323 229.721C85.5934 228.704 85.2756 227.592 84.9578 226.395ZM86.6633 231.988L85.6675 232.349C86.0599 233.47 86.5271 234.563 87.0658 235.622L88.0086 235.113C87.496 234.101 87.0467 233.057 86.6633 231.988ZM89.2798 236.978L88.5171 237.719C89.0361 238.26 89.8624 239.107 90.9853 240.209L91.7374 239.457C90.6251 238.344 89.7989 237.518 89.2798 236.978ZM93.4535 241.151L92.712 241.904L95.212 244.34L95.9535 243.577L93.4535 241.151ZM97.6908 245.251L96.9493 246.024L99.4705 248.44L100.201 247.666L97.6908 245.251ZM101.928 249.329L101.197 250.103C102.034 250.897 102.881 251.692 103.729 252.507L104.46 251.724L101.928 249.329ZM106.165 253.376L105.434 254.16L107.987 256.543L108.708 255.76L106.165 253.376ZM110.477 257.412L109.756 258.185C110.625 259.001 111.483 259.796 112.32 260.558L113.04 259.774L110.477 257.412ZM114.82 261.395L114.11 262.19C115.011 263.016 115.89 263.8 116.706 264.531L117.415 263.726C116.684 263.005 115.816 262.221 114.905 261.395H114.82ZM119.216 265.325L118.517 266.13C119.576 267.052 120.487 267.815 121.208 268.397L121.875 267.56C121.261 266.999 120.36 266.247 119.301 265.325H119.216ZM123.74 268.853L123.316 269.827C124.089 270.177 124.545 270.887 124.831 272.243L125.89 272.02C125.829 271.364 125.609 270.733 125.249 270.181C124.889 269.629 124.4 269.173 123.824 268.853H123.74ZM126.24 274.457L125.18 274.573C125.284 275.761 125.49 276.937 125.795 278.09L126.854 277.793C126.584 276.698 126.407 275.582 126.324 274.457H126.24ZM125.922 280.293C125.821 281.431 125.662 282.562 125.445 283.683L126.504 283.874C126.73 282.718 126.893 281.551 126.992 280.378L125.922 280.293ZM124.99 286.046C124.809 286.925 124.619 287.825 124.428 288.747L124.28 289.457L125.339 289.668L125.498 288.969L126.059 286.257L124.99 286.046ZM123.792 291.819C123.517 293.164 123.316 294.255 123.146 295.262L124.206 295.431C124.375 294.446 124.576 293.365 124.841 292.031L123.792 291.819ZM123.792 297.793L122.733 297.666C122.597 298.685 122.522 299.711 122.511 300.738C122.511 300.908 122.511 301.067 122.511 301.226H123.57V300.781C123.629 299.778 123.753 298.78 123.941 297.793H123.792ZM123.729 303.588H122.67C122.67 304.181 122.67 304.796 122.67 305.421C122.67 306.046 122.67 306.48 122.67 307.031H123.729C123.729 306.459 123.729 305.918 123.729 305.389C123.729 304.859 123.941 304.192 123.867 303.588H123.729ZM122.574 309.467C122.574 310.092 122.5 310.717 122.468 311.332C122.437 311.946 122.394 312.391 122.362 312.942L123.422 313.005L123.517 311.395C123.517 310.781 123.591 310.156 123.634 309.531L122.574 309.467ZM123.348 318.281C123.348 317.73 123.348 317.221 123.348 316.554C123.348 316.173 123.348 315.781 123.348 315.389H122.288C122.288 315.791 122.288 316.183 122.288 316.575C122.288 317.211 122.288 317.793 122.288 318.355C122.288 318.524 122.288 318.704 122.288 318.884H123.348C123.506 318.662 123.496 318.461 123.485 318.281H123.348ZM122.161 321.204C122.055 322.211 121.886 323.323 121.653 324.615L122.712 324.806C122.945 323.524 123.125 322.348 123.231 321.321L122.161 321.204ZM121.187 326.957C120.953 328.016 120.689 329.17 120.392 330.336L121.451 330.601C121.748 329.414 122.013 328.27 122.246 327.19L121.187 326.957Z" fill="#5B5B6C"/>
<path d="M134.534 241.236L137.839 242.295L138.188 241.236L134.873 240.176L134.534 241.236Z" fill="#5B5B6C"/>
<path d="M143.718 243.217L140.423 242.094L140.084 243.154L143.368 244.266L143.718 243.217Z" fill="#5B5B6C"/>
<path d="M150.402 285.728L151.271 286.342L153.273 283.503L152.394 282.889L150.402 285.728Z" fill="#5B5B6C"/>
<path d="M149.012 287.697L147.013 290.539L147.888 291.154L149.887 288.312L149.012 287.697Z" fill="#5B5B6C"/>
<path d="M145.127 293.143C145.127 293.736 145.18 294.329 145.18 294.922L146.451 293.111L145.582 292.497L145.127 293.143Z" fill="#5B5B6C"/>
<path d="M149.279 245.102L145.996 244.043L145.646 245.049L148.94 246.172L149.279 245.102Z" fill="#5B5B6C"/>
<path d="M165.943 250.918L162.669 249.742L162.32 250.802L165.583 251.967L165.943 250.918Z" fill="#5B5B6C"/>
<path d="M154.841 247.02L151.557 245.887L151.218 246.893L154.492 248.027L154.841 247.02Z" fill="#5B5B6C"/>
<path d="M164.64 266.946L165.424 267.667C166.133 266.883 166.96 265.982 167.754 265.082L166.949 264.372C166.165 265.304 165.339 266.205 164.64 266.946Z" fill="#5B5B6C"/>
<path d="M168.517 262.592L169.333 263.28C170.201 262.221 170.911 261.342 171.504 260.526L170.636 259.901C170.064 260.695 169.365 261.585 168.517 262.592Z" fill="#5B5B6C"/>
<path d="M171.472 252.994C170.699 252.676 169.597 252.253 168.21 251.744L167.839 252.751C169.216 253.259 170.307 253.672 171.07 253.99L171.472 252.994Z" fill="#5B5B6C"/>
<path d="M173.612 254.731L172.606 255.081C172.658 255.242 172.684 255.41 172.68 255.579C172.606 256.417 172.338 257.226 171.896 257.941L172.828 258.45C173.368 257.584 173.685 256.597 173.75 255.579C173.755 255.29 173.708 255.003 173.612 254.731Z" fill="#5B5B6C"/>
<path d="M153.782 280.918L154.661 281.532L156.653 278.704L155.784 278.079L153.782 280.918Z" fill="#5B5B6C"/>
<path d="M160.709 271.374L161.525 272.062C162.118 271.353 162.828 270.558 163.813 269.467L163.019 268.757C162.076 269.848 161.313 270.653 160.709 271.374Z" fill="#5B5B6C"/>
<path d="M158.898 273.704L157.203 276.119L158.072 276.734L159.767 274.329L160.074 273.905L159.216 273.27L158.898 273.704Z" fill="#5B5B6C"/>
<path d="M156.779 248.81L160.053 249.954L160.413 248.895L157.129 247.751L156.779 248.81Z" fill="#5B5B6C"/>
<path d="M170.148 135.103C168.898 140.664 163.623 145.696 159.428 149.001C157.694 150.365 155.875 151.617 153.983 152.751L151.494 150.632L143.76 143.98L140.053 151.649C136.335 159.308 137.362 178.906 136.938 184.488C136.557 189.35 144.068 200.759 145.572 204.615C145.769 204.978 145.85 205.392 145.805 205.802C145.18 207.401 126.631 209.806 114.566 205.802C102.5 201.797 78.0826 216.395 77.2775 216.151C76.4724 215.908 75.7838 180.209 72.0444 164.35C68.305 148.492 74.5338 106.893 74.5338 106.893L69.5127 105.304L67.2457 104.584C60.6673 104.944 62.7648 97.1683 62.7648 97.1683C62.7648 97.1683 62.9872 104.986 67.0021 102.952C68.7923 102.041 68.7182 96.7234 68.0614 91.1408C67.2775 84.3294 65.6779 77.0518 65.6779 76.9459C65.6779 76.84 66.9597 77.2849 68.8559 77.8251C75.2118 79.6048 89.1843 83.7467 94.4703 86.9035C96.0593 87.8463 99.9046 90.6005 102.871 92.7721C105.063 94.3611 106.78 95.6429 106.78 95.6429C117.246 101.416 120.551 101.035 129.131 103.567L130.265 103.895C140.625 106.978 152.51 110.632 156.885 118.048C160.286 123.778 166.017 130.452 168.708 133.471C169.576 134.531 170.148 135.103 170.148 135.103Z" fill="#E5BC26"/>
<path d="M69.5019 105.304L67.235 104.584C60.6566 104.944 62.754 97.1683 62.754 97.1683C62.754 97.1683 62.9765 104.986 66.9913 102.952C68.7816 102.041 68.7074 96.7234 68.0506 91.1408C67.2773 84.3294 65.6778 77.0518 65.6778 76.9459C65.6778 76.84 66.9595 77.2849 68.8557 77.8251C70.4023 84.2022 73.2413 98.3442 69.5019 105.304Z" fill="#2C2A40"/>
<path d="M170.148 135.103C168.898 140.664 163.623 145.696 159.428 149.001C157.694 150.365 155.875 151.617 153.983 152.751L151.494 150.632C159.968 144.912 165.932 137.719 168.263 133.037C169.163 134.033 170.148 135.103 170.148 135.103Z" fill="#2C2A40"/>
<path d="M128.178 103.323C126.515 107.772 123.94 111.798 110.943 108.62C96.2603 105.071 104.279 93.7891 104.279 93.7891C106.472 95.378 106.716 95.5793 106.716 95.5793C117.182 101.353 117.457 100.113 125.995 102.645L128.178 103.323Z" fill="#2C2A40"/>
<path opacity="0.2" d="M159.417 149.001C157.683 150.364 155.865 151.617 153.972 152.751L143.75 143.948L140.042 151.617C136.324 159.276 137.352 178.874 136.928 184.456C129.597 167.041 142.415 135.124 142.415 135.124C146.123 142.316 159.205 148.842 159.417 149.001Z" fill="#2C2A40"/>
<path opacity="0.2" d="M145.794 205.802C145.169 207.402 126.621 209.806 114.555 205.802C102.489 201.798 78.0718 216.395 77.2667 216.152C76.4617 215.908 75.7731 180.209 72.0337 164.351C68.2943 148.493 74.5231 106.893 74.5231 106.893L67.235 104.584C60.6566 104.944 62.754 97.1687 62.754 97.1687C62.754 97.1687 62.9765 104.986 66.9913 102.953C68.7816 102.042 68.7074 96.7237 68.0506 91.1411C68.0506 91.1411 80.7625 100.283 88.0294 102.412C88.0294 102.412 85.985 115.474 84.0358 132.497C82.0867 149.52 83.3261 161.205 87.2138 173.111C91.1015 185.018 99.8515 196.416 111.97 197.677C124.089 198.938 135.89 207.391 145.54 204.573C145.753 204.946 145.842 205.376 145.794 205.802Z" fill="#2C2A40"/>
<path d="M149.142 63.3544C148.835 63.651 148.633 63.8099 148.633 63.8099L108.739 77.7717C108.739 77.7717 102.754 75.0281 103.125 64.615C103.137 62.0407 103.874 59.5218 105.251 57.3468C106.628 55.1717 108.589 53.4283 110.911 52.3163C110.6 52.0034 110.31 51.6708 110.042 51.3205C109.96 51.2153 109.908 51.0891 109.893 50.9561C109.878 50.8231 109.9 50.6885 109.957 50.5676C110.015 50.4466 110.104 50.3439 110.217 50.2711C110.329 50.1982 110.459 50.1581 110.593 50.1552C111.036 50.142 111.478 50.1633 111.917 50.2188C111.811 49.7441 111.737 49.2628 111.695 48.7781C111.689 48.6511 111.717 48.5248 111.776 48.4121C111.835 48.2994 111.923 48.2043 112.031 48.1365C112.138 48.0687 112.262 48.0306 112.389 48.0261C112.516 48.0216 112.642 48.0508 112.754 48.1107C113.417 48.4928 114.009 48.9875 114.502 49.5726H114.555C118.428 45.6778 123.605 43.3535 129.089 43.0472C132.087 42.8671 135.752 42.6023 139.386 42.1997C146.366 41.437 151.801 42.687 153.835 40.5896C153.877 40.526 162.489 54.848 149.142 63.3544Z" fill="#2C2A40"/>
<path d="M148.369 60.8125C148.369 60.8125 152.447 70.3464 145.689 76.0561C145.689 76.0561 144.682 64.6155 148.369 60.8125Z" fill="#2C2A40"/>
<path d="M124.65 105.06L124.438 105.23C123.271 106.109 121.954 106.769 120.551 107.179C117.087 108.238 109.438 104.891 106.112 103.281C105.682 103.073 105.345 102.713 105.167 102.27C104.989 101.827 104.982 101.334 105.148 100.887C106.995 95.9372 107.925 90.6927 107.892 85.41C108.02 80.0877 109.126 74.8344 111.155 69.9121C110.328 73.7257 111.769 79.2341 113.994 84.7426C116.973 91.8006 120.538 98.5969 124.65 105.06Z" fill="#F9B587"/>
<path d="M143.008 80.8014C143.023 83.7848 142.117 86.7001 140.413 89.1488L135.116 96.6806C134.159 98.0489 132.797 99.0824 131.221 99.6354C129.646 100.188 127.937 100.233 126.334 99.7632C121.651 98.4939 117.395 95.9875 114.014 92.5069C107.065 84.9009 110.18 72.1785 110.18 72.1785C110.18 72.1785 114.11 59.456 126.059 57.1997C138.008 54.9433 147.457 63.3861 147.457 63.3861L146.472 72.7187C146.419 73.239 146.334 73.7555 146.218 74.2653C145.846 75.9779 145.164 77.608 144.205 79.0747L143.008 80.8014Z" fill="#F9B587"/>
<path d="M136.653 69.1171C136.653 69.1171 132.087 61.7018 126.631 66.0133L127.044 67.5599C127.044 67.5599 132.14 64.9434 135.858 70.7379L136.653 69.1171Z" fill="#2C2A40"/>
<path d="M143.009 80.8025C143.02 82.3942 142.766 83.9766 142.256 85.4847C141.197 84.2453 138.782 82.8364 133.379 82.3067C133.379 82.3067 136.748 80.7177 139.566 81.3639C139.741 81.4045 139.924 81.4032 140.099 81.3599C140.273 81.3167 140.435 81.2329 140.572 81.1152C140.708 80.9975 140.814 80.8493 140.883 80.6827C140.951 80.5161 140.979 80.3357 140.964 80.1563L140.593 74.9762C141.173 74.442 141.924 74.1305 142.712 74.097C143.875 74.0764 145.037 74.1544 146.187 74.33C145.815 76.0426 145.133 77.6726 144.174 79.1393L143.009 80.8025Z" fill="#F39568"/>
<path d="M146.282 72.7719C145.017 72.5485 143.729 72.4809 142.447 72.5707L141.875 74.0855C143.212 73.9554 144.562 74.0702 145.858 74.4245C145.979 74.4666 146.107 74.483 146.235 74.4728C146.362 74.4626 146.486 74.4259 146.599 74.3651C146.712 74.3043 146.81 74.2208 146.889 74.1197C146.967 74.0187 147.024 73.9024 147.055 73.7783C147.073 73.6611 147.067 73.5415 147.037 73.4267C147.008 73.3119 146.955 73.2042 146.883 73.1102C146.811 73.0162 146.72 72.9378 146.617 72.8796C146.514 72.8215 146.4 72.7849 146.282 72.7719Z" fill="#2C2A40"/>
<path d="M138.771 87.666L124.799 82.772C124.799 82.772 124.534 90.897 132.214 92.5919C138.231 93.9054 138.771 87.666 138.771 87.666Z" fill="white"/>
<path d="M125.593 99.2971L124.958 104.784L124.65 105.06L124.439 105.229C122.383 104.287 113.845 99.9327 112.934 93.6615C112.461 90.6545 112.828 87.5751 113.994 84.7632C114.319 83.9457 114.754 83.176 115.286 82.4751C117.002 96.0026 125.593 99.2971 125.593 99.2971Z" fill="#F39568"/>
<path d="M114.406 70.9714C114.406 70.9714 112.976 65.1664 108.474 66.5011C103.972 67.8358 103.262 80.1028 109.534 79.3189C115.805 78.535 114.406 70.9714 114.406 70.9714Z" fill="#F9B587"/>
<path d="M127.902 56.9461C127.902 56.9461 125.265 57.2216 124.947 60.5478C124.629 63.8741 124.068 69.5521 119.777 69.4249C115.487 69.2978 115.074 74.5203 115.074 74.5203L112.012 73.7788C112.012 73.7788 111.705 64.5203 113.75 61.3635C115.794 58.2067 124.385 53.6622 127.902 56.9461Z" fill="#2C2A40"/>
<path d="M127.415 71.575C128.01 71.0037 128.759 70.6184 129.57 70.4665C130.38 70.3146 131.218 70.4026 131.979 70.7198C132.741 71.037 133.393 71.5695 133.856 72.2521C134.319 72.9346 134.573 73.7375 134.587 74.5623C134.587 74.5623 132.945 70.4521 127.415 71.575Z" fill="#2C2A40"/>
<path d="M141.25 76.7446C141.592 76.5575 141.971 76.4456 142.36 76.4164C142.749 76.3872 143.14 76.4413 143.506 76.5751C144.714 77.0518 144.269 78.6302 144.269 78.6302C144.269 78.6302 143.994 76.5963 141.25 76.7446Z" fill="#2C2A40"/>
<path d="M243.692 105.82L194.708 74.8652L174.211 107.3L223.195 138.255L243.692 105.82Z" fill="#2C2A40"/>
<path d="M243.686 105.812L223.189 138.249L174.206 107.295L176.324 107.147L242.807 102.454L243.4 104.721L243.686 105.812Z" fill="#2C2A40"/>
<path d="M243.4 104.721L223.803 135.823L222.32 134.891L208.898 103.884L242.796 102.454L243.4 104.721Z" fill="white"/>
<path d="M242.811 102.463L195.967 72.8613L175.47 105.296L222.314 134.898L242.811 102.463Z" fill="#2C2A40"/>
<path d="M227.585 89.5307C227.351 89.122 227.039 88.7636 226.667 88.4763C226.294 88.189 225.868 87.9785 225.413 87.8569C225.413 87.126 224.693 86.4374 223.814 86.0561C223.298 85.8484 222.728 85.8186 222.193 85.9714C221.939 85.0815 220.985 84.3824 220.35 84.573L219.937 84.6684C219.894 84.2778 219.735 83.9088 219.481 83.6091C219.208 83.1269 218.808 82.7293 218.324 82.4601C217.84 82.191 217.291 82.0607 216.737 82.0836C216.737 82.0836 210.646 83.143 209.206 87.3802C207.765 91.6175 205.911 96.4798 208.062 96.1832C208.902 95.9155 209.625 95.3654 210.106 94.626C209.343 97.1896 209.047 99.1599 210.466 98.9692C211.566 98.5373 212.478 97.7306 213.04 96.6917C212.458 98.8739 212.352 100.452 213.612 100.283C214.873 100.113 216.208 98.2383 217.32 96.1196C216.6 98.5879 216.367 100.463 217.733 100.283C219.407 100.05 220.572 96.6493 222.256 94.054C224.227 91.0137 224.153 92.804 226.282 91.9353L227.828 92.9099C228.043 92.3643 228.133 91.7774 228.091 91.1926C228.048 90.6078 227.876 90.0398 227.585 89.5307Z" fill="#F9B587"/>
<path d="M104.301 93.8524C104.301 93.8524 105.996 79.774 100.159 78.63C88.8348 76.4054 76.2712 93.2168 69.428 110.632C59.1632 136.882 71.0276 156.607 71.0276 156.607L71.2394 146.543C71.2394 146.543 70.3072 124.679 80.4343 107.348C90.5615 90.0177 97.6271 85.4308 99.0996 86.6384C100.572 87.8461 100.636 91.1829 100.636 91.1829L104.301 93.8524Z" fill="#2C2A40"/>
<path d="M130.222 103.895C130.222 103.895 133.612 95.1346 144.47 99.0435C154.004 102.455 152.945 112.582 151.525 125.908C150.106 139.234 137.15 172.211 137.15 172.211C137.15 172.211 136.599 160.558 138.061 153.662C138.061 153.662 146.949 124.361 143.75 112.762C140.551 101.162 133.474 104.87 133.474 104.87L130.222 103.895Z" fill="#2C2A40"/>
</svg>
