<svg width="20" height="20" viewBox="0 0 20 20" fill="none" xmlns="http://www.w3.org/2000/svg">
<path fill-rule="evenodd" clip-rule="evenodd" d="M2.9165 8.59815C2.9165 4.76493 6.11974 1.66669 9.99437 1.66669C13.8799 1.66669 17.0832 4.76493 17.0832 8.59815C17.0832 10.5298 16.3807 12.323 15.2244 13.843C13.9488 15.5196 12.3766 16.9804 10.607 18.127C10.2019 18.392 9.8364 18.412 9.39188 18.127C7.61212 16.9804 6.03991 15.5196 4.77525 13.843C3.61816 12.323 2.9165 10.5298 2.9165 8.59815ZM7.66169 8.81398C7.66169 10.0981 8.70955 11.1081 9.99437 11.1081C11.28 11.1081 12.338 10.0981 12.338 8.81398C12.338 7.53985 11.28 6.48071 9.99437 6.48071C8.70955 6.48071 7.66169 7.53985 7.66169 8.81398Z" fill="#0C5689"/>
</svg>
