<svg width="33" height="36" viewBox="0 0 33 36" fill="none" xmlns="http://www.w3.org/2000/svg">
<path d="M3.42428 35.0123C3.09325 35.0181 2.76222 34.9617 2.45066 34.8449L18.1337 19.1665L23.3251 24.3602L5.30337 34.4791C4.73257 34.8136 4.08582 34.9971 3.42428 35.0123ZM1.15769 33.7182C0.838886 33.1412 0.680227 32.4896 0.698143 31.8307V3.2157C0.695511 2.78134 0.761221 2.34925 0.892867 1.93528L16.9245 17.9601L1.15185 33.7221L1.15769 33.7182ZM24.8731 23.4865L19.341 17.962L25.4417 11.8673L30.8609 14.9088C31.9007 15.3759 32.5978 16.378 32.6679 17.5144C32.6334 18.0727 32.4465 18.6109 32.1276 19.0705C31.8088 19.5302 31.37 19.8938 30.8589 20.122L24.8731 23.4865ZM18.1337 16.7477L1.89375 0.520585C2.33967 0.189776 2.87905 0.0146412 3.43402 0.0126953C4.08829 0.0360465 4.72698 0.22091 5.29363 0.551719L23.8917 10.9975L18.1357 16.7477H18.1337Z" fill="#094F7E"/>
</svg>
