<svg width="16" height="16" viewBox="0 0 16 16" fill="none" xmlns="http://www.w3.org/2000/svg">
<g clip-path="url(#clip0_869_1365)">
<path d="M14.9888 7.70436C14.8712 7.58677 14.6805 7.58677 14.5629 7.70436L14.1736 8.09369V5.40791C14.1736 4.30097 13.273 3.40039 12.166 3.40039H3.53377C2.77469 3.40039 2.06512 3.84479 1.73062 4.52582C1.64775 4.69454 1.58891 4.87492 1.55642 5.06005C1.52649 5.23076 1.47638 5.47262 1.60683 5.61289C1.74219 5.75845 1.987 5.73129 2.0874 5.55986C2.1366 5.47588 2.12564 5.38349 2.13335 5.29047C2.14157 5.19155 2.16033 5.09351 2.18927 4.99856C2.36751 4.41428 2.92293 4.00264 3.53374 4.00264H12.166C12.9409 4.00264 13.5713 4.63305 13.5713 5.40791V8.09369L13.182 7.70436C13.0659 7.58831 12.8722 7.58831 12.7561 7.70436C12.64 7.82042 12.64 8.01419 12.7561 8.13025L13.6595 9.03363C13.7751 9.14929 13.9697 9.14929 14.0854 9.03363L14.9887 8.13025C15.1064 8.01263 15.1064 7.82195 14.9888 7.70436C14.8712 7.58677 15.1064 7.82195 14.9888 7.70436V7.70436Z" fill="#646464"/>
<path d="M13.8725 9.82442C13.7664 9.82442 13.6661 9.88203 13.6125 9.97357C13.5532 10.0747 13.5739 10.2 13.559 10.3122C13.5293 10.5351 13.445 10.7495 13.3153 10.9334C13.0538 11.3043 12.6202 11.5308 12.1661 11.5308H3.53378C2.75892 11.5308 2.12852 10.9004 2.12852 10.1255V7.43977L2.51784 7.8291C2.64067 7.95196 2.84806 7.94319 2.96047 7.81091C3.06065 7.69299 3.05303 7.51255 2.9437 7.40321L2.04032 6.49983C1.92465 6.38417 1.7301 6.38417 1.61443 6.49983L0.711053 7.40321C0.595029 7.51927 0.594999 7.71304 0.711053 7.82907C0.827107 7.94512 1.02088 7.94512 1.13694 7.82907L1.52626 7.43974V10.1255C1.52626 11.2325 2.42681 12.133 3.53378 12.133H12.1661C12.7712 12.133 13.3534 11.852 13.732 11.3804C13.9184 11.1482 14.0523 10.8751 14.1205 10.5853C14.1788 10.3375 14.2699 9.82442 13.8725 9.82442Z" fill="black"/>
</g>
<defs>
<clipPath id="clip0_869_1365">
<rect width="15.4177" height="15.4177" fill="white" transform="translate(0.100586 0.00927734)"/>
</clipPath>
</defs>
</svg>
