<svg width="43" height="43" viewBox="0 0 43 43" fill="none" xmlns="http://www.w3.org/2000/svg">
<circle cx="21.7377" cy="21.6869" r="20.8226" fill="#EDC649"/>
<path d="M16.2388 30.8483L14.9747 28.7009C14.9606 28.6768 14.9531 28.6495 14.9531 28.6217C14.9531 28.5939 14.9605 28.5665 14.9746 28.5424C14.9887 28.5183 15.009 28.4983 15.0334 28.4844C15.0579 28.4705 15.0856 28.4631 15.1138 28.4631H15.8799C15.9085 28.4631 15.9366 28.4706 15.9612 28.4849C15.9859 28.4992 16.0062 28.5197 16.0201 28.5443L16.6371 29.6319C16.6511 29.6564 16.6714 29.6768 16.696 29.691C16.7206 29.7052 16.7486 29.7127 16.7771 29.7127C16.8057 29.7127 16.8337 29.7052 16.8583 29.691C16.8829 29.6768 16.9032 29.6564 16.9172 29.6319L17.5427 28.5427C17.5568 28.5183 17.5771 28.498 17.6017 28.4839C17.6263 28.4698 17.6543 28.4624 17.6828 28.4624H18.4235C18.4518 28.4624 18.4795 28.4698 18.5039 28.4838C18.5284 28.4977 18.5486 28.5178 18.5627 28.5419C18.5768 28.566 18.5842 28.5934 18.5841 28.6212C18.584 28.649 18.5765 28.6763 18.5623 28.7004L17.2945 30.8483C17.2802 30.8725 17.2727 30.9 17.2727 30.9281V32.2464C17.2727 32.2884 17.2557 32.3286 17.2256 32.3583C17.1954 32.388 17.1545 32.4047 17.1119 32.4048H16.4211C16.3785 32.4047 16.3376 32.388 16.3075 32.3583C16.2773 32.3286 16.2604 32.2884 16.2603 32.2464V30.9281C16.2604 30.9001 16.253 30.8725 16.2388 30.8483Z" fill="white"/>
<path d="M19.1426 32.1932V28.6765C19.1426 28.6203 19.1652 28.5664 19.2056 28.5266C19.2459 28.4869 19.3006 28.4646 19.3576 28.4646H19.938C19.9951 28.4646 20.0498 28.4869 20.0901 28.5266C20.1304 28.5664 20.1531 28.6203 20.1531 28.6765V29.4966C20.1525 29.5419 20.1666 29.5863 20.1935 29.6231C20.2203 29.6599 20.2585 29.6872 20.3023 29.7011C20.3461 29.715 20.3932 29.7147 20.4368 29.7002C20.4804 29.6857 20.5182 29.6579 20.5445 29.6207L21.3259 28.5522C21.3458 28.5248 21.3721 28.5025 21.4025 28.4872C21.4329 28.4718 21.4666 28.4638 21.5008 28.4639H22.1536C22.1935 28.4635 22.2328 28.474 22.2669 28.4944C22.3011 28.5147 22.3289 28.544 22.3471 28.579C22.3653 28.614 22.3733 28.6533 22.3702 28.6925C22.367 28.7317 22.3528 28.7693 22.3292 28.801L21.2919 30.2134C21.2657 30.2493 21.2514 30.2923 21.2511 30.3365C21.2508 30.3807 21.2644 30.4239 21.29 30.4601L22.4358 32.0708C22.4587 32.1026 22.4723 32.14 22.475 32.1789C22.4777 32.2178 22.4695 32.2567 22.4512 32.2913C22.4329 32.3259 22.4053 32.3549 22.3714 32.375C22.3375 32.3951 22.2986 32.4056 22.259 32.4053H21.5371C21.5016 32.4054 21.4667 32.3969 21.4354 32.3805C21.4041 32.364 21.3774 32.3402 21.3577 32.3112L20.5495 31.1202C20.5241 31.0819 20.4867 31.0528 20.4431 31.0372C20.3994 31.0215 20.3518 31.0202 20.3073 31.0335C20.2629 31.0467 20.2239 31.0738 20.1964 31.1107C20.1689 31.1475 20.1542 31.1922 20.1545 31.2379V32.1932C20.1545 32.2494 20.1319 32.3033 20.0915 32.343C20.0512 32.3828 19.9965 32.4051 19.9395 32.4051H19.3584C19.33 32.4052 19.302 32.3998 19.2758 32.3892C19.2497 32.3786 19.2259 32.363 19.2058 32.3433C19.1858 32.3236 19.1699 32.3002 19.159 32.2745C19.1482 32.2487 19.1426 32.2211 19.1426 32.1932Z" fill="white"/>
<path d="M23.8173 32.4049H23.2858C23.2225 32.4049 23.1617 32.3801 23.1169 32.3359C23.072 32.2918 23.0469 32.2319 23.0469 32.1694V28.6993C23.0469 28.6368 23.072 28.577 23.1169 28.5328C23.1617 28.4887 23.2225 28.4639 23.2858 28.4639H23.8173C23.8806 28.4639 23.9414 28.4887 23.9862 28.5328C24.031 28.577 24.0562 28.6368 24.0562 28.6993V32.1685C24.0563 32.1995 24.0502 32.2302 24.0383 32.2589C24.0263 32.2875 24.0088 32.3136 23.9866 32.3356C23.9644 32.3575 23.938 32.375 23.9089 32.3868C23.8799 32.3987 23.8487 32.4049 23.8173 32.4049Z" fill="white"/>
<path d="M24.8818 28.7212C24.8818 28.6529 24.9094 28.5875 24.9583 28.5392C25.0073 28.491 25.0737 28.4639 25.143 28.4639H26.4455C26.89 28.4639 27.2527 28.5745 27.5287 28.7911C27.8047 29.0077 27.9426 29.3248 27.9426 29.7426C27.9426 30.1706 27.7944 30.4978 27.5031 30.7193C27.2118 30.9357 26.8388 31.0465 26.3841 31.0465H26.1497C26.0804 31.0465 26.014 31.0736 25.965 31.1219C25.9161 31.1702 25.8885 31.2356 25.8885 31.3038V32.1485C25.8885 32.2167 25.8609 32.2821 25.812 32.3304C25.763 32.3786 25.6966 32.4057 25.6274 32.4058H25.143C25.0737 32.4058 25.0073 32.3787 24.9583 32.3304C24.9094 32.2822 24.8818 32.2167 24.8818 32.1485V28.7212ZM25.8885 29.9434C25.8885 30.0117 25.9161 30.0771 25.965 30.1254C26.014 30.1736 26.0804 30.2007 26.1497 30.2007H26.3688C26.7418 30.2007 26.9308 30.0595 26.9308 29.7829C26.9308 29.4858 26.7418 29.3356 26.3636 29.3356H26.1497C26.0804 29.3356 26.014 29.3627 25.965 29.4109C25.9161 29.4592 25.8885 29.5246 25.8885 29.5929V29.9434Z" fill="white"/>
<path d="M28.4805 28.7212C28.4805 28.6529 28.508 28.5875 28.557 28.5392C28.6059 28.491 28.6724 28.4639 28.7416 28.4639H30.0442C30.4889 28.4639 30.8516 28.5745 31.1276 28.7911C31.4036 29.0077 31.5414 29.3248 31.5414 29.7426C31.5414 30.1706 31.3933 30.4978 31.102 30.7193C30.8107 30.9357 30.4377 31.0465 29.983 31.0465H29.7483C29.6791 31.0465 29.6126 31.0736 29.5637 31.1219C29.5147 31.1702 29.4872 31.2356 29.4872 31.3038V32.1485C29.4872 32.2167 29.4597 32.2822 29.4107 32.3304C29.3617 32.3787 29.2953 32.4058 29.226 32.4058H28.7416C28.6724 32.4057 28.606 32.3786 28.557 32.3304C28.5081 32.2821 28.4805 32.2167 28.4805 32.1485V28.7212ZM29.4872 29.9434C29.4872 30.0117 29.5147 30.0771 29.5637 30.1254C29.6126 30.1736 29.6791 30.2007 29.7483 30.2007H29.9675C30.3407 30.2007 30.5297 30.0595 30.5297 29.7829C30.5297 29.4858 30.3407 29.3356 29.9624 29.3356H29.7474C29.6781 29.3356 29.6117 29.3627 29.5627 29.4109C29.5137 29.4592 29.4862 29.5246 29.4862 29.5929L29.4872 29.9434Z" fill="white"/>
<path d="M24.1328 22.5747C24.25 22.5747 24.3625 22.5289 24.4455 22.4473C24.5284 22.3657 24.5751 22.255 24.5753 22.1395V17.343H25.4606C25.8108 17.343 26.1532 17.2407 26.4444 17.049C26.7355 16.8574 26.9625 16.585 27.0965 16.2664C27.2305 15.9477 27.2656 15.597 27.1973 15.2587C27.1289 14.9204 26.9603 14.6097 26.7127 14.3658C26.465 14.1219 26.1495 13.9558 25.8061 13.8885C25.4626 13.8212 25.1066 13.8557 24.7831 13.9877C24.4595 14.1197 24.183 14.3433 23.9884 14.6301C23.7939 14.9169 23.69 15.254 23.69 15.599V16.471H22.8059V15.599C22.8059 15.254 22.7021 14.9169 22.5075 14.6301C22.3129 14.3433 22.0364 14.1197 21.7129 13.9877C21.3893 13.8557 21.0333 13.8212 20.6898 13.8885C20.3464 13.9558 20.0309 14.1219 19.7833 14.3658C19.5356 14.6097 19.367 14.9204 19.2987 15.2587C19.2304 15.597 19.2654 15.9477 19.3994 16.2664C19.5334 16.585 19.7604 16.8574 20.0516 17.049C20.3427 17.2407 20.6851 17.343 21.0353 17.343H21.9206V22.1395C21.9233 22.2534 21.9711 22.3617 22.0538 22.4413C22.1365 22.5209 22.2476 22.5655 22.3632 22.5655C22.4789 22.5655 22.59 22.5209 22.6727 22.4413C22.7554 22.3617 22.8032 22.2534 22.8059 22.1395V17.343H23.69V22.1395C23.6903 22.255 23.737 22.3657 23.82 22.4473C23.9031 22.5289 24.0155 22.5747 24.1328 22.5747ZM24.5753 15.599C24.5753 15.4265 24.6273 15.2579 24.7245 15.1145C24.8218 14.9711 24.9601 14.8594 25.1219 14.7934C25.2836 14.7274 25.4616 14.7101 25.6334 14.7437C25.8051 14.7774 25.9628 14.8604 26.0867 14.9824C26.2105 15.1043 26.2948 15.2597 26.3289 15.4289C26.3631 15.598 26.3456 15.7733 26.2786 15.9327C26.2116 16.092 26.0981 16.2282 25.9525 16.324C25.8069 16.4198 25.6357 16.471 25.4606 16.471H24.5753V15.599ZM21.9196 16.471H21.0343C20.8592 16.471 20.6881 16.4198 20.5425 16.324C20.3969 16.2282 20.2834 16.092 20.2164 15.9327C20.1494 15.7733 20.1319 15.598 20.166 15.4289C20.2002 15.2597 20.2845 15.1043 20.4083 14.9824C20.5321 14.8604 20.6899 14.7774 20.8616 14.7437C21.0333 14.7101 21.2113 14.7274 21.3731 14.7934C21.5349 14.8594 21.6732 14.9711 21.7704 15.1145C21.8677 15.2579 21.9196 15.4265 21.9196 15.599V16.471Z" fill="white"/>
<path d="M28.191 20.9929C28.0469 20.8181 27.8384 20.7067 27.6111 20.6829C27.3838 20.6592 27.1562 20.7251 26.9781 20.8663C25.94 21.6951 24.6437 22.1465 23.3073 22.1445C22.2009 22.1446 21.1172 21.8351 20.1823 21.2522C19.2475 20.6693 18.4999 19.8369 18.0265 18.8519C17.9765 18.7473 17.9059 18.6534 17.8188 18.5758C17.7317 18.4982 17.6299 18.4384 17.5192 18.3998C17.4085 18.3612 17.2911 18.3446 17.1739 18.3509C17.0566 18.3573 16.9418 18.3864 16.8361 18.4367C16.6317 18.5339 16.4743 18.7064 16.398 18.9169C16.3216 19.1274 16.3325 19.359 16.4282 19.5617C17.6399 22.1076 20.265 23.8706 23.3085 23.8706C25.0472 23.8732 26.7337 23.2856 28.084 22.2067C28.1718 22.136 28.2446 22.0489 28.2983 21.9505C28.352 21.8521 28.3854 21.7442 28.3967 21.633C28.4081 21.5219 28.397 21.4096 28.3643 21.3026C28.3315 21.1957 28.2777 21.0961 28.2058 21.0097L28.191 20.9929Z" fill="white"/>
<path d="M29.7082 18.5808C29.6048 18.5301 29.4923 18.5001 29.3771 18.4923C29.262 18.4845 29.1464 18.4991 29.0369 18.5354C28.9275 18.5716 28.8264 18.6288 28.7394 18.7036C28.6524 18.7784 28.5812 18.8693 28.5299 18.9712C28.4687 19.0916 28.4033 19.2094 28.3337 19.3245C28.231 19.4936 28.1899 19.6922 28.2172 19.8875C28.2446 20.0827 28.3388 20.2629 28.4843 20.3983C28.8905 20.775 29.5488 20.6893 29.8343 20.2176C29.9278 20.0632 30.0155 19.9052 30.0972 19.7439C30.1493 19.6423 30.1805 19.5317 30.1891 19.4183C30.1978 19.3048 30.1836 19.1908 30.1475 19.0828C30.1114 18.9748 30.054 18.8748 29.9786 18.7887C29.9032 18.7025 29.8113 18.6319 29.7082 18.5808Z" fill="white"/>
<path d="M17.9513 18.7272C17.9513 18.7272 17.5317 20.8603 19.2201 22.6976C19.2201 22.6976 17.5988 21.8323 16.5357 19.7823C16.5357 19.7823 16.022 19.1232 16.6626 18.5457C16.7643 18.4598 16.8854 18.3992 17.0158 18.3689C17.0942 18.3518 17.1746 18.3455 17.2547 18.3501C17.3427 18.3536 17.4297 18.3695 17.513 18.3972C17.6122 18.4317 17.7045 18.483 17.7859 18.5486C17.8491 18.6004 17.9047 18.6605 17.9513 18.7272Z" fill="white"/>
<path d="M16.9901 18.376C16.9994 18.8406 17.0686 19.3022 17.1961 19.7496C17.6422 21.3099 18.6876 22.2741 19.2196 22.6986C19.1204 22.6425 18.9871 22.563 18.836 22.458C18.6643 22.3372 18.4997 22.2069 18.3431 22.0677C18.1252 21.8793 17.967 21.7233 17.9003 21.6559C17.8128 21.5679 17.6489 21.3984 17.4611 21.1738C17.215 20.8786 16.9913 20.5658 16.792 20.2381C16.7471 20.1665 16.7024 20.0929 16.6578 20.0172C16.6041 19.9275 16.5533 19.8392 16.5055 19.7524C16.4427 19.6587 16.3962 19.5552 16.3679 19.4464C16.3276 19.3058 16.3242 19.1575 16.3581 19.0153C16.381 18.9258 16.4192 18.8408 16.4711 18.7639C16.4778 18.7538 16.4836 18.7442 16.4836 18.7442C16.5135 18.6984 16.5476 18.6554 16.5854 18.6156C16.6826 18.5178 16.8005 18.4423 16.9306 18.3943C16.955 18.3852 16.976 18.3795 16.9901 18.376Z" fill="white"/>
<path d="M25.0923 25.7532H21.4025C21.1954 25.7526 20.997 25.6713 20.8506 25.527C20.7042 25.3828 20.6217 25.1872 20.6211 24.9832C20.6217 24.7792 20.7043 24.5837 20.8507 24.4394C20.9971 24.2952 21.1954 24.2139 21.4025 24.2134H25.0923C25.299 24.2156 25.4967 24.2966 25.6441 24.4394C25.7167 24.5108 25.7743 24.5955 25.8135 24.6888C25.8528 24.7821 25.873 24.8822 25.873 24.9832C25.8724 25.1871 25.79 25.3825 25.6438 25.5268C25.4975 25.6711 25.2993 25.7525 25.0923 25.7532Z" fill="white"/>
<path d="M24.2588 26.0269H22.2354C21.8767 26.0269 21.5859 26.3134 21.5859 26.6669C21.5859 27.0204 21.8767 27.3069 22.2354 27.3069H24.2588C24.6175 27.3069 24.9083 27.0204 24.9083 26.6669C24.9083 26.3134 24.6175 26.0269 24.2588 26.0269Z" fill="white"/>
</svg>
