<svg width="14" height="10" viewBox="0 0 14 10" fill="none" xmlns="http://www.w3.org/2000/svg">
<path d="M9.67274 0.187988H4.28414C2.28292 0.187988 0.654785 1.81534 0.654785 3.81656C0.654785 5.81782 2.28292 7.44514 4.28414 7.44514H6.67452L6.36619 8.98603C6.34283 9.1029 6.39058 9.22179 6.488 9.29041C6.53985 9.32697 6.60059 9.3454 6.66148 9.3454C6.71496 9.3454 6.76859 9.33155 6.81641 9.30288L9.92979 7.43526C11.8276 7.30277 13.3021 5.72938 13.3021 3.81578C13.3021 1.81452 11.674 0.187988 9.67274 0.187988ZM9.8171 6.83786C9.74977 6.84102 9.68846 6.86616 9.63992 6.90612L7.09025 8.43609L7.33712 7.20192C7.35482 7.11345 7.33191 7.02209 7.27472 6.95235C7.21754 6.88257 7.13208 6.84292 7.04186 6.84292H4.28414C2.61497 6.84292 1.25704 5.48577 1.25704 3.81659C1.25704 2.14742 2.615 0.790272 4.28414 0.790272H9.67274C11.3419 0.790272 12.6999 2.14667 12.6999 3.81584C12.6999 5.43545 11.4336 6.76203 9.8171 6.83786Z" fill="#646464"/>
</svg>
