<svg width="19" height="19" viewBox="0 0 19 19" fill="none" xmlns="http://www.w3.org/2000/svg">
<path d="M13.4316 7.4896L8.17008 11.1068L6.61334 8.30475C6.51985 8.13649 6.30762 8.07583 6.13932 8.16929C5.97102 8.26282 5.9104 8.47504 6.00389 8.64334L7.74686 11.7806C7.79458 11.8665 7.87626 11.9282 7.97187 11.9507C7.99823 11.9569 8.02496 11.96 8.05156 11.96C8.12146 11.96 8.19044 11.9389 8.24908 11.8986L13.8266 8.06412C13.9852 7.95504 14.0254 7.73804 13.9163 7.57937C13.8073 7.42076 13.5903 7.38049 13.4316 7.4896V7.4896Z" fill="#48A1EB"/>
<path d="M16.2537 11.3536C16.8155 10.9858 17.151 10.3655 17.151 9.69434C17.151 9.02312 16.8155 8.40284 16.2537 8.035C16.2395 8.02562 16.2337 8.00405 16.2414 7.98881C16.5436 7.38969 16.524 6.68476 16.1888 6.10289C15.8535 5.52161 15.2529 5.15238 14.5821 5.11519C14.5651 5.11428 14.5494 5.09849 14.5484 5.08151C14.5107 4.4104 14.1413 3.8096 13.5601 3.47422C13.2585 3.30052 12.9163 3.2087 12.5704 3.2087C12.2606 3.2087 11.9507 3.28256 11.6742 3.42231C11.6696 3.42461 11.6648 3.42576 11.6594 3.42576C11.6497 3.42576 11.6358 3.42165 11.6282 3.41004C11.2605 2.84783 10.6401 2.51221 9.96875 2.51221C9.29736 2.51221 8.67701 2.84783 8.30938 3.41001C8.30178 3.42165 8.2878 3.42576 8.27815 3.42576C8.27274 3.42576 8.2679 3.42465 8.26337 3.42235C7.98683 3.28256 7.67693 3.2087 7.36717 3.2087C7.02126 3.2087 6.67904 3.30052 6.3773 3.47432C5.79606 3.80967 5.42683 4.41044 5.38963 5.08148C5.38869 5.09849 5.37294 5.11428 5.35589 5.11522C4.68492 5.15242 4.08412 5.52165 3.74867 6.1031C3.41346 6.68497 3.39408 7.38996 3.69673 7.98892C3.70443 8.00415 3.69868 8.02566 3.68446 8.03497C3.12225 8.40263 2.78662 9.02295 2.78662 9.69437C2.78662 10.3657 3.12225 10.9861 3.68449 11.3538C3.69871 11.3631 3.70443 11.3845 3.69676 11.3997C3.39408 11.9987 3.4135 12.7037 3.74877 13.2858C4.08405 13.8669 4.68488 14.2363 5.356 14.2739C5.37297 14.2749 5.38869 14.2906 5.38963 14.3077C5.42683 14.9784 5.79609 15.579 6.37751 15.9145C6.67911 16.0882 7.02147 16.18 7.36755 16.18C7.67707 16.18 7.98679 16.1063 8.26319 15.9669C8.26776 15.9646 8.27264 15.9634 8.27801 15.9634C8.28773 15.9634 8.30178 15.9676 8.30941 15.9793C8.67725 16.5411 9.29754 16.8765 9.96872 16.8765C10.6399 16.8765 11.2602 16.5411 11.628 15.9793C11.6357 15.9676 11.6497 15.9634 11.6594 15.9634C11.6648 15.9634 11.6696 15.9646 11.6742 15.9669C11.9507 16.1063 12.2604 16.18 12.5699 16.18C12.916 16.18 13.2584 16.0882 13.5601 15.9144C14.1412 15.5791 14.5106 14.9785 14.5483 14.3077C14.5492 14.2906 14.565 14.2749 14.5819 14.2739C15.2528 14.2363 15.8535 13.8669 16.1888 13.2855C16.5239 12.7039 16.5435 11.999 16.2413 11.3999C16.2337 11.3846 16.2395 11.363 16.2537 11.3536V11.3536ZM15.8719 10.7704C15.5595 10.9749 15.4507 11.3804 15.6189 11.7138C15.815 12.1026 15.8022 12.5601 15.5849 12.9374C15.3676 13.314 14.9781 13.5534 14.543 13.5778C14.1702 13.5988 13.8733 13.8957 13.8523 14.2685C13.8279 14.7037 13.5884 15.0931 13.2121 15.3103C13.0162 15.4231 12.7941 15.4828 12.57 15.4828C12.369 15.4828 12.1679 15.4349 11.9883 15.3443C11.887 15.2932 11.7732 15.2662 11.6595 15.2662C11.4103 15.2662 11.1805 15.39 11.0448 15.5973C10.8062 15.9617 10.404 16.1793 9.96879 16.1793C9.5336 16.1793 9.13136 15.9617 8.89278 15.5973C8.75701 15.39 8.52725 15.2662 8.27808 15.2662C8.16433 15.2662 8.05062 15.2932 7.94925 15.3444C7.76972 15.4349 7.56858 15.4828 7.36759 15.4828C7.14348 15.4828 6.92146 15.4232 6.72572 15.3104C6.3491 15.0932 6.1099 14.7039 6.08577 14.2691C6.0651 13.8959 5.76817 13.5988 5.39504 13.5778C4.95961 13.5534 4.56995 13.314 4.35281 12.9375C4.13533 12.5601 4.12271 12.1027 4.319 11.7142C4.48765 11.3806 4.37889 10.9748 4.0661 10.7703C3.7015 10.5318 3.48384 10.1296 3.48384 9.69437C3.48384 9.25912 3.7015 8.85691 4.0661 8.61848C4.37885 8.41396 4.48762 8.00812 4.31904 7.67452C4.12271 7.28601 4.13533 6.82866 4.35271 6.45134C4.56999 6.07472 4.95944 5.83548 5.39448 5.8114C5.76793 5.79072 6.06514 5.49351 6.08581 5.1201C6.10993 4.68506 6.34917 4.29557 6.72558 4.0784C6.92142 3.9656 7.1433 3.90595 7.36724 3.90595C7.56831 3.90595 7.76944 3.95392 7.94904 4.04466C8.05048 4.0959 8.16429 4.12299 8.27821 4.12299C8.52742 4.12299 8.75722 3.99913 8.89292 3.79165C9.13136 3.42709 9.53353 3.20943 9.96882 3.20943C10.4041 3.20943 10.8063 3.42709 11.0447 3.79168C11.1804 3.99913 11.4102 4.12299 11.6594 4.12299C11.7733 4.12299 11.8872 4.0959 11.9886 4.04462C12.1682 3.95388 12.3693 3.90592 12.5704 3.90592C12.7943 3.90592 13.0162 3.96556 13.2118 4.07823C13.5884 4.2955 13.8278 4.6852 13.8523 5.12059C13.8732 5.49372 14.1704 5.79069 14.5435 5.81133C14.9783 5.83541 15.3676 6.07469 15.5848 6.4511C15.8022 6.82859 15.8149 7.28605 15.6188 7.67483C15.4507 8.00819 15.5595 8.41382 15.8718 8.6183C16.2362 8.85684 16.4537 9.25909 16.4537 9.6943C16.4538 10.1295 16.2362 10.5318 15.8719 10.7704V10.7704Z" fill="#48A1EB"/>
</svg>
