<svg width="13" height="12" viewBox="0 0 13 12" fill="none" xmlns="http://www.w3.org/2000/svg">
<path d="M9.46923 0.0541992C7.9304 0.0541992 7.11738 0.794443 6.42645 2.02001C5.73555 0.794443 4.92253 0.0541992 3.3837 0.0541992C1.55265 0.0541992 0.0629883 1.54389 0.0629883 3.37494C0.0629883 4.49371 0.442352 5.509 1.2569 6.57007C1.97582 7.50661 2.98202 8.40657 4.04731 9.35937C4.75617 9.99338 5.48916 10.649 6.22993 11.3898C6.28422 11.444 6.35535 11.4712 6.42648 11.4712C6.49764 11.4712 6.56874 11.444 6.62303 11.3898C7.36486 10.6479 8.09912 9.99146 8.80921 9.35665C9.87436 8.4044 10.8804 7.50497 11.5994 6.56882C12.4141 5.50811 12.7935 4.49321 12.7935 3.37494C12.7935 1.54389 11.3022 0.0541992 9.46923 0.0541992ZM8.43868 8.94221C7.78527 9.52635 7.11158 10.1286 6.42642 10.8018C5.74247 10.1297 5.07005 9.52829 4.41786 8.94498C2.29539 7.04661 0.618887 5.54714 0.618887 3.37494C0.618887 1.8504 1.85916 0.610125 3.38367 0.610125C4.67709 0.610125 5.38214 1.14721 6.17781 2.73854C6.2249 2.83272 6.32116 2.8922 6.42642 2.8922C6.53172 2.8922 6.62795 2.83269 6.67503 2.73854C7.47073 1.14721 8.17578 0.610125 9.46917 0.610125C10.9956 0.610125 12.2375 1.8504 12.2375 3.37494C12.2375 5.546 10.5611 7.04472 8.43868 8.94221Z" fill="#646464"/>
</svg>
