<svg width="53" height="53" viewBox="0 0 53 53" fill="none" xmlns="http://www.w3.org/2000/svg">
<circle cx="26.4245" cy="26.1173" r="25.9206" fill="#EDC649"/>
<path d="M19.5789 37.5217L18.0054 34.8486C17.9878 34.8186 17.9785 34.7846 17.9785 34.75C17.9785 34.7154 17.9877 34.6814 18.0053 34.6514C18.0228 34.6214 18.048 34.5965 18.0785 34.5791C18.1089 34.5618 18.1434 34.5527 18.1785 34.5526H19.1322C19.1678 34.5526 19.2027 34.562 19.2334 34.5798C19.2641 34.5976 19.2895 34.6231 19.3068 34.6537L20.0748 36.0076C20.0922 36.0381 20.1175 36.0635 20.1481 36.0812C20.1788 36.0988 20.2136 36.1081 20.2491 36.1081C20.2846 36.1081 20.3195 36.0988 20.3501 36.0812C20.3807 36.0635 20.406 36.0381 20.4234 36.0076L21.2021 34.6517C21.2196 34.6213 21.245 34.5961 21.2756 34.5785C21.3062 34.561 21.341 34.5517 21.3765 34.5518H22.2986C22.3337 34.5518 22.3682 34.561 22.3987 34.5783C22.4291 34.5957 22.4543 34.6207 22.4718 34.6507C22.4894 34.6807 22.4985 34.7148 22.4985 34.7494C22.4984 34.7841 22.489 34.8181 22.4714 34.848L20.8931 37.5217C20.8753 37.5519 20.866 37.5862 20.866 37.6211V39.2621C20.8659 39.3144 20.8448 39.3645 20.8073 39.4015C20.7698 39.4385 20.7189 39.4593 20.6658 39.4594H19.8059C19.7528 39.4593 19.702 39.4385 19.6644 39.4015C19.6269 39.3645 19.6058 39.3144 19.6057 39.2621V37.6211C19.6058 37.5862 19.5966 37.552 19.5789 37.5217Z" fill="white"/>
<path d="M23.1934 39.1961V34.8183C23.1934 34.7484 23.2216 34.6813 23.2718 34.6319C23.322 34.5824 23.3901 34.5546 23.4611 34.5546H24.1836C24.2546 34.5546 24.3227 34.5824 24.3729 34.6319C24.4231 34.6813 24.4513 34.7484 24.4513 34.8183V35.8393C24.4505 35.8957 24.4681 35.9509 24.5016 35.9967C24.535 36.0425 24.5825 36.0766 24.637 36.0939C24.6915 36.1112 24.7502 36.1108 24.8045 36.0927C24.8588 36.0747 24.9057 36.04 24.9385 35.9937L25.9112 34.6636C25.936 34.6296 25.9687 34.6018 26.0066 34.5827C26.0444 34.5636 26.0864 34.5537 26.1289 34.5537H26.9416C26.9913 34.5532 27.0401 34.5664 27.0826 34.5917C27.1252 34.617 27.1597 34.6535 27.1824 34.697C27.2051 34.7406 27.2151 34.7895 27.2111 34.8383C27.2072 34.8871 27.1896 34.9339 27.1602 34.9734L25.8689 36.7316C25.8363 36.7763 25.8185 36.8298 25.8181 36.8848C25.8177 36.9398 25.8346 36.9936 25.8666 37.0387L27.2929 39.0437C27.3214 39.0833 27.3383 39.1299 27.3416 39.1783C27.345 39.2268 27.3348 39.2752 27.312 39.3182C27.2892 39.3613 27.2549 39.3973 27.2126 39.4224C27.1704 39.4474 27.122 39.4605 27.0727 39.4602H26.1741C26.13 39.4603 26.0865 39.4496 26.0475 39.4292C26.0085 39.4087 25.9753 39.3791 25.9507 39.3429L24.9448 37.8604C24.9131 37.8128 24.8666 37.7765 24.8123 37.757C24.7579 37.7375 24.6986 37.7359 24.6433 37.7524C24.5879 37.7689 24.5395 37.8026 24.5052 37.8485C24.4709 37.8944 24.4526 37.95 24.4531 38.007V39.1961C24.4531 39.2661 24.4249 39.3332 24.3747 39.3826C24.3245 39.4321 24.2564 39.4599 24.1854 39.4599H23.462C23.4267 39.46 23.3918 39.4532 23.3592 39.44C23.3267 39.4268 23.297 39.4074 23.2721 39.3829C23.2471 39.3584 23.2273 39.3293 23.2138 39.2973C23.2003 39.2652 23.1934 39.2308 23.1934 39.1961Z" fill="white"/>
<path d="M29.0127 39.4596H28.3512C28.2723 39.4596 28.1966 39.4287 28.1408 39.3737C28.085 39.3188 28.0537 39.2442 28.0537 39.1665V34.8468C28.0537 34.769 28.085 34.6945 28.1408 34.6395C28.1966 34.5846 28.2723 34.5537 28.3512 34.5537H29.0127C29.0916 34.5537 29.1672 34.5846 29.223 34.6395C29.2788 34.6945 29.3101 34.769 29.3101 34.8468V39.1653C29.3103 39.2039 29.3027 39.2422 29.2878 39.2778C29.273 39.3135 29.2511 39.346 29.2234 39.3733C29.1958 39.4007 29.163 39.4223 29.1268 39.4371C29.0906 39.4519 29.0519 39.4596 29.0127 39.4596Z" fill="white"/>
<path d="M30.3379 34.874C30.3379 34.7891 30.3721 34.7076 30.4331 34.6475C30.4941 34.5875 30.5768 34.5537 30.663 34.5537H32.2844C32.8377 34.5537 33.2892 34.6914 33.6328 34.961C33.9763 35.2306 34.148 35.6254 34.148 36.1455C34.148 36.6783 33.9635 37.0856 33.6009 37.3614C33.2384 37.6307 32.774 37.7687 32.208 37.7687H31.9162C31.8299 37.7687 31.7473 37.8024 31.6863 37.8625C31.6253 37.9226 31.5911 38.004 31.5911 38.089V39.1404C31.591 39.2254 31.5567 39.3068 31.4957 39.3668C31.4348 39.4269 31.3521 39.4607 31.2659 39.4607H30.663C30.5768 39.4607 30.4941 39.427 30.4331 39.3669C30.3721 39.3068 30.3379 39.2254 30.3379 39.1404V34.874ZM31.5911 36.3955C31.5911 36.4804 31.6253 36.5619 31.6863 36.622C31.7473 36.682 31.8299 36.7158 31.9162 36.7158H32.1889C32.6533 36.7158 32.8885 36.54 32.8885 36.1956C32.8885 35.8258 32.6533 35.6389 32.1824 35.6389H31.9162C31.8299 35.6389 31.7473 35.6726 31.6863 35.7327C31.6253 35.7927 31.5911 35.8742 31.5911 35.9591V36.3955Z" fill="white"/>
<path d="M34.8174 34.874C34.8174 34.7891 34.8516 34.7076 34.9126 34.6475C34.9736 34.5875 35.0563 34.5537 35.1425 34.5537H36.7639C37.3175 34.5537 37.769 34.6914 38.1126 34.961C38.4561 35.2306 38.6278 35.6254 38.6278 36.1455C38.6278 36.6783 38.4433 37.0856 38.0807 37.3614C37.7181 37.6307 37.2538 37.7687 36.6878 37.7687H36.3957C36.3094 37.7687 36.2267 37.8024 36.1658 37.8625C36.1048 37.9226 36.0706 38.004 36.0706 38.089V39.1404C36.0706 39.2254 36.0363 39.3068 35.9753 39.3669C35.9144 39.427 35.8317 39.4607 35.7454 39.4607H35.1425C35.0563 39.4607 34.9736 39.4269 34.9127 39.3668C34.8517 39.3068 34.8175 39.2254 34.8174 39.1404V34.874ZM36.0706 36.3955C36.0706 36.4804 36.1048 36.5619 36.1658 36.622C36.2267 36.682 36.3094 36.7158 36.3957 36.7158H36.6684C37.1331 36.7158 37.3683 36.54 37.3683 36.1956C37.3683 35.8258 37.1331 35.6389 36.6622 35.6389H36.3945C36.3082 35.6389 36.2256 35.6726 36.1646 35.7327C36.1036 35.7927 36.0694 35.8742 36.0694 35.9591L36.0706 36.3955Z" fill="white"/>
<path d="M29.4057 27.2227C29.5517 27.2227 29.6916 27.1657 29.7949 27.0641C29.8982 26.9625 29.9564 26.8247 29.9566 26.681V20.7101H31.0587C31.4946 20.7101 31.9207 20.5828 32.2832 20.3442C32.6457 20.1057 32.9282 19.7666 33.095 19.3699C33.2618 18.9732 33.3055 18.5367 33.2204 18.1156C33.1354 17.6945 32.9255 17.3076 32.6172 17.004C32.309 16.7004 31.9162 16.4936 31.4887 16.4099C31.0611 16.3261 30.6179 16.3691 30.2152 16.5334C29.8124 16.6977 29.4682 16.976 29.226 17.333C28.9838 17.69 28.8545 18.1098 28.8545 18.5391V19.6246H27.754V18.5391C27.754 18.1098 27.6247 17.69 27.3825 17.333C27.1403 16.976 26.7961 16.6977 26.3933 16.5334C25.9906 16.3691 25.5474 16.3261 25.1198 16.4099C24.6923 16.4936 24.2995 16.7004 23.9913 17.004C23.683 17.3076 23.4731 17.6945 23.3881 18.1156C23.303 18.5367 23.3467 18.9732 23.5135 19.3699C23.6803 19.7666 23.9628 20.1057 24.3253 20.3442C24.6877 20.5828 25.1139 20.7101 25.5498 20.7101H26.6519V26.681C26.6552 26.8227 26.7148 26.9576 26.8177 27.0567C26.9207 27.1558 27.059 27.2113 27.2029 27.2113C27.3469 27.2113 27.4851 27.1558 27.5881 27.0567C27.6911 26.9576 27.7506 26.8227 27.754 26.681V20.7101H28.8545V26.681C28.8548 26.8248 28.9131 26.9625 29.0164 27.0641C29.1197 27.1657 29.2597 27.2227 29.4057 27.2227ZM29.9566 18.5391C29.9566 18.3244 30.0212 18.1146 30.1423 17.9361C30.2634 17.7576 30.4355 17.6184 30.6369 17.5363C30.8383 17.4541 31.0599 17.4326 31.2737 17.4745C31.4874 17.5164 31.6838 17.6198 31.8379 17.7716C31.9921 17.9234 32.097 18.1168 32.1395 18.3274C32.1821 18.5379 32.1602 18.7562 32.0768 18.9545C31.9934 19.1529 31.8522 19.3224 31.6709 19.4417C31.4897 19.561 31.2766 19.6246 31.0587 19.6246H29.9566V18.5391ZM26.6507 19.6246H25.5486C25.3307 19.6246 25.1176 19.561 24.9364 19.4417C24.7551 19.3224 24.6139 19.1529 24.5305 18.9545C24.4471 18.7562 24.4252 18.5379 24.4678 18.3274C24.5103 18.1168 24.6152 17.9234 24.7694 17.7716C24.9235 17.6198 25.1199 17.5164 25.3336 17.4745C25.5474 17.4326 25.769 17.4541 25.9704 17.5363C26.1718 17.6184 26.3439 17.7576 26.465 17.9361C26.5861 18.1146 26.6507 18.3244 26.6507 18.5391V19.6246Z" fill="white"/>
<path d="M34.4578 25.2539C34.2784 25.0363 34.0189 24.8975 33.7359 24.868C33.4529 24.8384 33.1696 24.9205 32.9479 25.0963C31.6556 26.128 30.042 26.6899 28.3785 26.6874C27.0011 26.6874 25.6521 26.3022 24.4884 25.5766C23.3246 24.851 22.394 23.8148 21.8048 22.5887C21.7425 22.4584 21.6546 22.3416 21.5462 22.245C21.4378 22.1484 21.311 22.0739 21.1732 22.0259C21.0354 21.9778 20.8893 21.9571 20.7434 21.965C20.5974 21.9729 20.4545 22.0092 20.3228 22.0718C20.0684 22.1928 19.8725 22.4075 19.7775 22.6695C19.6825 22.9316 19.696 23.2199 19.8151 23.4723C21.3235 26.6414 24.5913 28.8361 28.3799 28.8361C30.5443 28.8393 32.6437 28.1078 34.3245 26.7648C34.4339 26.6768 34.5245 26.5684 34.5913 26.4459C34.6582 26.3234 34.6998 26.1891 34.7139 26.0507C34.728 25.9123 34.7142 25.7725 34.6735 25.6394C34.6327 25.5062 34.5657 25.3823 34.4762 25.2747L34.4578 25.2539Z" fill="white"/>
<path d="M36.3457 22.2509C36.217 22.1879 36.077 22.1504 35.9336 22.1407C35.7903 22.131 35.6464 22.1493 35.5101 22.1944C35.3739 22.2395 35.2481 22.3107 35.1398 22.4038C35.0315 22.4969 34.9428 22.6101 34.879 22.7369C34.8028 22.8868 34.7214 23.0334 34.6348 23.1766C34.5069 23.3872 34.4557 23.6344 34.4898 23.8775C34.5239 24.1206 34.6411 24.3449 34.8222 24.5133C35.3278 24.9824 36.1473 24.8757 36.5028 24.2885C36.6192 24.0962 36.7282 23.8996 36.83 23.6987C36.8948 23.5724 36.9337 23.4346 36.9445 23.2934C36.9552 23.1522 36.9376 23.0103 36.8926 22.8758C36.8476 22.7413 36.7762 22.6169 36.6823 22.5097C36.5885 22.4025 36.4741 22.3145 36.3457 22.2509Z" fill="white"/>
<path d="M21.7108 22.4332C21.7108 22.4332 21.1885 25.0885 23.2903 27.3757C23.2903 27.3757 21.2721 26.2985 19.9487 23.7466C19.9487 23.7466 19.3092 22.9261 20.1066 22.2073C20.2332 22.1003 20.384 22.0249 20.5463 21.9872C20.6438 21.9659 20.744 21.958 20.8437 21.9637C20.9532 21.9681 21.0615 21.9878 21.1653 22.0224C21.2887 22.0654 21.4036 22.1291 21.505 22.2108C21.5836 22.2753 21.6528 22.3502 21.7108 22.4332Z" fill="white"/>
<path d="M20.5138 21.9961C20.5254 22.5745 20.6116 23.149 20.7702 23.706C21.3256 25.6483 22.6269 26.8486 23.2891 27.377C23.1656 27.3072 22.9996 27.2082 22.8116 27.0775C22.5979 26.9272 22.393 26.7649 22.198 26.5916C21.9267 26.3572 21.7298 26.1629 21.6468 26.0791C21.538 25.9695 21.3339 25.7585 21.1001 25.4789C20.7937 25.1114 20.5153 24.7221 20.2672 24.3141C20.2113 24.225 20.1556 24.1334 20.1001 24.0392C20.0332 23.9274 19.9701 23.8176 19.9106 23.7095C19.8324 23.5928 19.7744 23.4641 19.7393 23.3286C19.6891 23.1536 19.6849 22.969 19.7271 22.792C19.7556 22.6806 19.8031 22.5747 19.8678 22.479C19.8761 22.4664 19.8832 22.4544 19.8832 22.4544C19.9205 22.3974 19.9629 22.3439 20.0099 22.2944C20.131 22.1727 20.2777 22.0786 20.4398 22.019C20.4701 22.0075 20.4963 22.0005 20.5138 21.9961Z" fill="white"/>
<path d="M30.6001 31.1795H26.0069C25.7491 31.1788 25.5021 31.0776 25.3198 30.898C25.1376 30.7184 25.0349 30.475 25.0342 30.221C25.035 29.967 25.1377 29.7237 25.32 29.5441C25.5022 29.3646 25.7492 29.2634 26.0069 29.2627H30.6001C30.8574 29.2655 31.1035 29.3663 31.2869 29.5441C31.3773 29.6329 31.449 29.7384 31.4979 29.8545C31.5468 29.9707 31.5719 30.0952 31.5719 30.221C31.5712 30.4748 31.4686 30.7181 31.2865 30.8977C31.1045 31.0773 30.8577 31.1786 30.6001 31.1795Z" fill="white"/>
<path d="M29.5627 31.52H27.0438C26.5973 31.52 26.2354 31.8767 26.2354 32.3168C26.2354 32.7568 26.5973 33.1135 27.0438 33.1135H29.5627C30.0092 33.1135 30.3711 32.7568 30.3711 32.3168C30.3711 31.8767 30.0092 31.52 29.5627 31.52Z" fill="white"/>
</svg>
