<svg width="18" height="20" viewBox="0 0 18 20" fill="none" xmlns="http://www.w3.org/2000/svg">
<path d="M2.23879 17.8483L0.974739 15.7009C0.960603 15.6768 0.953149 15.6495 0.953125 15.6217C0.953101 15.5939 0.960509 15.5665 0.974603 15.5424C0.988697 15.5183 1.00898 15.4983 1.03342 15.4844C1.05785 15.4705 1.08558 15.4631 1.11381 15.4631H1.87989C1.90849 15.4631 1.93657 15.4706 1.96123 15.4849C1.98589 15.4992 2.00623 15.5197 2.02015 15.5443L2.63712 16.6319C2.65108 16.6564 2.67141 16.6768 2.69602 16.691C2.72063 16.7052 2.74863 16.7127 2.77715 16.7127C2.80566 16.7127 2.83367 16.7052 2.85827 16.691C2.88288 16.6768 2.90321 16.6564 2.91717 16.6319L3.54274 15.5427C3.55679 15.5183 3.57715 15.498 3.60175 15.4839C3.62635 15.4698 3.65431 15.4624 3.68277 15.4624H4.42352C4.45176 15.4624 4.4795 15.4698 4.50393 15.4838C4.52837 15.4977 4.54864 15.5178 4.56272 15.5419C4.57679 15.566 4.58416 15.5934 4.5841 15.6212C4.58404 15.649 4.57653 15.6763 4.56235 15.7004L3.29447 17.8483C3.28019 17.8725 3.27269 17.9 3.27273 17.9281V19.2464C3.27267 19.2884 3.2557 19.3286 3.22556 19.3583C3.19541 19.388 3.15455 19.4047 3.11192 19.4048H2.42111C2.37848 19.4047 2.33761 19.388 2.30747 19.3583C2.27732 19.3286 2.26036 19.2884 2.26029 19.2464V17.9281C2.26039 17.9001 2.25297 17.8725 2.23879 17.8483Z" fill="white"/>
<path d="M5.14258 19.1932V15.6765C5.14258 15.6203 5.16524 15.5664 5.20557 15.5266C5.2459 15.4869 5.3006 15.4646 5.35763 15.4646H5.93805C5.99508 15.4646 6.04978 15.4869 6.09011 15.5266C6.13044 15.5664 6.1531 15.6203 6.1531 15.6765V16.4966C6.15249 16.5419 6.16665 16.5863 6.1935 16.6231C6.22035 16.6599 6.25847 16.6872 6.30227 16.7011C6.34607 16.715 6.39324 16.7147 6.43684 16.7002C6.48044 16.6857 6.51817 16.6579 6.5445 16.6207L7.32587 15.5522C7.34581 15.5248 7.37208 15.5025 7.40249 15.4872C7.43291 15.4718 7.46661 15.4638 7.50078 15.4639H8.1536C8.19352 15.4635 8.23276 15.474 8.26694 15.4944C8.30111 15.5147 8.32887 15.544 8.3471 15.579C8.36533 15.614 8.37331 15.6533 8.37016 15.6925C8.367 15.7317 8.35283 15.7693 8.32923 15.801L7.29194 17.2134C7.26572 17.2493 7.25144 17.2923 7.2511 17.3365C7.25076 17.3807 7.26436 17.4239 7.29003 17.4601L8.4358 19.0708C8.45872 19.1026 8.47228 19.14 8.47499 19.1789C8.47771 19.2178 8.46947 19.2567 8.45119 19.2913C8.4329 19.3259 8.40528 19.3549 8.37137 19.375C8.33745 19.3951 8.29856 19.4056 8.25898 19.4053H7.53711C7.50163 19.4054 7.46668 19.3969 7.43537 19.3805C7.40406 19.364 7.37736 19.3402 7.35765 19.3112L6.54952 18.1202C6.52408 18.0819 6.48673 18.0528 6.44307 18.0372C6.39941 18.0215 6.35179 18.0202 6.30732 18.0335C6.26285 18.0467 6.22394 18.0738 6.1964 18.1107C6.16885 18.1475 6.15417 18.1922 6.15453 18.2379V19.1932C6.15453 19.2494 6.13188 19.3033 6.09155 19.343C6.05122 19.3828 5.99652 19.4051 5.93948 19.4051H5.35835C5.33005 19.4052 5.30201 19.3998 5.27583 19.3892C5.24966 19.3786 5.22587 19.363 5.20582 19.3433C5.18577 19.3236 5.16987 19.3002 5.15902 19.2745C5.14816 19.2487 5.14258 19.2211 5.14258 19.1932Z" fill="white"/>
<path d="M9.81725 19.4049H9.28583C9.22245 19.4049 9.16167 19.3801 9.11686 19.3359C9.07205 19.2918 9.04688 19.2319 9.04688 19.1694V15.6993C9.04688 15.6368 9.07205 15.577 9.11686 15.5328C9.16167 15.4887 9.22245 15.4639 9.28583 15.4639H9.81725C9.88062 15.4639 9.9414 15.4887 9.98621 15.5328C10.031 15.577 10.0562 15.6368 10.0562 15.6993V19.1685C10.0563 19.1995 10.0502 19.2302 10.0383 19.2589C10.0263 19.2875 10.0088 19.3136 9.98655 19.3356C9.96435 19.3575 9.93797 19.375 9.90891 19.3868C9.87986 19.3987 9.84871 19.4049 9.81725 19.4049Z" fill="white"/>
<path d="M10.8818 15.7212C10.8818 15.6529 10.9094 15.5875 10.9583 15.5392C11.0073 15.491 11.0737 15.4639 11.143 15.4639H12.4455C12.89 15.4639 13.2527 15.5745 13.5287 15.7911C13.8047 16.0077 13.9426 16.3248 13.9426 16.7426C13.9426 17.1706 13.7944 17.4978 13.5031 17.7193C13.2118 17.9357 12.8388 18.0465 12.3841 18.0465H12.1497C12.0804 18.0465 12.014 18.0736 11.965 18.1219C11.9161 18.1702 11.8885 18.2356 11.8885 18.3038V19.1485C11.8885 19.2167 11.8609 19.2821 11.812 19.3304C11.763 19.3786 11.6966 19.4057 11.6274 19.4058H11.143C11.0737 19.4058 11.0073 19.3787 10.9583 19.3304C10.9094 19.2822 10.8818 19.2167 10.8818 19.1485V15.7212ZM11.8885 16.9434C11.8885 17.0117 11.9161 17.0771 11.965 17.1254C12.014 17.1736 12.0804 17.2007 12.1497 17.2007H12.3688C12.7418 17.2007 12.9308 17.0595 12.9308 16.7829C12.9308 16.4858 12.7418 16.3356 12.3636 16.3356H12.1497C12.0804 16.3356 12.014 16.3627 11.965 16.4109C11.9161 16.4592 11.8885 16.5246 11.8885 16.5929V16.9434Z" fill="white"/>
<path d="M14.4805 15.7212C14.4805 15.6529 14.508 15.5875 14.557 15.5392C14.6059 15.491 14.6724 15.4639 14.7416 15.4639H16.0442C16.4889 15.4639 16.8516 15.5745 17.1276 15.7911C17.4036 16.0077 17.5414 16.3248 17.5414 16.7426C17.5414 17.1706 17.3933 17.4978 17.102 17.7193C16.8107 17.9357 16.4377 18.0465 15.983 18.0465H15.7483C15.6791 18.0465 15.6126 18.0736 15.5637 18.1219C15.5147 18.1702 15.4872 18.2356 15.4872 18.3038V19.1485C15.4872 19.2167 15.4597 19.2822 15.4107 19.3304C15.3617 19.3787 15.2953 19.4058 15.226 19.4058H14.7416C14.6724 19.4057 14.606 19.3786 14.557 19.3304C14.5081 19.2821 14.4805 19.2167 14.4805 19.1485V15.7212ZM15.4872 16.9434C15.4872 17.0117 15.5147 17.0771 15.5637 17.1254C15.6126 17.1736 15.6791 17.2007 15.7483 17.2007H15.9675C16.3407 17.2007 16.5297 17.0595 16.5297 16.7829C16.5297 16.4858 16.3407 16.3356 15.9624 16.3356H15.7474C15.6781 16.3356 15.6117 16.3627 15.5627 16.4109C15.5137 16.4592 15.4862 16.5246 15.4862 16.5929L15.4872 16.9434Z" fill="white"/>
<path d="M10.1328 9.57469C10.25 9.57469 10.3625 9.52886 10.4455 9.44727C10.5284 9.36568 10.5751 9.255 10.5753 9.13952V4.34296H11.4606C11.8108 4.34296 12.1532 4.24068 12.4444 4.04904C12.7355 3.85741 12.9625 3.58504 13.0965 3.26637C13.2305 2.94769 13.2656 2.59704 13.1973 2.25873C13.1289 1.92043 12.9603 1.60969 12.7127 1.36578C12.465 1.12188 12.1495 0.955784 11.8061 0.888492C11.4626 0.821199 11.1066 0.855736 10.7831 0.987735C10.4595 1.11973 10.183 1.34326 9.98843 1.63006C9.79387 1.91686 9.69002 2.25404 9.69002 2.59897V3.47096H8.8059V2.59897C8.8059 2.25404 8.70206 1.91686 8.5075 1.63006C8.31294 1.34326 8.0364 1.11973 7.71287 0.987735C7.38933 0.855736 7.03331 0.821199 6.68984 0.888492C6.34638 0.955784 6.03088 1.12188 5.78325 1.36578C5.53563 1.60969 5.36699 1.92043 5.29867 2.25873C5.23035 2.59704 5.26542 2.94769 5.39943 3.26637C5.53344 3.58504 5.76039 3.85741 6.05157 4.04904C6.34275 4.24068 6.68508 4.34296 7.03528 4.34296H7.92059V9.13952C7.92328 9.2534 7.97109 9.36172 8.05381 9.44133C8.13653 9.52093 8.24759 9.5655 8.36325 9.5655C8.4789 9.5655 8.58996 9.52093 8.67268 9.44133C8.7554 9.36172 8.80322 9.2534 8.8059 9.13952V4.34296H9.69002V9.13952C9.69027 9.25502 9.73703 9.3657 9.82004 9.44729C9.90305 9.52887 10.0155 9.57469 10.1328 9.57469ZM10.5753 2.59897C10.5753 2.42651 10.6273 2.25791 10.7245 2.11452C10.8218 1.97112 10.9601 1.85935 11.1219 1.79335C11.2836 1.72735 11.4616 1.71008 11.6334 1.74373C11.8051 1.77738 11.9628 1.86043 12.0867 1.98238C12.2105 2.10433 12.2948 2.2597 12.3289 2.42885C12.3631 2.598 12.3456 2.77333 12.2786 2.93267C12.2116 3.092 12.0981 3.22819 11.9525 3.32401C11.8069 3.41982 11.6357 3.47096 11.4606 3.47096H10.5753V2.59897ZM7.91963 3.47096H7.03432C6.85922 3.47096 6.68806 3.41982 6.54247 3.32401C6.39688 3.22819 6.2834 3.092 6.2164 2.93267C6.14939 2.77333 6.13186 2.598 6.16602 2.42885C6.20018 2.2597 6.2845 2.10433 6.40831 1.98238C6.53212 1.86043 6.68987 1.77738 6.8616 1.74373C7.03334 1.71008 7.21134 1.72735 7.37311 1.79335C7.53488 1.85935 7.67315 1.97112 7.77043 2.11452C7.86771 2.25791 7.91963 2.42651 7.91963 2.59897V3.47096Z" fill="white"/>
<path d="M14.191 7.99294C14.0469 7.81814 13.8384 7.70667 13.6111 7.68294C13.3838 7.65921 13.1562 7.72515 12.9781 7.86632C11.94 8.69512 10.6437 9.1465 9.30735 9.14454C8.20091 9.14456 7.11721 8.83512 6.18235 8.25222C5.24748 7.66932 4.49988 6.83694 4.02653 5.85191C3.97649 5.74727 3.90589 5.65344 3.81881 5.57584C3.73173 5.49824 3.6299 5.43841 3.51921 5.3998C3.40851 5.3612 3.29114 5.34459 3.17389 5.35093C3.05664 5.35727 2.94182 5.38643 2.83608 5.43674C2.63168 5.53388 2.4743 5.70636 2.39797 5.91688C2.32165 6.12739 2.3325 6.35904 2.42819 6.56174C3.63991 9.10759 6.26503 10.8706 9.30854 10.8706C11.0472 10.8732 12.7337 10.2856 14.084 9.20667C14.1718 9.13598 14.2446 9.04894 14.2983 8.95051C14.352 8.85208 14.3854 8.7442 14.3967 8.63304C14.4081 8.52187 14.397 8.4096 14.3643 8.30263C14.3315 8.19567 14.2777 8.09611 14.2058 8.00965L14.191 7.99294Z" fill="white"/>
<path d="M15.7082 5.5808C15.6048 5.53015 15.4923 5.50006 15.3771 5.49227C15.262 5.48448 15.1464 5.49913 15.0369 5.53539C14.9275 5.57165 14.8264 5.6288 14.7394 5.70359C14.6524 5.77837 14.5812 5.86932 14.5299 5.97123C14.4687 6.09164 14.4033 6.20938 14.3337 6.32446C14.231 6.49358 14.1899 6.6922 14.2172 6.88746C14.2446 7.08273 14.3388 7.26293 14.4843 7.39826C14.8905 7.77503 15.5488 7.68931 15.8343 7.21764C15.9278 7.06317 16.0155 6.90524 16.0972 6.74385C16.1493 6.64234 16.1805 6.5317 16.1891 6.41826C16.1978 6.30483 16.1836 6.19083 16.1475 6.0828C16.1114 5.97476 16.054 5.87482 15.9786 5.78868C15.9032 5.70254 15.8113 5.6319 15.7082 5.5808Z" fill="white"/>
<path d="M3.95128 5.72723C3.95128 5.72723 3.53168 7.86027 5.22011 9.69764C5.22011 9.69764 3.59883 8.83228 2.53574 6.78234C2.53574 6.78234 2.02199 6.12319 2.66262 5.54573C2.7643 5.45983 2.88541 5.3992 3.01579 5.36894C3.09417 5.3518 3.17459 5.34546 3.25474 5.35011C3.34268 5.35361 3.42966 5.36946 3.51305 5.39719C3.61219 5.43175 3.70452 5.48296 3.78593 5.54856C3.84907 5.6004 3.9047 5.66051 3.95128 5.72723Z" fill="white"/>
<path d="M2.99014 5.37598C2.99943 5.8406 3.06865 6.30217 3.19611 6.74959C3.64224 8.30988 4.68765 9.27411 5.21955 9.69855C5.12039 9.64253 4.98705 9.56296 4.83603 9.45797C4.6643 9.33722 4.49972 9.20691 4.34308 9.06766C4.12516 8.87933 3.96697 8.72326 3.9003 8.65593C3.81285 8.56789 3.64893 8.39839 3.46111 8.17381C3.21498 7.87857 2.99134 7.5658 2.79205 7.23806C2.74713 7.1665 2.70236 7.09289 2.65776 7.01725C2.60407 6.92748 2.55334 6.8392 2.50555 6.75241C2.4427 6.65866 2.39618 6.55523 2.36791 6.44638C2.32759 6.30585 2.32422 6.15752 2.35811 6.01535C2.38101 5.92582 2.41923 5.8408 2.47114 5.76393C2.47783 5.75381 2.48356 5.74416 2.48356 5.74416C2.51351 5.69839 2.54758 5.65537 2.58536 5.61562C2.68259 5.51781 2.80047 5.44227 2.93064 5.39434C2.95501 5.38516 2.97604 5.37951 2.99014 5.37598Z" fill="white"/>
<path d="M11.0923 12.7532H7.40246C7.19541 12.7526 6.99699 12.6713 6.85058 12.527C6.70417 12.3828 6.62166 12.1872 6.62109 11.9832C6.62172 11.7792 6.70426 11.5837 6.85066 11.4394C6.99707 11.2952 7.19545 11.2139 7.40246 11.2134H11.0923C11.299 11.2156 11.4967 11.2966 11.6441 11.4394C11.7167 11.5108 11.7743 11.5955 11.8135 11.6888C11.8528 11.7821 11.873 11.8822 11.873 11.9832C11.8724 12.1871 11.79 12.3825 11.6438 12.5268C11.4975 12.6711 11.2993 12.7525 11.0923 12.7532Z" fill="white"/>
<path d="M10.2588 13.0269H8.23541C7.87671 13.0269 7.58594 13.3134 7.58594 13.6669C7.58594 14.0204 7.87671 14.3069 8.23541 14.3069H10.2588C10.6175 14.3069 10.9083 14.0204 10.9083 13.6669C10.9083 13.3134 10.6175 13.0269 10.2588 13.0269Z" fill="white"/>
</svg>
