<svg width="18" height="14" viewBox="0 0 18 14" fill="none" xmlns="http://www.w3.org/2000/svg">
<path fill-rule="evenodd" clip-rule="evenodd" d="M1.39823 6.24572C1.03215 6.29612 0.75 6.61457 0.75 6.9999C0.75 7.42026 1.08579 7.76102 1.5 7.76102L14.6833 7.76102L9.92097 12.5746L9.84818 12.6598C9.62971 12.9573 9.65306 13.3802 9.91877 13.651C10.2111 13.9488 10.6859 13.9498 10.9794 13.6532L17.0187 7.54962C17.0547 7.51466 17.0872 7.4761 17.1158 7.43451C17.3203 7.13728 17.2914 6.72494 17.0294 6.46014L10.9794 0.34677L10.8951 0.273259C10.601 0.0528145 10.1844 0.0782909 9.91873 0.349089C9.62647 0.646967 9.62749 1.12888 9.92101 1.42548L14.6845 6.23877L1.5 6.23877L1.39823 6.24572Z" fill="white"/>
</svg>
